<?xml version="1.0" encoding="utf-8"?>
<!-- Generator: Adobe Illustrator 16.0.4, SVG Export Plug-In . SVG Version: 6.00 Build 0)  -->
<!DOCTYPE svg PUBLIC "-//W3C//DTD SVG 1.1//EN" "http://www.w3.org/Graphics/SVG/1.1/DTD/svg11.dtd">
<svg version="1.1" id="Layer_1" xmlns="http://www.w3.org/2000/svg" xmlns:xlink="http://www.w3.org/1999/xlink" x="0px" y="0px"
	 width="145.864px" height="26.334px" viewBox="0 0 145.864 26.334" enable-background="new 0 0 145.864 26.334"
	 xml:space="preserve">
<path fill="#009BDE" stroke="#FFFFFF" stroke-miterlimit="10" d="M81.812,25.834H63.687c-1.988,0-3.605-1.616-3.605-3.604V4.104
	c0-1.987,1.617-3.604,3.605-3.604h18.125c1.988,0,3.605,1.616,3.605,3.604v18.126C85.417,24.218,83.8,25.834,81.812,25.834
	 M63.687,1.435c-1.472,0-2.67,1.198-2.67,2.669v18.126c0,1.473,1.198,2.669,2.67,2.669h18.125c1.472,0,2.67-1.196,2.67-2.669V4.104
	c0-1.471-1.198-2.669-2.67-2.669H63.687z"/>
<polygon fill="#009BDE" stroke="#FFFFFF" stroke-miterlimit="10" points="82.786,12.931 79.703,12.931 79.703,11.632 82.51,11.632 
	"/>
<path fill="#009BDE" stroke="#FFFFFF" stroke-miterlimit="10" d="M82.205,12.933c-0.744-4.487-4.712-7.856-9.278-7.856
	c-4.567,0-8.534,3.369-9.278,7.857h-0.814c0.751-4.938,5.09-8.661,10.092-8.661c4.999,0,9.339,3.725,10.093,8.659L82.205,12.933z"/>
<rect x="72.104" y="4.607" fill="#009BDE" stroke="#FFFFFF" stroke-miterlimit="10" width="1.299" height="3.346"/>
<rect x="65.727" y="7.629" transform="matrix(0.7037 0.7105 -0.7105 0.7037 25.5286 -45.23)" fill="#009BDE" stroke="#FFFFFF" stroke-miterlimit="10" width="2.54" height="0.731"/>
<rect x="78.136" y="6.724" transform="matrix(0.7108 0.7034 -0.7034 0.7108 28.3281 -52.9071)" fill="#009BDE" stroke="#FFFFFF" stroke-miterlimit="10" width="0.73" height="2.541"/>
<polygon fill="#009BDE" stroke="#FFFFFF" stroke-miterlimit="10" points="65.879,12.931 62.849,12.931 63.293,11.632 65.879,11.632 
	"/>
<path fill="#009BDE" stroke="#FFFFFF" stroke-miterlimit="10" d="M73.913,14.07c0,0.643-0.521,1.165-1.165,1.165
	c-0.643,0-1.164-0.522-1.164-1.165c0-0.644,0.521-1.165,1.164-1.165C73.392,12.905,73.913,13.427,73.913,14.07"/>
<path fill="#009BDE" stroke="#FFFFFF" stroke-miterlimit="10" d="M72.921,14.344c-0.087,0-0.173-0.042-0.226-0.12
	c-0.085-0.125-0.053-0.295,0.072-0.38l6.742-4.598c0.124-0.085,0.295-0.053,0.381,0.072c0.085,0.126,0.053,0.296-0.072,0.381
	l-6.743,4.597C73.028,14.329,72.974,14.344,72.921,14.344"/>
<polygon fill="#009BDE" stroke="#FFFFFF" stroke-miterlimit="10" points="65.36,13.596 65.36,14.169 63.723,14.169 63.723,14.833 
	65.225,14.833 65.225,15.362 63.723,15.362 63.723,16.122 65.395,16.122 65.395,16.694 63.042,16.694 63.042,13.596 "/>
<polygon fill="#009BDE" stroke="#FFFFFF" stroke-miterlimit="10" points="82.505,13.596 82.505,14.169 81.007,14.169 81.007,14.885 
	82.306,14.885 82.306,15.415 81.007,15.415 81.007,16.694 80.327,16.694 80.327,13.596 "/>
<path fill="#009BDE" stroke="#FFFFFF" stroke-miterlimit="10" d="M141.76,25.834h-18.125c-1.988,0-3.605-1.616-3.605-3.604V4.104
	c0-1.987,1.617-3.604,3.605-3.604h18.125c1.987,0,3.604,1.616,3.604,3.604v18.126C145.364,24.218,143.747,25.834,141.76,25.834
	 M123.635,1.435c-1.473,0-2.67,1.198-2.67,2.669v18.126c0,1.473,1.197,2.669,2.67,2.669h18.125c1.472,0,2.67-1.196,2.67-2.669V4.104
	c0-1.471-1.198-2.669-2.67-2.669H123.635z"/>
<g>
	<path fill="#009BDE" stroke="#FFFFFF" stroke-miterlimit="10" d="M22.229,25.834H4.104c-1.988,0-3.604-1.616-3.604-3.604V4.104
		C0.5,2.116,2.116,0.5,4.104,0.5h18.125c1.988,0,3.605,1.616,3.605,3.604v18.126C25.834,24.218,24.217,25.834,22.229,25.834
		 M4.104,1.435c-1.472,0-2.669,1.198-2.669,2.669v18.126c0,1.473,1.197,2.669,2.669,2.669h18.125c1.472,0,2.67-1.196,2.67-2.669
		V4.104c0-1.471-1.198-2.669-2.67-2.669H4.104z"/>
	
		<rect x="7.565" y="10.409" transform="matrix(0.2084 0.9781 -0.9781 0.2084 20.7514 -3.7617)" fill="#009BDE" stroke="#FFFFFF" stroke-miterlimit="10" width="10.269" height="1.059"/>
	
		<rect x="14.395" y="7.361" transform="matrix(0.5728 0.8197 -0.8197 0.5728 16.1667 -6.9033)" fill="#009BDE" stroke="#FFFFFF" stroke-miterlimit="10" width="0.623" height="9.396"/>
	<path fill="#009BDE" stroke="#FFFFFF" stroke-miterlimit="10" d="M13.888,4.935c0,0.4-0.324,0.725-0.725,0.725
		c-0.4,0-0.724-0.324-0.724-0.725s0.324-0.725,0.724-0.725C13.564,4.21,13.888,4.534,13.888,4.935"/>
	<path fill="#009BDE" stroke="#FFFFFF" stroke-miterlimit="10" d="M4.973,12.401c0.4,0,0.725,0.324,0.725,0.725
		s-0.325,0.725-0.725,0.725c-0.4,0-0.725-0.324-0.725-0.725S4.572,12.401,4.973,12.401"/>
	<path fill="#009BDE" stroke="#FFFFFF" stroke-miterlimit="10" d="M12.439,21.317c0-0.4,0.324-0.726,0.725-0.726
		c0.4,0,0.724,0.325,0.724,0.726c0,0.399-0.324,0.725-0.724,0.725C12.763,22.042,12.439,21.717,12.439,21.317"/>
	<path fill="#009BDE" stroke="#FFFFFF" stroke-miterlimit="10" d="M21.355,13.851c-0.4,0-0.725-0.324-0.725-0.726
		c0-0.399,0.325-0.724,0.725-0.724c0.4,0,0.725,0.324,0.725,0.724C22.08,13.526,21.755,13.851,21.355,13.851"/>
	<circle fill="none" stroke="#FFFFFF" stroke-width="0.821" stroke-miterlimit="10" cx="13.167" cy="13.146" r="9.836"/>
</g>
<path fill="none" stroke="#FFFFFF" stroke-width="0.821" stroke-miterlimit="10" d="M140.439,6.62
	c-1.46-3.146-4.352-1.465-7.248-1.409c-2.896-0.056-5.789-1.736-7.249,1.409c-1.726,3.773,1.069,6.213,1.504,10.226
	c0.438,4.012,1.073,5.343,1.941,5.322c1.008-0.023,1.628-1.454,2.377-3.883c0.509-1.654,0.977-2.094,1.427-2.094
	s0.917,0.439,1.428,2.094c0.748,2.429,1.368,3.859,2.376,3.883c0.867,0.021,1.505-1.311,1.94-5.322
	C139.372,12.833,142.157,10.377,140.439,6.62z"/>
</svg>
