<?xml version="1.0" encoding="utf-8"?>
<!-- Generator: Adobe Illustrator 16.0.4, SVG Export Plug-In . SVG Version: 6.00 Build 0)  -->
<!DOCTYPE svg PUBLIC "-//W3C//DTD SVG 1.1//EN" "http://www.w3.org/Graphics/SVG/1.1/DTD/svg11.dtd">
<svg version="1.1" id="Layer_1" xmlns="http://www.w3.org/2000/svg" xmlns:xlink="http://www.w3.org/1999/xlink" x="0px" y="0px"
	 width="434.152px" height="76.689px" viewBox="0 0 434.152 76.689" enable-background="new 0 0 434.152 76.689"
	 xml:space="preserve">
<path fill="none" stroke="#FFFFFF" stroke-width="5" stroke-miterlimit="10" d="M169.03,50.232c3.269,0,5.919,2.65,5.919,5.92"/>
<path fill="none" stroke="#FFFFFF" stroke-width="5" stroke-miterlimit="10" d="M190.624,50.232c3.269,0,5.919,2.65,5.919,5.92"/>
<path fill="none" stroke="#FFFFFF" stroke-width="5" stroke-miterlimit="10" d="M212.218,50.232c3.269,0,5.919,2.65,5.919,5.92"/>
<line fill="none" stroke="#FFFFFF" stroke-width="5" stroke-miterlimit="10" x1="144.681" y1="0" x2="144.681" y2="56.131"/>
<line fill="none" stroke="#FFFFFF" stroke-width="5" stroke-linecap="round" stroke-linejoin="round" stroke-miterlimit="10" x1="290.586" y1="50.41" x2="295.866" y2="50.41"/>
<path fill="#FFFFFF" d="M414.62,9.322c0,3.903,3.205,7.075,7.145,7.075"/>
<path fill="#FFFFFF" d="M396.854,25.263v4.066"/>
<path fill="#FFFFFF" d="M408.521,48.949v19.493c0,0.489,0.398,0.881,0.888,0.881c0.484,0,0.884-0.392,0.884-0.881V49.825h22.089
	v18.617c0,0.489,0.398,0.881,0.887,0.881c0.489,0,0.884-0.392,0.884-0.881V22.948c0-0.484-0.395-0.88-0.884-0.88
	c-0.488,0-0.887,0.396-0.887,0.88v25.121h-22.973C408.919,48.069,408.521,48.464,408.521,48.949"/>
<path fill="#FFFFFF" d="M368.25,68.442V34.551h21.412"/>
<path fill="#FFFFFF" d="M369.387,16.054l3.712,14.322c0.004,0.011,0.008,0.022,0.011,0.033c0.011,0.043,0.025,0.083,0.044,0.119
	c0.021,0.043,0.043,0.083,0.068,0.12v0.003c0.029,0.037,0.055,0.068,0.083,0.102c0.008,0.007,0.019,0.019,0.025,0.025
	c0.029,0.029,0.058,0.054,0.087,0.076c0.076,0.058,0.159,0.102,0.246,0.131c0.055,0.018,0.109,0.032,0.166,0.039
	c0.041,0.007,0.084,0.011,0.128,0.011h14.926c0.489,0,0.884-0.391,0.884-0.876c0-0.489-0.395-0.88-0.884-0.88h-14.238l-3.546-13.663
	c-0.122-0.471-0.604-0.749-1.074-0.63C369.55,15.105,369.264,15.583,369.387,16.054"/>
<path fill="none" stroke="#FFFFFF" stroke-width="0.5" stroke-miterlimit="10" d="M245.815,25.844
	c2.566,3.264,6.081,7.735,7.076,9.075c0.392,0.525,0.405,1.09,0.406,1.152"/>
<path fill="none" stroke="#FFFFFF" stroke-width="0.5" stroke-miterlimit="10" d="M257.151,17.126c-2.693,0-4.886,2.275-4.886,5.074
	c0,2.797,2.192,5.072,4.886,5.072"/>
<polygon fill="#FFFFFF" points="97.044,43.505 108.646,43.505 108.646,47.685 120.178,39.608 108.646,31.534 108.646,35.714 
	97.044,35.714 "/>
<polygon fill="#FFFFFF" points="321.736,46.812 333.337,46.812 333.337,50.992 344.87,42.916 333.337,34.842 333.337,39.021 
	321.736,39.021 "/>
<text transform="matrix(1 0 0 1 86.9966 69.9561)"><tspan x="0" y="0" fill="#FFFFFF" font-family="'Helvetica-Bold'" font-size="14">10</tspan><tspan x="15.572" y="0" fill="#FFFFFF" font-family="'Helvetica-Bold'" font-size="14"> </tspan><tspan x="18.958" y="0" fill="#FFFFFF" font-family="'Helvetica-Bold'" font-size="14">AM</tspan></text>
<text transform="matrix(1 0 0 1 311.1929 69.9561)"><tspan x="0" y="0" fill="#FFFFFF" font-family="'Helvetica-Bold'" font-size="14">1</tspan><tspan x="7.03" y="0" fill="#FFFFFF" font-family="'Helvetica-Bold'" font-size="14">1</tspan><tspan x="14.816" y="0" fill="#FFFFFF" font-family="'Helvetica-Bold'" font-size="14"> </tspan><tspan x="18.202" y="0" fill="#FFFFFF" font-family="'Helvetica-Bold'" font-size="14">AM</tspan></text>
<path fill="#FFFFFF" d="M55.282,4.002c-3.94,0-7.145,3.177-7.145,7.076"/>
<path fill="#FFFFFF" d="M48.199,26.741H32.201c-0.887,0-1.539,0.154-1.829,0.277"/>
<path fill="#FFFFFF" d="M43.81,51.582h22.089v18.617"/>
<path fill="#FFFFFF" d="M33.475,34.551H0v35.648c0,0.489,0.395,0.88,0.884,0.88c0.488,0,0.884-0.391,0.884-0.88V36.308H23.18v33.892
	c0,0.489,0.394,0.88,0.883,0.88c0.49,0,0.884-0.391,0.884-0.88V36.308h8.528c0.489,0,0.887-0.395,0.887-0.881
	C34.362,34.942,33.964,34.551,33.475,34.551"/>
<path fill="#FFFFFF" d="M2.905,17.811l3.712,14.322"/>
</svg>
