<?xml version="1.0" encoding="utf-8"?>
<!-- Generator: Adobe Illustrator 16.0.4, SVG Export Plug-In . SVG Version: 6.00 Build 0)  -->
<!DOCTYPE svg PUBLIC "-//W3C//DTD SVG 1.1//EN" "http://www.w3.org/Graphics/SVG/1.1/DTD/svg11.dtd">
<svg version="1.1" id="Layer_1" xmlns="http://www.w3.org/2000/svg" xmlns:xlink="http://www.w3.org/1999/xlink" x="0px" y="0px"
	 width="289.975px" height="282.542px" viewBox="0 0 289.975 282.542" enable-background="new 0 0 289.975 282.542"
	 xml:space="preserve">
<path fill="#FFFFFF" stroke="#000000" stroke-miterlimit="10" d="M286.475,270.467V133.017V270.467z"/>
<line fill="none" stroke="#000000" stroke-width="7" stroke-miterlimit="10" x1="286.475" y1="133.017" x2="286.475" y2="270.467"/>
<path fill="#FFFFFF" stroke="#000000" stroke-miterlimit="10" d="M194.669,268.026V137.674V268.026z"/>
<line fill="none" stroke="#000000" stroke-width="7" stroke-miterlimit="10" x1="194.669" y1="137.675" x2="194.669" y2="268.025"/>
<path fill="#FFFFFF" stroke="#000000" stroke-miterlimit="10" d="M240.572,270.467V139.316V270.467z"/>
<line fill="none" stroke="#000000" stroke-width="7" stroke-miterlimit="10" x1="240.572" y1="139.315" x2="240.572" y2="270.467"/>
<path fill="#FFFFFF" stroke="#000000" stroke-miterlimit="10" d="M171.639,223.399h114.678H171.639z"/>
<line fill="none" stroke="#000000" stroke-width="5" stroke-miterlimit="10" x1="171.638" y1="223.4" x2="286.316" y2="223.4"/>
<path fill="#FFFFFF" stroke="#000000" stroke-miterlimit="10" d="M56.959,180.838h229.515H56.959z"/>
<line fill="none" stroke="#000000" stroke-width="5" stroke-miterlimit="10" x1="56.96" y1="180.838" x2="286.475" y2="180.838"/>
<path fill="#FFFFFF" stroke="#000000" stroke-miterlimit="10" d="M148.766,212.983V136.5V212.983z"/>
<line fill="none" stroke="#000000" stroke-width="7" stroke-miterlimit="10" x1="148.766" y1="136.5" x2="148.766" y2="212.983"/>
<path fill="#FFFFFF" stroke="#000000" stroke-miterlimit="10" d="M102.862,212.983V136.5V212.983z"/>
<line fill="none" stroke="#000000" stroke-width="7" stroke-miterlimit="10" x1="102.863" y1="136.5" x2="102.863" y2="212.983"/>
<path fill="#FFFFFF" stroke="#000000" stroke-miterlimit="10" d="M56.959,136.5h229.515H56.959z"/>
<line fill="none" stroke="#000000" stroke-width="7" stroke-miterlimit="10" x1="56.96" y1="136.5" x2="286.475" y2="136.5"/>
<path fill="#FFFFFF" stroke="#000000" stroke-miterlimit="10" d="M60.45,212.983v-77.622V212.983z"/>
<line fill="none" stroke="#000000" stroke-width="7" stroke-miterlimit="10" x1="60.45" y1="135.361" x2="60.45" y2="212.983"/>
<rect x="172.138" y="223.303" fill="#FFFFFF" stroke="#000000" stroke-miterlimit="10" width="112.078" height="47.164"/>
<g>
	<rect x="182.931" y="227.333" fill="#FFFFFF" stroke="#000000" stroke-miterlimit="10" width="88.893" height="23.589"/>
	<g>
		<rect x="182.931" y="227.333" fill="none" stroke="#000000" stroke-miterlimit="10" width="88.893" height="23.589"/>
		
			<text transform="matrix(1 0 0 1 211.9014 246.1333)" fill="#17335C" stroke="#000000" stroke-miterlimit="10" font-family="'Helvetica-Bold'" font-size="16"> Inc.</text>
	</g>
</g>
<path fill="#17335C" stroke="#000000" stroke-miterlimit="10" d="M173.813,272.231h-3.872c-1.329,0-2.407-1.078-2.407-2.408V267.2
	c0-1.329,1.078-2.406,2.407-2.406h3.872c1.329,0,2.406,1.077,2.406,2.406v2.623C176.22,271.153,175.143,272.231,173.813,272.231"/>
<path fill="none" stroke="#000000" stroke-width="0" stroke-miterlimit="10" d="M173.813,272.231h-3.872
	c-1.329,0-2.407-1.078-2.407-2.408V267.2c0-1.329,1.078-2.406,2.407-2.406h3.872c1.329,0,2.406,1.077,2.406,2.406v2.623
	C176.22,271.153,175.143,272.231,173.813,272.231z"/>
<circle fill="none" stroke="#000000" stroke-width="5" stroke-miterlimit="10" cx="44.92" cy="274.092" r="5.949"/>
<circle fill="none" stroke="#000000" stroke-width="5" stroke-miterlimit="10" cx="66.625" cy="274.092" r="5.949"/>
<circle fill="none" stroke="#000000" stroke-width="5" stroke-miterlimit="10" cx="88.329" cy="274.092" r="5.949"/>
<polygon fill="#F7FBFF" stroke="#000000" stroke-miterlimit="10" points="65.227,229.836 65.227,240.516 65.227,241.163 
	64.134,241.163 63.419,240.297 56.432,231.831 56.415,231.831 56.415,241.163 55.253,241.163 55.253,230.814 55.253,229.836 
	56.346,229.836 56.84,230.435 64.048,239.168 64.065,239.168 64.065,229.836 "/>
<polygon stroke="#000000" stroke-width="0" stroke-miterlimit="10" points="65.227,229.836 65.227,240.516 65.227,241.163 
	64.134,241.163 63.419,240.297 56.432,231.831 56.415,231.831 56.415,241.163 55.253,241.163 55.253,230.814 55.253,229.836 
	56.346,229.836 56.84,230.435 64.048,239.168 64.065,239.168 64.065,229.836 "/>
<polygon fill="#F7FBFF" stroke="#000000" stroke-miterlimit="10" points="72.789,236.688 68.591,236.688 68.591,240.138 
	75.842,240.138 75.842,241.163 67.447,241.163 67.447,231.709 75.513,231.709 75.513,232.733 68.591,232.733 68.591,235.664 
	72.789,235.664 "/>
<polygon stroke="#000000" stroke-width="0" stroke-miterlimit="10" points="72.789,236.688 68.591,236.688 68.591,240.138 
	75.842,240.138 75.842,241.163 67.447,241.163 67.447,231.709 75.513,231.709 75.513,232.733 68.591,232.733 68.591,235.664 
	72.789,235.664 "/>
<polygon fill="#F7FBFF" stroke="#000000" stroke-miterlimit="10" points="77.697,231.709 80.298,239.618 80.386,239.618 
	83.039,231.709 83.958,231.709 86.629,239.618 86.699,239.618 89.318,231.709 90.533,231.709 87.288,241.163 86.075,241.163 
	83.524,233.686 83.438,233.686 80.888,241.163 79.674,241.163 76.413,231.709 "/>
<polygon stroke="#000000" stroke-width="0" stroke-miterlimit="10" points="77.697,231.709 80.298,239.618 80.386,239.618 
	83.039,231.709 83.958,231.709 86.629,239.618 86.699,239.618 89.318,231.709 90.533,231.709 87.288,241.163 86.075,241.163 
	83.524,233.686 83.438,233.686 80.888,241.163 79.674,241.163 76.413,231.709 "/>
<path fill="#F7FBFF" stroke="#000000" stroke-miterlimit="10" d="M96.914,236.547h4.996l-2.447-5.358h-0.103L96.914,236.547z
	 M93.618,241.163l5.256-11.326h1.145l5.255,11.326h-1.265l-1.682-3.679H96.48l-1.665,3.679H93.618z"/>
<path stroke="#000000" stroke-width="0" stroke-miterlimit="10" d="M96.914,236.547h4.996l-2.447-5.358h-0.103L96.914,236.547z
	 M93.618,241.163l5.256-11.326h1.145l5.255,11.326h-1.265l-1.682-3.679H96.48l-1.665,3.679H93.618z"/>
<polygon fill="#F7FBFF" stroke="#000000" stroke-miterlimit="10" points="114.275,231.709 109.591,241.163 108.481,241.163 
	103.78,231.709 105.1,231.709 109.02,239.809 109.125,239.809 113.044,231.709 "/>
<polygon stroke="#000000" stroke-width="0" stroke-miterlimit="10" points="114.275,231.709 109.591,241.163 108.481,241.163 
	103.78,231.709 105.1,231.709 109.02,239.809 109.125,239.809 113.044,231.709 "/>
<polygon fill="#F7FBFF" stroke="#000000" stroke-miterlimit="10" points="120.848,236.688 116.65,236.688 116.65,240.138 
	123.901,240.138 123.901,241.163 115.506,241.163 115.506,231.709 123.572,231.709 123.572,232.733 116.65,232.733 116.65,235.664 
	120.848,235.664 "/>
<polygon stroke="#000000" stroke-width="0" stroke-miterlimit="10" points="120.848,236.688 116.65,236.688 116.65,240.138 
	123.901,240.138 123.901,241.163 115.506,241.163 115.506,231.709 123.572,231.709 123.572,232.733 116.65,232.733 116.65,235.664 
	120.848,235.664 "/>
<polygon fill="#F7FBFF" stroke="#000000" stroke-miterlimit="10" points="134.62,231.709 134.62,241.163 133.544,241.163 
	126.866,233.547 126.849,233.547 126.849,241.163 125.704,241.163 125.704,231.709 126.763,231.709 133.441,239.34 133.458,239.34 
	133.458,231.709 "/>
<polygon stroke="#000000" stroke-width="0" stroke-miterlimit="10" points="134.62,231.709 134.62,241.163 133.544,241.163 
	126.866,233.547 126.849,233.547 126.849,241.163 125.704,241.163 125.704,231.709 126.763,231.709 133.441,239.34 133.458,239.34 
	133.458,231.709 "/>
<path fill="#F7FBFF" stroke="#000000" stroke-miterlimit="10" d="M145.46,231.709v6.191c0,2.238-1.892,3.539-4.406,3.539
	c-2.515,0-4.406-1.301-4.406-3.539v-6.191h1.145v6.191c0,1.596,1.423,2.516,3.261,2.516c1.856,0,3.261-0.92,3.261-2.516v-6.191
	H145.46z"/>
<path stroke="#000000" stroke-width="0" stroke-miterlimit="10" d="M145.46,231.709v6.191c0,2.238-1.892,3.539-4.406,3.539
	c-2.515,0-4.406-1.301-4.406-3.539v-6.191h1.145v6.191c0,1.596,1.423,2.516,3.261,2.516c1.856,0,3.261-0.92,3.261-2.516v-6.191
	H145.46z"/>
<polygon fill="#F7FBFF" stroke="#000000" stroke-miterlimit="10" points="152.918,236.688 148.72,236.688 148.72,240.138 
	155.932,240.138 155.932,241.163 147.575,241.163 147.575,231.709 155.642,231.709 155.642,232.733 148.72,232.733 148.72,235.664 
	152.918,235.664 "/>
<polygon stroke="#000000" stroke-width="0" stroke-miterlimit="10" points="152.918,236.688 148.72,236.688 148.72,240.138 
	155.932,240.138 155.932,241.163 147.575,241.163 147.575,231.709 155.642,231.709 155.642,232.733 148.72,232.733 148.72,235.664 
	152.918,235.664 "/>
<path fill="#F7FBFF" stroke="#000000" stroke-miterlimit="10" d="M57.584,249.239c0.994,0,1.507-0.268,1.979-0.688
	c0.418-0.409,0.665-0.982,0.665-1.598c0-0.616-0.236-1.168-0.635-1.579c-0.482-0.429-0.995-0.718-2.009-0.718h-1.803v4.582H57.584z
	 M55.257,249.7v-5.494h2.347c1.179,0,1.835,0.328,2.399,0.861c0.491,0.482,0.769,1.148,0.769,1.887c0,0.736-0.278,1.412-0.791,1.916
	c-0.563,0.513-1.218,0.83-2.377,0.83H55.257z"/>
<path fill="none" stroke="#000000" stroke-width="0" stroke-miterlimit="10" d="M57.584,249.239c0.994,0,1.507-0.268,1.979-0.688
	c0.418-0.409,0.665-0.982,0.665-1.598c0-0.616-0.236-1.168-0.635-1.579c-0.482-0.429-0.995-0.718-2.009-0.718h-1.803v4.582H57.584z
	 M55.257,249.7v-5.494h2.347c1.179,0,1.835,0.328,2.399,0.861c0.491,0.482,0.769,1.148,0.769,1.887c0,0.736-0.278,1.412-0.791,1.916
	c-0.563,0.513-1.218,0.83-2.377,0.83H55.257z"/>
<polygon fill="#F7FBFF" stroke="#000000" stroke-miterlimit="10" points="71.553,247.014 69.043,247.014 69.043,249.237 
	73.367,249.237 73.367,249.7 68.519,249.7 68.519,244.207 73.173,244.207 73.173,244.657 69.043,244.657 69.043,246.553 
	71.553,246.553 "/>
<polygon fill="none" stroke="#000000" stroke-width="0" stroke-miterlimit="10" points="71.553,247.014 69.043,247.014 
	69.043,249.237 73.367,249.237 73.367,249.7 68.519,249.7 68.519,244.207 73.173,244.207 73.173,244.657 69.043,244.657 
	69.043,246.553 71.553,246.553 "/>
<polygon fill="#F7FBFF" stroke="#000000" stroke-miterlimit="10" points="86.004,244.207 86.004,249.7 85.512,249.7 81.402,245.006 
	81.393,245.006 81.393,249.7 80.869,249.7 80.869,244.207 81.372,244.207 85.482,248.891 85.491,248.891 85.491,244.207 "/>
<polygon fill="none" stroke="#000000" stroke-width="0" stroke-miterlimit="10" points="86.004,244.207 86.004,249.7 85.512,249.7 
	81.402,245.006 81.393,245.006 81.393,249.7 80.869,249.7 80.869,244.207 81.372,244.207 85.482,248.891 85.491,248.891 
	85.491,244.207 "/>
<polygon fill="#F7FBFF" stroke="#000000" stroke-miterlimit="10" points="93.342,244.207 98.374,244.207 98.374,244.657 
	96.119,244.657 96.119,249.7 95.606,249.7 95.606,244.657 93.342,244.657 "/>
<polygon fill="none" stroke="#000000" stroke-width="0" stroke-miterlimit="10" points="93.342,244.207 98.374,244.207 
	98.374,244.657 96.119,244.657 96.119,249.7 95.606,249.7 95.606,244.657 93.342,244.657 "/>
<rect x="105.713" y="244.207" fill="#F7FBFF" stroke="#000000" stroke-miterlimit="10" width="0.522" height="5.493"/>
<rect x="105.713" y="244.207" fill="none" stroke="#000000" stroke-width="0" stroke-miterlimit="10" width="0.522" height="5.493"/>
<path fill="#F7FBFF" stroke="#000000" stroke-miterlimit="10" d="M118.697,245.231c-0.359-0.307-1.148-0.718-2.234-0.718
	c-0.82,0-1.763,0.298-1.763,1.107c0,0.8,1.087,0.84,2.101,0.901c1.004,0.051,2.655,0.145,2.655,1.547
	c0,1.231-1.24,1.773-2.655,1.773c-1.445,0-2.336-0.583-2.941-1.127l0.318-0.357c0.522,0.451,1.331,1.035,2.633,1.035
	c1.138,0,2.121-0.41,2.121-1.261c0-0.954-1.157-1.065-2.131-1.118c-1.229-0.072-2.623-0.143-2.623-1.363
	c0-1.199,1.291-1.588,2.296-1.588c1.177,0,2.11,0.473,2.551,0.82L118.697,245.231z"/>
<path fill="none" stroke="#000000" stroke-width="0" stroke-miterlimit="10" d="M118.697,245.231
	c-0.359-0.307-1.148-0.718-2.234-0.718c-0.82,0-1.763,0.298-1.763,1.107c0,0.8,1.087,0.84,2.101,0.901
	c1.004,0.051,2.655,0.145,2.655,1.547c0,1.231-1.24,1.773-2.655,1.773c-1.445,0-2.336-0.583-2.941-1.127l0.318-0.357
	c0.522,0.451,1.331,1.035,2.633,1.035c1.138,0,2.121-0.41,2.121-1.261c0-0.954-1.157-1.065-2.131-1.118
	c-1.229-0.072-2.623-0.143-2.623-1.363c0-1.199,1.291-1.588,2.296-1.588c1.177,0,2.11,0.473,2.551,0.82L118.697,245.231z"/>
<polygon fill="#F7FBFF" stroke="#000000" stroke-miterlimit="10" points="126.077,244.207 131.108,244.207 131.108,244.657 
	128.854,244.657 128.854,249.7 128.341,249.7 128.341,244.657 126.077,244.657 "/>
<polygon fill="none" stroke="#000000" stroke-width="0" stroke-miterlimit="10" points="126.077,244.207 131.108,244.207 
	131.108,244.657 128.854,244.657 128.854,249.7 128.341,249.7 128.341,244.657 126.077,244.657 "/>
<path fill="#F7FBFF" stroke="#000000" stroke-miterlimit="10" d="M138.969,244.657v2.215h2.91c0.791,0,1.292-0.502,1.292-1.107
	c0-0.256-0.103-0.502-0.287-0.696c-0.297-0.276-0.594-0.411-1.239-0.411H138.969z M138.447,249.7v-5.492h3.197
	c0.83,0,1.27,0.203,1.629,0.551c0.257,0.268,0.421,0.617,0.421,1.006c0,0.779-0.554,1.383-1.456,1.496l1.487,2.439h-0.595
	l-1.426-2.367h-2.736v2.367H138.447z"/>
<path fill="none" stroke="#000000" stroke-width="0" stroke-miterlimit="10" d="M138.969,244.657v2.215h2.91
	c0.791,0,1.292-0.502,1.292-1.107c0-0.256-0.103-0.502-0.287-0.696c-0.297-0.276-0.594-0.411-1.239-0.411H138.969z M138.447,249.7
	v-5.492h3.197c0.83,0,1.27,0.203,1.629,0.551c0.257,0.268,0.421,0.617,0.421,1.006c0,0.779-0.554,1.383-1.456,1.496l1.487,2.439
	h-0.595l-1.426-2.367h-2.736v2.367H138.447z"/>
<polygon fill="#F7FBFF" stroke="#000000" stroke-miterlimit="10" points="155.941,244.207 153.544,247.086 153.544,249.7 
	153.02,249.7 153.02,247.086 150.622,244.207 151.268,244.207 153.297,246.615 155.336,244.207 "/>
<polygon fill="none" stroke="#000000" stroke-width="0" stroke-miterlimit="10" points="155.941,244.207 153.544,247.086 
	153.544,249.7 153.02,249.7 153.02,247.086 150.622,244.207 151.268,244.207 153.297,246.615 155.336,244.207 "/>
<path fill="#7AA6D0" stroke="#000000" stroke-miterlimit="10" d="M45.979,236.356c0-2.469-2.001-4.47-4.469-4.47
	c-2.466,0-4.467,2.001-4.467,4.47c0,0.24,0.019,0.478,0.055,0.709c0.03,0.186,0.072,0.369,0.124,0.549h-0.002
	c0.848,3.123,3.155,8.228,3.922,9.767h0.001c0.068,0.134,0.206,0.229,0.367,0.229c0.163,0,0.303-0.094,0.37-0.229
	c0.767-1.539,3.072-6.644,3.92-9.767H45.8C45.916,237.213,45.979,236.792,45.979,236.356"/>
<path fill="none" stroke="#000000" stroke-width="0" stroke-miterlimit="10" d="M45.979,236.356c0-2.469-2.001-4.47-4.469-4.47
	c-2.466,0-4.467,2.001-4.467,4.47c0,0.24,0.019,0.478,0.055,0.709c0.03,0.186,0.072,0.369,0.124,0.549h-0.002
	c0.848,3.123,3.155,8.228,3.922,9.767h0.001c0.068,0.134,0.206,0.229,0.367,0.229c0.163,0,0.303-0.094,0.37-0.229
	c0.767-1.539,3.072-6.644,3.92-9.767H45.8C45.916,237.213,45.979,236.792,45.979,236.356"/>
<path fill="#7AA6D0" stroke="#000000" stroke-miterlimit="10" d="M34.451,230.558c-1.156,0-2.095,0.938-2.095,2.095v14.223
	c0,1.154,0.939,2.096,2.095,2.096h14.223c1.154,0,2.095-0.941,2.095-2.096v-14.223c0-1.156-0.941-2.095-2.095-2.095H34.451z
	 M48.674,249.706H34.451c-1.56,0-2.829-1.27-2.829-2.83v-14.223c0-1.561,1.269-2.829,2.829-2.829h14.223
	c1.56,0,2.829,1.269,2.829,2.829v14.223C51.503,248.436,50.234,249.706,48.674,249.706"/>
<path fill="none" stroke="#000000" stroke-width="0" stroke-miterlimit="10" d="M34.451,230.558c-1.156,0-2.095,0.938-2.095,2.095
	v14.223c0,1.154,0.939,2.096,2.095,2.096h14.223c1.154,0,2.095-0.941,2.095-2.096v-14.223c0-1.156-0.941-2.095-2.095-2.095H34.451z
	 M48.674,249.706H34.451c-1.56,0-2.829-1.27-2.829-2.83v-14.223c0-1.561,1.269-2.829,2.829-2.829h14.223
	c1.56,0,2.829,1.269,2.829,2.829v14.223C51.503,248.436,50.234,249.706,48.674,249.706"/>
<path fill="#FFFFFF" stroke="#000000" stroke-miterlimit="10" d="M44.045,234.929c-0.51-1.099-1.521-0.511-2.532-0.491
	c-1.012-0.02-2.023-0.607-2.533,0.491c-0.498,1.496,0.374,2.17,0.526,3.572c0.153,1.401,0.374,1.866,0.679,1.86
	c0.351-0.008,0.567-0.508,0.829-1.357c0.179-0.578,0.342-0.732,0.499-0.732c0.158,0,0.321,0.154,0.498,0.732
	c0.262,0.848,0.479,1.35,0.831,1.357c0.303,0.006,0.526-0.459,0.678-1.86C43.672,237.099,44.544,236.425,44.045,234.929"/>
<path fill="none" stroke="#000000" stroke-width="0" stroke-miterlimit="10" d="M44.045,234.929
	c-0.51-1.099-1.521-0.511-2.532-0.491c-1.012-0.02-2.023-0.607-2.533,0.491c-0.498,1.496,0.374,2.17,0.526,3.572
	c0.153,1.401,0.374,1.866,0.679,1.86c0.351-0.008,0.567-0.508,0.829-1.357c0.179-0.578,0.342-0.732,0.499-0.732
	c0.158,0,0.321,0.154,0.498,0.732c0.262,0.848,0.479,1.35,0.831,1.357c0.303,0.006,0.526-0.459,0.678-1.86
	C43.672,237.099,44.544,236.425,44.045,234.929"/>
<path fill="none" stroke="#000000" stroke-width="3" stroke-miterlimit="10" d="M171.638,274.07"/>
<path fill="none" stroke="#000000" stroke-width="3" stroke-miterlimit="10" d="M15.407,274.092"/>
<path fill="none" stroke="#000000" stroke-width="3" stroke-miterlimit="10" d="M0,274.092"/>
<path fill="none" stroke="#000000" stroke-width="5" stroke-miterlimit="10" d="M20.446,217.652v56.418h11.696
	c0.011-7.037,5.739-12.757,12.777-12.757c4.582,0,8.598,2.432,10.852,6.064c2.257-3.633,6.272-6.064,10.854-6.064
	s8.596,2.432,10.852,6.064c2.257-3.633,6.271-6.064,10.852-6.064c7.039,0,12.767,5.72,12.778,12.757h65.9v-56.418H20.446z"/>
<line fill="none" stroke="#000000" stroke-width="5" stroke-linecap="round" stroke-linejoin="round" stroke-miterlimit="10" x1="167.099" y1="268.321" x2="172.405" y2="268.321"/>
<path fill="#FFFFFF" stroke="#000000" stroke-miterlimit="10" d="M286.475,137.467V0.017V137.467z"/>
<line fill="none" stroke="#000000" stroke-width="7" stroke-miterlimit="10" x1="286.475" y1="0.017" x2="286.475" y2="137.467"/>
<path fill="#FFFFFF" stroke="#000000" stroke-miterlimit="10" d="M194.669,135.026V4.674V135.026z"/>
<line fill="none" stroke="#000000" stroke-width="7" stroke-miterlimit="10" x1="194.669" y1="4.675" x2="194.669" y2="135.025"/>
<path fill="#FFFFFF" stroke="#000000" stroke-miterlimit="10" d="M240.572,137.467V6.316V137.467z"/>
<line fill="none" stroke="#000000" stroke-width="7" stroke-miterlimit="10" x1="240.572" y1="6.315" x2="240.572" y2="137.467"/>
<path fill="#FFFFFF" stroke="#000000" stroke-miterlimit="10" d="M56.959,47.838h229.515H56.959z"/>
<line fill="none" stroke="#000000" stroke-width="5" stroke-miterlimit="10" x1="56.96" y1="47.838" x2="286.475" y2="47.838"/>
<path fill="#FFFFFF" stroke="#000000" stroke-miterlimit="10" d="M148.766,79.983V3.5V79.983z"/>
<line fill="none" stroke="#000000" stroke-width="7" stroke-miterlimit="10" x1="148.766" y1="3.5" x2="148.766" y2="79.983"/>
<path fill="#FFFFFF" stroke="#000000" stroke-miterlimit="10" d="M102.862,79.983V3.5V79.983z"/>
<line fill="none" stroke="#000000" stroke-width="7" stroke-miterlimit="10" x1="102.863" y1="3.5" x2="102.863" y2="79.983"/>
<path fill="#FFFFFF" stroke="#000000" stroke-miterlimit="10" d="M56.959,3.5h229.515H56.959z"/>
<line fill="none" stroke="#000000" stroke-width="7" stroke-miterlimit="10" x1="56.96" y1="3.5" x2="286.475" y2="3.5"/>
<path fill="#FFFFFF" stroke="#000000" stroke-miterlimit="10" d="M60.45,79.983V2.361V79.983z"/>
<line fill="none" stroke="#000000" stroke-width="7" stroke-miterlimit="10" x1="60.45" y1="2.361" x2="60.45" y2="79.983"/>
<line fill="none" stroke="#000000" stroke-width="5" stroke-miterlimit="10" x1="57.96" y1="90.338" x2="287.475" y2="90.338"/>
<line fill="none" stroke="#000000" stroke-width="7" stroke-miterlimit="10" x1="60.475" y1="31.517" x2="60.475" y2="168.967"/>
<line fill="none" stroke="#000000" stroke-width="7" stroke-miterlimit="10" x1="102.975" y1="44.517" x2="102.975" y2="181.967"/>
<line fill="none" stroke="#000000" stroke-width="7" stroke-miterlimit="10" x1="148.725" y1="34.017" x2="148.725" y2="171.467"/>
</svg>
