<?xml version="1.0" encoding="utf-8"?>
<!-- Generator: Adobe Illustrator 16.0.4, SVG Export Plug-In . SVG Version: 6.00 Build 0)  -->
<!DOCTYPE svg PUBLIC "-//W3C//DTD SVG 1.1//EN" "http://www.w3.org/Graphics/SVG/1.1/DTD/svg11.dtd">
<svg version="1.1" id="Layer_1" xmlns="http://www.w3.org/2000/svg" xmlns:xlink="http://www.w3.org/1999/xlink" x="0px" y="0px"
	 width="74.004px" height="56.744px" viewBox="0 0 74.004 56.744" enable-background="new 0 0 74.004 56.744" xml:space="preserve">
<rect x="42.094" y="10.375" fill="#FFFFFF" width="10.182" height="8.999"/>
<rect x="0.5" y="0.5" fill="none" stroke="#FFFFFF" stroke-miterlimit="10" width="73.004" height="55.744"/>
<line fill="none" stroke="#FFFFFF" stroke-miterlimit="10" x1="11.538" y1="56.244" x2="11.538" y2="0.5"/>
<line fill="none" stroke="#FFFFFF" stroke-miterlimit="10" x1="21.725" y1="56.244" x2="21.725" y2="0.5"/>
<line fill="none" stroke="#FFFFFF" stroke-miterlimit="10" x1="31.912" y1="56.244" x2="31.912" y2="0.5"/>
<line fill="none" stroke="#FFFFFF" stroke-miterlimit="10" x1="42.098" y1="56.244" x2="42.098" y2="0.5"/>
<line fill="none" stroke="#FFFFFF" stroke-miterlimit="10" x1="62.472" y1="56.244" x2="62.472" y2="0.5"/>
<line fill="none" stroke="#FFFFFF" stroke-miterlimit="10" x1="52.286" y1="56.244" x2="52.286" y2="0.5"/>
<line fill="none" stroke="#FFFFFF" stroke-miterlimit="10" x1="73.594" y1="46.414" x2="0.526" y2="46.414"/>
<line fill="none" stroke="#FFFFFF" stroke-miterlimit="10" x1="73.594" y1="37.403" x2="0.526" y2="37.403"/>
<line fill="none" stroke="#FFFFFF" stroke-miterlimit="10" x1="73.594" y1="28.393" x2="0.526" y2="28.393"/>
<line fill="none" stroke="#FFFFFF" stroke-miterlimit="10" x1="73.594" y1="19.382" x2="0.526" y2="19.382"/>
<line fill="none" stroke="#FFFFFF" stroke-miterlimit="10" x1="73.594" y1="10.372" x2="0.526" y2="10.372"/>
<g>
	<defs>
		<rect id="SVGID_1_" x="-268.322" y="-338.235" width="612" height="792"/>
	</defs>
	<clipPath id="SVGID_2_">
		<use xlink:href="#SVGID_1_"  overflow="visible"/>
	</clipPath>
	<path clip-path="url(#SVGID_2_)" fill="#FFFFFF" d="M5.458,6.724c0,0.17,0.028,0.315,0.087,0.436s0.139,0.219,0.243,0.296
		C5.892,7.533,6.01,7.589,6.145,7.624c0.136,0.036,0.282,0.053,0.44,0.053c0.17,0,0.315-0.02,0.436-0.059
		c0.121-0.04,0.218-0.09,0.292-0.153C7.389,7.403,7.441,7.331,7.476,7.25c0.033-0.081,0.049-0.163,0.049-0.246
		c0-0.17-0.038-0.296-0.115-0.377C7.333,6.547,7.249,6.49,7.158,6.456C7,6.398,6.815,6.343,6.605,6.291
		C6.396,6.239,6.139,6.172,5.831,6.089c-0.19-0.05-0.35-0.115-0.477-0.197C5.229,5.811,5.127,5.721,5.052,5.621
		C4.979,5.522,4.924,5.416,4.895,5.304C4.862,5.192,4.848,5.078,4.848,4.961c0-0.224,0.047-0.418,0.139-0.582
		c0.094-0.164,0.217-0.3,0.371-0.408c0.154-0.108,0.329-0.188,0.523-0.24C6.076,3.68,6.272,3.653,6.473,3.653
		c0.232,0,0.452,0.03,0.657,0.091c0.206,0.06,0.387,0.15,0.542,0.271c0.156,0.12,0.279,0.269,0.371,0.445
		C8.133,4.637,8.18,4.841,8.18,5.074H7.4c-0.021-0.287-0.119-0.49-0.293-0.608C6.934,4.348,6.711,4.289,6.44,4.289
		c-0.09,0-0.184,0.009-0.28,0.028C6.065,4.335,5.979,4.367,5.899,4.41C5.82,4.454,5.755,4.513,5.704,4.588
		C5.65,4.662,5.625,4.756,5.625,4.868c0,0.158,0.049,0.281,0.146,0.371C5.87,5.328,5.997,5.395,6.154,5.441
		c0.017,0.004,0.082,0.022,0.197,0.053c0.114,0.031,0.242,0.065,0.382,0.103c0.142,0.037,0.28,0.073,0.414,0.109
		c0.135,0.035,0.232,0.061,0.29,0.078c0.146,0.045,0.272,0.107,0.38,0.187C7.925,6.049,8.017,6.14,8.088,6.242
		c0.073,0.101,0.127,0.21,0.162,0.326c0.035,0.116,0.053,0.233,0.053,0.349c0,0.249-0.051,0.462-0.153,0.639
		C8.049,7.732,7.916,7.876,7.75,7.989C7.583,8.1,7.395,8.182,7.183,8.234C6.972,8.286,6.754,8.312,6.535,8.312
		c-0.253,0-0.492-0.031-0.716-0.093c-0.224-0.062-0.42-0.158-0.586-0.287C5.066,7.804,4.935,7.639,4.834,7.437
		c-0.1-0.201-0.151-0.439-0.156-0.713H5.458z"/>
	<polygon clip-path="url(#SVGID_2_)" fill="#FFFFFF" points="14.219,3.759 15.315,3.759 16.542,7.241 16.555,7.241 17.75,3.759 
		18.834,3.759 18.834,8.206 18.093,8.206 18.093,4.775 18.08,4.775 16.847,8.206 16.206,8.206 14.973,4.775 14.96,4.775 
		14.96,8.206 14.219,8.206 	"/>
	<polygon clip-path="url(#SVGID_2_)" fill="#FFFFFF" points="24.959,3.759 28.56,3.759 28.56,4.432 27.146,4.432 27.146,8.206 
		26.366,8.206 26.366,4.432 24.959,4.432 	"/>
	<polygon clip-path="url(#SVGID_2_)" fill="#FFFFFF" points="33.959,3.759 34.75,3.759 35.554,7.16 35.566,7.16 36.463,3.759 
		37.261,3.759 38.132,7.16 38.145,7.16 38.974,3.759 39.765,3.759 38.538,8.206 37.747,8.206 36.855,4.805 36.843,4.805 
		35.935,8.206 35.13,8.206 	"/>
	<polygon clip-path="url(#SVGID_2_)" fill="#FFFFFF" points="45.355,3.759 48.955,3.759 48.955,4.432 47.542,4.432 47.542,8.206 
		46.762,8.206 46.762,4.432 45.355,4.432 	"/>
	<polygon clip-path="url(#SVGID_2_)" fill="#FFFFFF" points="56.006,3.759 59.077,3.759 59.077,4.432 56.785,4.432 56.785,5.596 
		58.796,5.596 58.796,6.232 56.785,6.232 56.785,8.206 56.006,8.206 	"/>
	<path clip-path="url(#SVGID_2_)" fill="#FFFFFF" d="M66.447,6.724c0,0.17,0.028,0.315,0.087,0.436
		c0.06,0.121,0.139,0.219,0.243,0.296C66.88,7.533,67,7.589,67.133,7.624c0.137,0.036,0.282,0.053,0.44,0.053
		c0.17,0,0.315-0.02,0.437-0.059c0.12-0.04,0.218-0.09,0.292-0.153c0.075-0.062,0.129-0.134,0.162-0.215s0.05-0.163,0.05-0.246
		c0-0.17-0.038-0.296-0.115-0.377c-0.077-0.08-0.161-0.137-0.252-0.171c-0.158-0.058-0.342-0.113-0.552-0.165
		c-0.209-0.052-0.468-0.119-0.775-0.202c-0.19-0.05-0.35-0.115-0.477-0.197c-0.125-0.081-0.227-0.171-0.302-0.271
		c-0.073-0.099-0.128-0.205-0.158-0.317c-0.031-0.112-0.047-0.226-0.047-0.343c0-0.224,0.047-0.418,0.14-0.582
		c0.094-0.164,0.217-0.3,0.371-0.408c0.153-0.108,0.329-0.188,0.522-0.24c0.195-0.051,0.393-0.078,0.592-0.078
		c0.232,0,0.452,0.03,0.657,0.091c0.206,0.06,0.387,0.15,0.542,0.271c0.156,0.12,0.279,0.269,0.371,0.445
		c0.091,0.177,0.137,0.381,0.137,0.614H68.39c-0.021-0.287-0.119-0.49-0.293-0.608c-0.175-0.118-0.396-0.177-0.667-0.177
		c-0.091,0-0.185,0.009-0.28,0.028c-0.095,0.018-0.182,0.05-0.261,0.093c-0.079,0.044-0.145,0.103-0.196,0.178
		c-0.053,0.074-0.078,0.168-0.078,0.28c0,0.158,0.049,0.281,0.146,0.371c0.098,0.089,0.225,0.156,0.383,0.202
		c0.017,0.004,0.082,0.022,0.196,0.053c0.114,0.031,0.242,0.065,0.383,0.103c0.142,0.037,0.279,0.073,0.414,0.109
		c0.135,0.035,0.231,0.061,0.29,0.078c0.146,0.045,0.271,0.107,0.38,0.187c0.107,0.078,0.198,0.169,0.271,0.271
		c0.073,0.101,0.127,0.21,0.162,0.326c0.035,0.116,0.053,0.233,0.053,0.349c0,0.249-0.051,0.462-0.152,0.639
		c-0.102,0.176-0.235,0.32-0.401,0.433c-0.166,0.111-0.355,0.193-0.567,0.245c-0.211,0.052-0.428,0.078-0.647,0.078
		c-0.253,0-0.492-0.031-0.716-0.093c-0.225-0.062-0.42-0.158-0.586-0.287c-0.166-0.128-0.299-0.293-0.398-0.495
		c-0.1-0.201-0.151-0.439-0.156-0.713H66.447z"/>
	<path clip-path="url(#SVGID_2_)" fill="#FFFFFF" d="M15.926,13.661c0.126-0.013,0.234-0.044,0.326-0.093
		c0.092-0.049,0.169-0.122,0.231-0.222c0.061-0.099,0.105-0.239,0.131-0.419h0.288v3.935h-0.355v-2.923h-1.04v-0.253
		C15.661,13.682,15.801,13.674,15.926,13.661"/>
	<path clip-path="url(#SVGID_2_)" fill="#FFFFFF" d="M25.394,16.862c0.004-0.195,0.038-0.367,0.102-0.517
		c0.063-0.15,0.147-0.285,0.252-0.405s0.223-0.229,0.354-0.328c0.132-0.1,0.267-0.195,0.405-0.288
		c0.139-0.091,0.277-0.185,0.413-0.28c0.137-0.096,0.26-0.198,0.369-0.307c0.108-0.108,0.19-0.22,0.244-0.334
		c0.054-0.115,0.082-0.25,0.082-0.408c0-0.127-0.024-0.24-0.071-0.34c-0.046-0.099-0.11-0.184-0.191-0.253
		c-0.08-0.069-0.174-0.122-0.281-0.157c-0.107-0.036-0.22-0.053-0.34-0.053c-0.161,0-0.299,0.029-0.413,0.089
		c-0.114,0.06-0.207,0.141-0.279,0.242c-0.071,0.101-0.123,0.217-0.154,0.349c-0.032,0.131-0.046,0.269-0.042,0.415H25.49
		c-0.004-0.202,0.019-0.388,0.07-0.559c0.051-0.17,0.128-0.317,0.233-0.441c0.105-0.124,0.238-0.22,0.397-0.29
		c0.159-0.069,0.346-0.104,0.558-0.104c0.173,0,0.333,0.024,0.482,0.071c0.147,0.046,0.277,0.116,0.388,0.208
		c0.11,0.091,0.196,0.207,0.258,0.345c0.062,0.139,0.093,0.3,0.093,0.484c0,0.165-0.027,0.315-0.082,0.449
		c-0.055,0.136-0.127,0.259-0.219,0.371c-0.092,0.113-0.197,0.217-0.315,0.312c-0.118,0.096-0.242,0.185-0.374,0.268
		c-0.094,0.063-0.204,0.133-0.331,0.211c-0.128,0.076-0.25,0.162-0.368,0.255c-0.118,0.094-0.223,0.196-0.313,0.307
		c-0.09,0.11-0.145,0.231-0.168,0.362h2.187v0.326H25.394z"/>
	<path clip-path="url(#SVGID_2_)" fill="#FFFFFF" d="M35.889,16.036c0.043,0.127,0.107,0.236,0.191,0.326
		c0.084,0.09,0.19,0.16,0.315,0.211c0.126,0.05,0.267,0.076,0.425,0.076c0.131,0,0.256-0.019,0.377-0.057
		c0.119-0.037,0.226-0.093,0.32-0.168c0.094-0.075,0.168-0.167,0.225-0.276c0.056-0.109,0.084-0.232,0.084-0.371
		c0-0.142-0.024-0.265-0.073-0.368s-0.116-0.189-0.202-0.258c-0.086-0.07-0.186-0.121-0.301-0.155
		c-0.114-0.034-0.237-0.051-0.368-0.051h-0.298v-0.298h0.298c0.09,0,0.183-0.014,0.279-0.042c0.095-0.028,0.181-0.071,0.258-0.129
		c0.077-0.058,0.14-0.132,0.189-0.222c0.049-0.09,0.073-0.197,0.073-0.321c0-0.13-0.022-0.242-0.067-0.334
		c-0.046-0.092-0.108-0.168-0.186-0.23c-0.079-0.062-0.17-0.107-0.273-0.135c-0.103-0.029-0.214-0.042-0.334-0.042
		c-0.147,0-0.276,0.024-0.388,0.073c-0.112,0.048-0.207,0.117-0.284,0.205c-0.077,0.088-0.134,0.193-0.172,0.315
		c-0.037,0.122-0.054,0.255-0.05,0.401h-0.354c0-0.187,0.029-0.359,0.087-0.517c0.058-0.157,0.14-0.293,0.248-0.407
		c0.106-0.115,0.236-0.205,0.39-0.27c0.154-0.065,0.325-0.099,0.517-0.099c0.153,0,0.304,0.02,0.45,0.06
		c0.146,0.039,0.276,0.099,0.391,0.18c0.114,0.08,0.206,0.183,0.275,0.309c0.069,0.125,0.104,0.276,0.104,0.452
		c0,0.214-0.057,0.399-0.171,0.557c-0.114,0.157-0.279,0.262-0.493,0.314v0.012c0.259,0.041,0.458,0.149,0.599,0.323
		s0.211,0.391,0.211,0.649c0,0.195-0.037,0.367-0.109,0.515c-0.073,0.147-0.172,0.272-0.296,0.374
		c-0.123,0.101-0.268,0.176-0.433,0.227c-0.165,0.05-0.337,0.076-0.516,0.076c-0.204,0-0.39-0.03-0.56-0.09
		c-0.171-0.06-0.316-0.146-0.439-0.259c-0.122-0.112-0.213-0.251-0.275-0.415c-0.061-0.165-0.085-0.355-0.07-0.568h0.354
		C35.828,15.766,35.846,15.909,35.889,16.036"/>
	<path clip-path="url(#SVGID_2_)" fill="#FFFFFF" d="M56.453,16.109c0.051,0.113,0.119,0.209,0.205,0.29
		c0.087,0.08,0.188,0.142,0.304,0.185s0.242,0.065,0.377,0.065c0.153,0,0.29-0.029,0.41-0.087s0.223-0.137,0.309-0.236
		c0.087-0.1,0.152-0.214,0.197-0.343s0.067-0.266,0.067-0.408c0-0.146-0.025-0.281-0.075-0.404c-0.051-0.124-0.12-0.232-0.208-0.324
		c-0.089-0.092-0.194-0.164-0.318-0.216c-0.123-0.053-0.258-0.079-0.404-0.079c-0.18,0-0.347,0.04-0.5,0.121
		c-0.154,0.081-0.279,0.196-0.377,0.346h-0.304l0.383-2.041h1.967v0.326h-1.721l-0.252,1.305l0.011,0.011
		c0.098-0.116,0.222-0.206,0.371-0.27c0.15-0.064,0.304-0.096,0.461-0.096c0.201,0,0.385,0.034,0.548,0.102
		c0.163,0.067,0.302,0.161,0.416,0.28c0.113,0.12,0.203,0.264,0.265,0.431c0.062,0.166,0.093,0.349,0.093,0.547
		c0,0.192-0.035,0.369-0.107,0.532c-0.07,0.163-0.168,0.303-0.292,0.421c-0.123,0.118-0.269,0.21-0.436,0.276
		c-0.167,0.065-0.344,0.098-0.531,0.098c-0.184,0-0.354-0.027-0.509-0.082c-0.155-0.054-0.29-0.132-0.404-0.235
		s-0.205-0.23-0.272-0.38c-0.068-0.15-0.104-0.319-0.107-0.506h0.354C56.375,15.873,56.403,15.997,56.453,16.109"/>
	<path clip-path="url(#SVGID_2_)" fill="#FFFFFF" d="M68.139,13.394c-0.145-0.134-0.331-0.202-0.56-0.202s-0.414,0.058-0.557,0.174
		s-0.253,0.263-0.332,0.438c-0.079,0.177-0.131,0.367-0.157,0.571c-0.026,0.204-0.039,0.396-0.039,0.576h0.011
		c0.094-0.194,0.235-0.352,0.425-0.472c0.189-0.12,0.396-0.18,0.621-0.18c0.198,0,0.378,0.033,0.537,0.099
		c0.159,0.065,0.295,0.156,0.407,0.272c0.112,0.116,0.198,0.255,0.262,0.416c0.062,0.161,0.093,0.338,0.093,0.529
		s-0.033,0.368-0.099,0.531c-0.065,0.163-0.157,0.304-0.275,0.422c-0.118,0.117-0.259,0.21-0.422,0.275s-0.342,0.098-0.537,0.098
		c-0.239,0-0.445-0.036-0.618-0.109c-0.172-0.073-0.314-0.193-0.427-0.357c-0.112-0.165-0.196-0.379-0.25-0.644
		c-0.055-0.264-0.082-0.589-0.082-0.975c0-0.079,0.005-0.182,0.015-0.309c0.009-0.128,0.03-0.264,0.064-0.408
		c0.033-0.144,0.081-0.29,0.143-0.439c0.062-0.147,0.145-0.281,0.248-0.401c0.103-0.12,0.231-0.218,0.385-0.292
		c0.153-0.076,0.338-0.113,0.551-0.113c0.353,0,0.632,0.084,0.838,0.253c0.206,0.169,0.33,0.427,0.371,0.776H68.4
		C68.37,13.705,68.283,13.529,68.139,13.394 M67.132,14.679c-0.122,0.054-0.225,0.128-0.309,0.222
		c-0.085,0.093-0.148,0.203-0.191,0.329c-0.043,0.125-0.064,0.261-0.064,0.407c0,0.139,0.019,0.27,0.056,0.394
		c0.038,0.123,0.097,0.231,0.178,0.323c0.08,0.092,0.183,0.164,0.306,0.216c0.124,0.053,0.271,0.079,0.444,0.079
		c0.143,0,0.271-0.027,0.385-0.081c0.114-0.055,0.214-0.128,0.298-0.22c0.085-0.091,0.149-0.199,0.194-0.323
		s0.067-0.253,0.067-0.388c0-0.142-0.021-0.277-0.064-0.405c-0.043-0.127-0.105-0.238-0.186-0.331
		c-0.081-0.094-0.18-0.168-0.298-0.222c-0.118-0.055-0.252-0.082-0.402-0.082C67.392,14.597,67.254,14.624,67.132,14.679"/>
	<path clip-path="url(#SVGID_2_)" fill="#FFFFFF" d="M7.743,22.086v0.326c-0.124,0.128-0.271,0.299-0.444,0.514
		c-0.172,0.216-0.34,0.472-0.503,0.77c-0.163,0.298-0.306,0.638-0.428,1.018c-0.121,0.38-0.193,0.799-0.216,1.256H5.769
		c0.023-0.333,0.069-0.648,0.138-0.944s0.169-0.586,0.299-0.869c0.129-0.282,0.29-0.566,0.483-0.851
		c0.193-0.285,0.426-0.583,0.7-0.894H5.214v-0.326H7.743z"/>
	<path clip-path="url(#SVGID_2_)" fill="#FFFFFF" d="M17.548,23.534c-0.112,0.151-0.27,0.257-0.473,0.317v0.012
		c0.259,0.052,0.457,0.166,0.596,0.339c0.139,0.175,0.208,0.397,0.208,0.667c0,0.198-0.035,0.372-0.106,0.519
		c-0.072,0.149-0.169,0.271-0.292,0.369c-0.124,0.097-0.268,0.171-0.431,0.219c-0.163,0.049-0.338,0.073-0.525,0.073
		c-0.184,0-0.358-0.024-0.523-0.073c-0.165-0.048-0.309-0.122-0.433-0.219c-0.124-0.098-0.221-0.22-0.292-0.369
		c-0.072-0.147-0.107-0.321-0.107-0.519c0.008-0.259,0.08-0.48,0.219-0.664c0.139-0.183,0.332-0.297,0.579-0.342v-0.012
		c-0.206-0.064-0.364-0.169-0.475-0.317c-0.11-0.148-0.166-0.331-0.166-0.548c0-0.169,0.035-0.315,0.105-0.439
		c0.069-0.123,0.16-0.225,0.272-0.306c0.113-0.081,0.24-0.141,0.382-0.18c0.143-0.039,0.287-0.059,0.433-0.059
		s0.291,0.02,0.433,0.059s0.271,0.099,0.385,0.18c0.114,0.081,0.206,0.183,0.275,0.306c0.07,0.124,0.104,0.27,0.104,0.439
		C17.716,23.199,17.66,23.382,17.548,23.534 M16.916,25.703c0.122-0.035,0.228-0.089,0.318-0.163
		c0.09-0.072,0.161-0.165,0.213-0.278c0.053-0.112,0.08-0.243,0.08-0.393c0-0.143-0.028-0.267-0.082-0.374s-0.127-0.197-0.219-0.27
		c-0.092-0.073-0.199-0.127-0.321-0.163c-0.122-0.035-0.249-0.051-0.379-0.048c-0.135-0.003-0.263,0.012-0.385,0.045
		c-0.122,0.034-0.228,0.087-0.318,0.161c-0.089,0.073-0.162,0.164-0.216,0.272c-0.055,0.109-0.081,0.234-0.081,0.377
		c0,0.146,0.025,0.275,0.078,0.388c0.052,0.112,0.124,0.205,0.214,0.278c0.089,0.073,0.195,0.128,0.317,0.166
		c0.122,0.037,0.252,0.056,0.391,0.056C16.664,25.757,16.793,25.739,16.916,25.703 M16.84,23.68
		c0.101-0.028,0.189-0.072,0.267-0.132c0.077-0.06,0.138-0.137,0.185-0.231c0.047-0.093,0.07-0.204,0.07-0.331
		c0-0.113-0.021-0.212-0.064-0.298c-0.044-0.087-0.103-0.157-0.178-0.214c-0.074-0.056-0.163-0.099-0.263-0.129
		c-0.102-0.03-0.212-0.045-0.332-0.045c-0.109,0-0.214,0.015-0.315,0.045c-0.101,0.03-0.191,0.073-0.269,0.129
		c-0.08,0.057-0.142,0.127-0.189,0.214c-0.047,0.086-0.07,0.185-0.07,0.298c0,0.131,0.024,0.243,0.073,0.337
		c0.048,0.094,0.112,0.17,0.19,0.231c0.08,0.06,0.169,0.103,0.271,0.129c0.101,0.026,0.204,0.037,0.309,0.034
		C16.633,23.72,16.738,23.708,16.84,23.68"/>
	<path clip-path="url(#SVGID_2_)" fill="#FFFFFF" d="M26.094,25.555c0.145,0.135,0.33,0.203,0.56,0.203
		c0.231,0,0.418-0.058,0.558-0.175c0.141-0.116,0.25-0.262,0.329-0.438c0.08-0.176,0.131-0.366,0.158-0.571
		c0.026-0.204,0.04-0.396,0.04-0.576h-0.012c-0.094,0.195-0.235,0.353-0.425,0.472c-0.188,0.12-0.395,0.18-0.621,0.18
		c-0.194,0-0.373-0.032-0.533-0.098c-0.162-0.066-0.299-0.156-0.411-0.273c-0.113-0.116-0.199-0.255-0.261-0.416
		c-0.063-0.161-0.093-0.337-0.093-0.528s0.032-0.368,0.098-0.531c0.066-0.163,0.158-0.304,0.275-0.422
		c0.118-0.118,0.259-0.211,0.422-0.278c0.163-0.068,0.342-0.102,0.537-0.102c0.239,0,0.447,0.037,0.618,0.11
		c0.173,0.074,0.315,0.193,0.428,0.36c0.112,0.167,0.195,0.383,0.25,0.649c0.054,0.266,0.081,0.59,0.081,0.973
		c0,0.078-0.005,0.181-0.013,0.309c-0.01,0.127-0.032,0.263-0.065,0.408c-0.034,0.144-0.082,0.29-0.143,0.438
		c-0.063,0.148-0.145,0.281-0.248,0.399c-0.103,0.118-0.231,0.214-0.385,0.29c-0.154,0.074-0.337,0.112-0.551,0.112
		c-0.353,0-0.632-0.084-0.838-0.25c-0.206-0.167-0.329-0.425-0.37-0.773h0.353C25.863,25.244,25.95,25.419,26.094,25.555
		 M27.1,24.271c0.122-0.055,0.225-0.128,0.31-0.222c0.084-0.094,0.147-0.203,0.19-0.329c0.044-0.126,0.065-0.261,0.065-0.407
		c0-0.143-0.019-0.275-0.056-0.397c-0.037-0.122-0.097-0.228-0.177-0.32c-0.081-0.092-0.183-0.164-0.307-0.217
		c-0.124-0.052-0.271-0.078-0.444-0.078c-0.139,0-0.266,0.027-0.382,0.081c-0.116,0.055-0.217,0.127-0.301,0.219
		c-0.084,0.092-0.149,0.2-0.194,0.323c-0.045,0.124-0.067,0.253-0.067,0.389c0,0.142,0.021,0.277,0.065,0.404
		c0.043,0.128,0.105,0.238,0.185,0.332c0.081,0.094,0.18,0.167,0.299,0.222c0.117,0.054,0.252,0.081,0.401,0.081
		C26.84,24.352,26.978,24.325,27.1,24.271"/>
	<path clip-path="url(#SVGID_2_)" fill="#FFFFFF" d="M34.993,22.77c0.126-0.013,0.234-0.044,0.326-0.093
		c0.092-0.049,0.169-0.122,0.231-0.222c0.061-0.099,0.105-0.239,0.131-0.419h0.288v3.935h-0.355v-2.923h-1.04v-0.253
		C34.728,22.791,34.868,22.783,34.993,22.77"/>
	<path clip-path="url(#SVGID_2_)" fill="#FFFFFF" d="M38.827,22.19c0.178,0.126,0.316,0.286,0.416,0.481
		c0.099,0.195,0.166,0.412,0.202,0.652c0.035,0.24,0.054,0.474,0.054,0.703c0,0.232-0.019,0.468-0.054,0.708
		c-0.036,0.24-0.104,0.457-0.202,0.652c-0.1,0.195-0.238,0.354-0.416,0.478s-0.411,0.185-0.7,0.185
		c-0.284,0-0.517-0.061-0.697-0.185c-0.18-0.124-0.32-0.283-0.418-0.478c-0.1-0.195-0.167-0.412-0.203-0.652
		c-0.035-0.24-0.053-0.474-0.053-0.703c0-0.232,0.018-0.468,0.053-0.708c0.036-0.24,0.103-0.457,0.203-0.652
		c0.098-0.195,0.238-0.355,0.418-0.481c0.18-0.125,0.413-0.188,0.697-0.188C38.416,22.002,38.649,22.065,38.827,22.19
		 M37.587,22.474c-0.136,0.116-0.237,0.261-0.307,0.433c-0.069,0.172-0.115,0.36-0.137,0.562c-0.023,0.203-0.035,0.388-0.035,0.557
		c0,0.172,0.012,0.359,0.035,0.559c0.022,0.201,0.068,0.388,0.137,0.562c0.07,0.174,0.171,0.32,0.307,0.436
		c0.135,0.116,0.314,0.174,0.539,0.174s0.405-0.058,0.54-0.174c0.135-0.116,0.236-0.262,0.306-0.436
		c0.069-0.174,0.115-0.361,0.139-0.562c0.022-0.2,0.033-0.387,0.033-0.559c0-0.169-0.011-0.354-0.033-0.557
		c-0.023-0.202-0.069-0.39-0.139-0.562s-0.171-0.317-0.306-0.433s-0.315-0.174-0.54-0.174S37.722,22.358,37.587,22.474"/>
	<path clip-path="url(#SVGID_2_)" fill="#FFFFFF" d="M45.507,22.77c0.126-0.013,0.234-0.044,0.326-0.093
		c0.092-0.049,0.169-0.122,0.23-0.222c0.062-0.099,0.105-0.239,0.132-0.419h0.287v3.935h-0.354v-2.923h-1.04v-0.253
		C45.243,22.791,45.382,22.783,45.507,22.77"/>
	<path clip-path="url(#SVGID_2_)" fill="#FFFFFF" d="M47.592,22.77c0.126-0.013,0.234-0.044,0.326-0.093
		c0.092-0.049,0.169-0.122,0.23-0.222c0.062-0.099,0.105-0.239,0.132-0.419h0.287v3.935h-0.354v-2.923h-1.04v-0.253
		C47.328,22.791,47.467,22.783,47.592,22.77"/>
	<path clip-path="url(#SVGID_2_)" fill="#FFFFFF" d="M55.511,22.77c0.126-0.013,0.234-0.044,0.326-0.093
		c0.092-0.049,0.169-0.122,0.23-0.222c0.062-0.099,0.105-0.239,0.132-0.419h0.287v3.935h-0.354v-2.923h-1.04v-0.253
		C55.247,22.791,55.386,22.783,55.511,22.77"/>
	<path clip-path="url(#SVGID_2_)" fill="#FFFFFF" d="M57.285,25.971c0.004-0.195,0.038-0.367,0.102-0.517
		c0.063-0.15,0.147-0.285,0.252-0.405c0.105-0.12,0.224-0.229,0.354-0.328c0.132-0.1,0.267-0.195,0.405-0.288
		c0.139-0.091,0.276-0.185,0.413-0.28c0.137-0.096,0.26-0.198,0.368-0.307c0.108-0.108,0.19-0.22,0.244-0.334
		c0.055-0.115,0.082-0.25,0.082-0.408c0-0.127-0.023-0.24-0.07-0.34c-0.047-0.099-0.11-0.184-0.191-0.253
		c-0.08-0.069-0.174-0.122-0.281-0.157c-0.106-0.036-0.22-0.053-0.34-0.053c-0.161,0-0.299,0.029-0.413,0.089
		s-0.207,0.141-0.279,0.242c-0.07,0.101-0.123,0.217-0.153,0.349c-0.032,0.131-0.046,0.269-0.042,0.415H57.38
		c-0.004-0.202,0.02-0.388,0.07-0.559c0.051-0.17,0.128-0.317,0.233-0.441c0.104-0.124,0.237-0.22,0.396-0.29
		c0.159-0.069,0.346-0.104,0.558-0.104c0.174,0,0.333,0.024,0.482,0.071c0.147,0.046,0.277,0.116,0.388,0.208
		c0.11,0.091,0.196,0.207,0.259,0.345c0.062,0.139,0.093,0.3,0.093,0.484c0,0.165-0.027,0.315-0.082,0.449
		c-0.056,0.136-0.127,0.259-0.219,0.371c-0.093,0.113-0.197,0.217-0.315,0.312c-0.118,0.096-0.242,0.185-0.374,0.268
		c-0.094,0.063-0.204,0.133-0.331,0.211c-0.128,0.076-0.25,0.162-0.368,0.255c-0.118,0.094-0.223,0.196-0.312,0.307
		c-0.09,0.11-0.146,0.231-0.168,0.362h2.187v0.326H57.285z"/>
	<path clip-path="url(#SVGID_2_)" fill="#FFFFFF" d="M65.612,22.77c0.126-0.013,0.234-0.044,0.326-0.093
		c0.092-0.049,0.169-0.122,0.23-0.222c0.062-0.099,0.105-0.239,0.131-0.419h0.288v3.935h-0.354v-2.923h-1.04v-0.253
		C65.347,22.791,65.487,22.783,65.612,22.77"/>
	<path clip-path="url(#SVGID_2_)" fill="#FFFFFF" d="M67.776,25.145c0.043,0.127,0.107,0.236,0.191,0.326
		c0.084,0.09,0.189,0.16,0.314,0.211c0.126,0.05,0.268,0.076,0.425,0.076c0.132,0,0.257-0.019,0.377-0.057
		c0.119-0.037,0.227-0.093,0.32-0.168c0.094-0.075,0.168-0.167,0.226-0.276c0.055-0.109,0.084-0.232,0.084-0.371
		c0-0.142-0.025-0.265-0.074-0.368s-0.116-0.189-0.202-0.258c-0.086-0.07-0.187-0.121-0.301-0.155
		c-0.114-0.034-0.237-0.051-0.368-0.051H68.47v-0.298h0.298c0.09,0,0.183-0.014,0.279-0.042c0.095-0.028,0.181-0.071,0.258-0.129
		s0.14-0.132,0.188-0.222c0.049-0.09,0.073-0.197,0.073-0.321c0-0.13-0.022-0.242-0.067-0.334c-0.046-0.092-0.107-0.168-0.186-0.23
		c-0.079-0.062-0.17-0.107-0.273-0.135c-0.103-0.029-0.214-0.042-0.334-0.042c-0.146,0-0.275,0.024-0.388,0.073
		c-0.112,0.048-0.207,0.117-0.284,0.205s-0.134,0.193-0.172,0.315c-0.037,0.122-0.054,0.255-0.05,0.401h-0.354
		c0-0.187,0.029-0.359,0.087-0.517c0.059-0.157,0.141-0.293,0.248-0.407c0.106-0.115,0.236-0.205,0.391-0.27
		s0.325-0.099,0.517-0.099c0.153,0,0.304,0.02,0.45,0.06c0.146,0.039,0.276,0.099,0.391,0.18c0.114,0.08,0.206,0.183,0.275,0.309
		c0.069,0.125,0.104,0.276,0.104,0.452c0,0.214-0.057,0.399-0.171,0.557c-0.114,0.157-0.278,0.262-0.492,0.314v0.012
		c0.259,0.041,0.458,0.149,0.599,0.323s0.211,0.391,0.211,0.649c0,0.195-0.037,0.367-0.109,0.515
		c-0.073,0.147-0.172,0.272-0.296,0.374c-0.123,0.101-0.268,0.176-0.433,0.227c-0.165,0.05-0.337,0.076-0.516,0.076
		c-0.204,0-0.391-0.03-0.561-0.09c-0.171-0.06-0.316-0.146-0.438-0.259c-0.122-0.112-0.214-0.251-0.275-0.415
		c-0.062-0.165-0.085-0.355-0.07-0.568h0.354C67.715,24.875,67.733,25.018,67.776,25.145"/>
	<path clip-path="url(#SVGID_2_)" fill="#FFFFFF" d="M4.513,31.625c0.126-0.013,0.234-0.044,0.326-0.093
		c0.092-0.049,0.169-0.122,0.231-0.222c0.061-0.099,0.105-0.239,0.131-0.419h0.288v3.935H5.134v-2.923h-1.04V31.65
		C4.248,31.646,4.388,31.638,4.513,31.625"/>
	<path clip-path="url(#SVGID_2_)" fill="#FFFFFF" d="M8.075,30.891h0.32v2.66h0.59v0.297h-0.59v0.978H8.069v-0.978H6.254v-0.342
		L8.075,30.891z M8.069,31.409H8.057l-1.483,2.142h1.495V31.409z"/>
	<path clip-path="url(#SVGID_2_)" fill="#FFFFFF" d="M14.44,31.625c0.126-0.013,0.234-0.044,0.326-0.093
		c0.092-0.049,0.169-0.122,0.231-0.222c0.061-0.099,0.105-0.239,0.131-0.419h0.288v3.935h-0.355v-2.923h-1.04V31.65
		C14.175,31.646,14.315,31.638,14.44,31.625"/>
	<path clip-path="url(#SVGID_2_)" fill="#FFFFFF" d="M16.649,34.073c0.051,0.113,0.119,0.209,0.205,0.29
		c0.087,0.08,0.188,0.142,0.304,0.185c0.116,0.043,0.242,0.065,0.377,0.065c0.153,0,0.29-0.029,0.41-0.087
		c0.12-0.058,0.223-0.137,0.309-0.236c0.086-0.1,0.152-0.214,0.197-0.343c0.045-0.129,0.067-0.266,0.067-0.408
		c0-0.146-0.025-0.281-0.075-0.404c-0.051-0.124-0.12-0.232-0.208-0.324c-0.089-0.092-0.194-0.164-0.318-0.216
		c-0.123-0.053-0.258-0.079-0.405-0.079c-0.179,0-0.346,0.04-0.5,0.121c-0.154,0.081-0.279,0.196-0.377,0.346h-0.303l0.382-2.041
		h1.967v0.326h-1.72l-0.252,1.305l0.01,0.011c0.098-0.116,0.222-0.206,0.371-0.27c0.151-0.064,0.304-0.096,0.461-0.096
		c0.202,0,0.385,0.034,0.548,0.102c0.163,0.067,0.302,0.161,0.416,0.28c0.114,0.12,0.203,0.264,0.265,0.431
		c0.061,0.166,0.093,0.349,0.093,0.547c0,0.192-0.036,0.369-0.108,0.532c-0.07,0.163-0.168,0.303-0.292,0.421
		c-0.123,0.118-0.268,0.21-0.435,0.276c-0.167,0.065-0.344,0.098-0.532,0.098c-0.183,0-0.353-0.027-0.508-0.082
		c-0.156-0.054-0.29-0.132-0.405-0.235c-0.114-0.103-0.205-0.23-0.272-0.38c-0.068-0.15-0.104-0.319-0.108-0.506h0.355
		C16.572,33.837,16.599,33.961,16.649,34.073"/>
	<path clip-path="url(#SVGID_2_)" fill="#FFFFFF" d="M24.667,31.625c0.126-0.013,0.234-0.044,0.326-0.093
		c0.092-0.049,0.169-0.122,0.231-0.222c0.061-0.099,0.105-0.239,0.131-0.419h0.288v3.935h-0.355v-2.923h-1.04V31.65
		C24.402,31.646,24.542,31.638,24.667,31.625"/>
	<path clip-path="url(#SVGID_2_)" fill="#FFFFFF" d="M28.462,31.357c-0.145-0.134-0.331-0.202-0.56-0.202
		c-0.228,0-0.414,0.058-0.556,0.174c-0.143,0.116-0.253,0.263-0.332,0.438c-0.079,0.177-0.131,0.367-0.158,0.571
		c-0.026,0.204-0.039,0.396-0.039,0.576h0.011c0.094-0.194,0.235-0.352,0.425-0.472c0.189-0.12,0.396-0.18,0.621-0.18
		c0.198,0,0.378,0.033,0.537,0.099c0.159,0.065,0.295,0.156,0.407,0.272c0.113,0.116,0.199,0.255,0.262,0.416
		c0.062,0.161,0.093,0.338,0.093,0.529s-0.033,0.368-0.099,0.531c-0.065,0.163-0.157,0.304-0.275,0.422
		c-0.118,0.117-0.259,0.21-0.422,0.275s-0.342,0.098-0.537,0.098c-0.239,0-0.446-0.036-0.618-0.109
		c-0.172-0.073-0.315-0.193-0.427-0.357c-0.112-0.165-0.196-0.379-0.25-0.644c-0.055-0.264-0.082-0.589-0.082-0.975
		c0-0.079,0.005-0.182,0.014-0.309c0.009-0.128,0.031-0.264,0.065-0.408c0.033-0.144,0.081-0.29,0.143-0.439
		c0.062-0.147,0.144-0.281,0.248-0.401c0.102-0.12,0.231-0.218,0.384-0.292c0.154-0.076,0.338-0.113,0.551-0.113
		c0.353,0,0.632,0.084,0.838,0.253c0.206,0.169,0.33,0.427,0.371,0.776h-0.354C28.692,31.668,28.605,31.493,28.462,31.357
		 M27.456,32.643c-0.122,0.054-0.225,0.128-0.309,0.222c-0.085,0.093-0.148,0.203-0.191,0.329c-0.043,0.125-0.064,0.261-0.064,0.407
		c0,0.139,0.018,0.27,0.055,0.394c0.038,0.123,0.097,0.231,0.178,0.323c0.08,0.092,0.183,0.164,0.306,0.216
		c0.124,0.053,0.271,0.079,0.444,0.079c0.143,0,0.27-0.027,0.385-0.081c0.114-0.055,0.214-0.128,0.298-0.22
		c0.085-0.091,0.149-0.199,0.194-0.323s0.067-0.253,0.067-0.388c0-0.142-0.021-0.277-0.064-0.405
		c-0.043-0.127-0.106-0.238-0.186-0.331c-0.081-0.094-0.179-0.168-0.298-0.222c-0.118-0.055-0.252-0.082-0.402-0.082
		C27.715,32.561,27.578,32.587,27.456,32.643"/>
	<path clip-path="url(#SVGID_2_)" fill="#FFFFFF" d="M35.048,31.625c0.126-0.013,0.234-0.044,0.326-0.093
		c0.092-0.049,0.169-0.122,0.231-0.222c0.061-0.099,0.105-0.239,0.131-0.419h0.288v3.935h-0.355v-2.923h-1.04V31.65
		C34.783,31.646,34.923,31.638,35.048,31.625"/>
	<path clip-path="url(#SVGID_2_)" fill="#FFFFFF" d="M39.323,30.942v0.326c-0.124,0.128-0.271,0.299-0.444,0.514
		c-0.172,0.216-0.34,0.472-0.503,0.77c-0.163,0.298-0.306,0.638-0.428,1.018c-0.121,0.38-0.193,0.799-0.216,1.256h-0.383
		c0.023-0.333,0.069-0.648,0.138-0.944c0.069-0.296,0.169-0.586,0.299-0.869c0.129-0.282,0.29-0.566,0.483-0.851
		c0.192-0.285,0.426-0.583,0.699-0.894h-2.175v-0.326H39.323z"/>
	<path clip-path="url(#SVGID_2_)" fill="#FFFFFF" d="M55.291,31.625c0.126-0.013,0.234-0.044,0.326-0.093
		c0.092-0.049,0.169-0.122,0.23-0.222c0.062-0.099,0.105-0.239,0.132-0.419h0.287v3.935h-0.354v-2.923h-1.04V31.65
		C55.026,31.646,55.166,31.638,55.291,31.625"/>
	<path clip-path="url(#SVGID_2_)" fill="#FFFFFF" d="M57.764,34.41c0.145,0.135,0.33,0.203,0.56,0.203
		c0.231,0,0.418-0.058,0.559-0.175c0.141-0.116,0.25-0.262,0.329-0.438c0.08-0.176,0.131-0.366,0.157-0.571
		c0.026-0.204,0.04-0.396,0.04-0.576h-0.012c-0.094,0.195-0.235,0.353-0.425,0.472c-0.188,0.12-0.396,0.18-0.621,0.18
		c-0.194,0-0.373-0.032-0.533-0.098c-0.162-0.066-0.299-0.156-0.411-0.273c-0.112-0.116-0.199-0.255-0.261-0.416
		c-0.063-0.161-0.093-0.337-0.093-0.528s0.032-0.368,0.098-0.531c0.066-0.163,0.158-0.304,0.275-0.422
		c0.118-0.118,0.259-0.211,0.422-0.278c0.163-0.068,0.342-0.102,0.537-0.102c0.238,0,0.446,0.037,0.618,0.11
		c0.173,0.074,0.314,0.193,0.428,0.36c0.112,0.167,0.195,0.383,0.25,0.649c0.054,0.266,0.081,0.59,0.081,0.973
		c0,0.078-0.005,0.181-0.014,0.309c-0.01,0.127-0.031,0.263-0.064,0.408c-0.034,0.144-0.082,0.29-0.143,0.438
		c-0.063,0.148-0.146,0.281-0.248,0.399c-0.104,0.118-0.231,0.214-0.386,0.29c-0.153,0.074-0.337,0.112-0.551,0.112
		c-0.353,0-0.632-0.084-0.838-0.25c-0.206-0.167-0.329-0.425-0.37-0.773h0.354C57.533,34.099,57.62,34.275,57.764,34.41
		 M58.77,33.126c0.122-0.055,0.225-0.128,0.31-0.222c0.084-0.094,0.147-0.203,0.19-0.329c0.044-0.126,0.065-0.261,0.065-0.407
		c0-0.143-0.02-0.275-0.057-0.397s-0.097-0.228-0.177-0.32c-0.081-0.092-0.183-0.164-0.307-0.217
		c-0.124-0.052-0.271-0.078-0.444-0.078c-0.139,0-0.266,0.027-0.382,0.081c-0.116,0.055-0.217,0.127-0.301,0.219
		c-0.084,0.092-0.149,0.2-0.194,0.323c-0.045,0.124-0.067,0.253-0.067,0.389c0,0.142,0.021,0.277,0.065,0.404
		c0.043,0.128,0.104,0.238,0.185,0.332c0.081,0.094,0.181,0.167,0.299,0.222c0.117,0.054,0.252,0.081,0.401,0.081
		C58.51,33.207,58.648,33.18,58.77,33.126"/>
	<path clip-path="url(#SVGID_2_)" fill="#FFFFFF" d="M64.613,34.826c0.004-0.195,0.038-0.367,0.102-0.517s0.147-0.285,0.253-0.405
		c0.104-0.12,0.223-0.229,0.354-0.328c0.132-0.1,0.267-0.195,0.405-0.288c0.139-0.091,0.276-0.185,0.413-0.28
		c0.137-0.096,0.26-0.198,0.369-0.307c0.107-0.108,0.189-0.22,0.243-0.334c0.055-0.115,0.082-0.25,0.082-0.408
		c0-0.127-0.023-0.24-0.07-0.34c-0.046-0.099-0.11-0.184-0.191-0.253c-0.08-0.069-0.174-0.122-0.281-0.157
		c-0.106-0.036-0.22-0.053-0.34-0.053c-0.161,0-0.299,0.029-0.413,0.089s-0.207,0.141-0.278,0.242s-0.123,0.217-0.154,0.349
		c-0.032,0.131-0.046,0.269-0.042,0.415h-0.354c-0.004-0.202,0.02-0.388,0.07-0.559c0.051-0.17,0.128-0.317,0.233-0.441
		c0.104-0.124,0.237-0.22,0.396-0.29c0.159-0.069,0.346-0.104,0.559-0.104c0.173,0,0.332,0.024,0.481,0.071
		c0.147,0.046,0.277,0.116,0.388,0.208c0.11,0.091,0.196,0.207,0.259,0.345c0.062,0.139,0.093,0.3,0.093,0.484
		c0,0.165-0.027,0.315-0.082,0.449c-0.055,0.136-0.127,0.259-0.219,0.371c-0.093,0.113-0.197,0.217-0.315,0.312
		c-0.118,0.096-0.242,0.185-0.374,0.268c-0.094,0.063-0.204,0.133-0.331,0.211c-0.128,0.076-0.25,0.162-0.368,0.255
		c-0.118,0.094-0.223,0.196-0.312,0.307c-0.09,0.11-0.146,0.231-0.168,0.362h2.187v0.326H64.613z"/>
	<path clip-path="url(#SVGID_2_)" fill="#FFFFFF" d="M69.77,31.045c0.178,0.126,0.316,0.286,0.416,0.481
		c0.099,0.195,0.166,0.412,0.202,0.652c0.035,0.24,0.054,0.474,0.054,0.703c0,0.232-0.019,0.468-0.054,0.708
		c-0.036,0.24-0.104,0.457-0.202,0.652c-0.1,0.195-0.238,0.354-0.416,0.478s-0.411,0.185-0.7,0.185
		c-0.284,0-0.518-0.061-0.697-0.185s-0.32-0.283-0.418-0.478c-0.1-0.195-0.167-0.412-0.203-0.652
		c-0.035-0.24-0.053-0.474-0.053-0.703c0-0.232,0.018-0.468,0.053-0.708c0.036-0.24,0.104-0.457,0.203-0.652
		c0.098-0.195,0.238-0.355,0.418-0.481c0.18-0.125,0.413-0.188,0.697-0.188C69.359,30.858,69.592,30.92,69.77,31.045 M68.531,31.33
		c-0.136,0.116-0.237,0.261-0.307,0.433s-0.115,0.36-0.138,0.562c-0.022,0.203-0.035,0.388-0.035,0.557
		c0,0.172,0.013,0.359,0.035,0.559c0.022,0.201,0.068,0.388,0.138,0.562c0.069,0.174,0.171,0.32,0.307,0.436
		c0.135,0.116,0.313,0.174,0.539,0.174c0.225,0,0.405-0.058,0.54-0.174c0.135-0.116,0.236-0.262,0.306-0.436
		c0.069-0.174,0.115-0.361,0.138-0.562c0.023-0.2,0.034-0.387,0.034-0.559c0-0.169-0.011-0.354-0.034-0.557
		c-0.022-0.202-0.068-0.39-0.138-0.562s-0.171-0.317-0.306-0.433c-0.135-0.116-0.315-0.174-0.54-0.174
		C68.844,31.156,68.666,31.214,68.531,31.33"/>
	<path clip-path="url(#SVGID_2_)" fill="#FFFFFF" d="M4.025,43.999c0.004-0.195,0.038-0.367,0.102-0.517
		c0.063-0.15,0.147-0.285,0.252-0.405s0.223-0.229,0.354-0.328c0.132-0.1,0.267-0.195,0.405-0.288
		c0.139-0.091,0.277-0.185,0.413-0.28c0.137-0.096,0.26-0.198,0.369-0.307c0.108-0.108,0.19-0.22,0.244-0.334
		c0.054-0.115,0.082-0.25,0.082-0.408c0-0.127-0.024-0.24-0.071-0.34c-0.046-0.099-0.11-0.184-0.191-0.253
		c-0.08-0.069-0.174-0.122-0.281-0.157c-0.107-0.036-0.22-0.053-0.34-0.053c-0.161,0-0.299,0.029-0.413,0.089
		c-0.114,0.06-0.207,0.141-0.279,0.242c-0.071,0.101-0.123,0.217-0.154,0.349c-0.032,0.131-0.046,0.269-0.042,0.415H4.121
		c-0.004-0.202,0.019-0.388,0.07-0.559c0.051-0.17,0.128-0.317,0.233-0.441c0.105-0.124,0.238-0.22,0.397-0.29
		c0.159-0.069,0.346-0.104,0.558-0.104c0.173,0,0.333,0.024,0.482,0.071c0.147,0.046,0.277,0.116,0.388,0.208
		c0.11,0.091,0.196,0.207,0.258,0.345c0.062,0.139,0.093,0.3,0.093,0.484c0,0.165-0.027,0.315-0.082,0.449
		c-0.055,0.136-0.127,0.259-0.219,0.371c-0.092,0.113-0.197,0.217-0.315,0.312c-0.118,0.096-0.242,0.185-0.374,0.268
		c-0.094,0.063-0.204,0.133-0.331,0.211c-0.128,0.076-0.25,0.162-0.368,0.255c-0.118,0.094-0.223,0.196-0.313,0.307
		c-0.09,0.11-0.145,0.231-0.168,0.362h2.187v0.326H4.025z"/>
	<path clip-path="url(#SVGID_2_)" fill="#FFFFFF" d="M7.659,40.798c0.126-0.013,0.234-0.044,0.326-0.093
		c0.092-0.049,0.169-0.122,0.231-0.222c0.061-0.099,0.105-0.239,0.131-0.419h0.288v3.935H8.28v-2.923H7.24v-0.253
		C7.394,40.819,7.534,40.811,7.659,40.798"/>
	<path clip-path="url(#SVGID_2_)" fill="#FFFFFF" d="M13.559,43.999c0.004-0.195,0.038-0.367,0.102-0.517
		c0.063-0.15,0.147-0.285,0.252-0.405s0.223-0.229,0.354-0.328c0.132-0.1,0.267-0.195,0.405-0.288
		c0.139-0.091,0.277-0.185,0.413-0.28c0.137-0.096,0.26-0.198,0.369-0.307c0.108-0.108,0.19-0.22,0.244-0.334
		c0.054-0.115,0.082-0.25,0.082-0.408c0-0.127-0.024-0.24-0.071-0.34c-0.046-0.099-0.11-0.184-0.191-0.253
		c-0.08-0.069-0.174-0.122-0.281-0.157c-0.107-0.036-0.22-0.053-0.34-0.053c-0.161,0-0.299,0.029-0.413,0.089
		c-0.114,0.06-0.207,0.141-0.279,0.242c-0.071,0.101-0.123,0.217-0.154,0.349c-0.032,0.131-0.046,0.269-0.042,0.415h-0.354
		c-0.004-0.202,0.019-0.388,0.07-0.559c0.051-0.17,0.128-0.317,0.233-0.441c0.105-0.124,0.238-0.22,0.397-0.29
		c0.159-0.069,0.346-0.104,0.558-0.104c0.173,0,0.333,0.024,0.482,0.071c0.147,0.046,0.277,0.116,0.388,0.208
		c0.11,0.091,0.196,0.207,0.258,0.345c0.062,0.139,0.093,0.3,0.093,0.484c0,0.165-0.027,0.315-0.082,0.449
		c-0.055,0.136-0.127,0.259-0.219,0.371c-0.092,0.113-0.197,0.217-0.315,0.312c-0.118,0.096-0.242,0.185-0.374,0.268
		c-0.094,0.063-0.204,0.133-0.331,0.211c-0.128,0.076-0.25,0.162-0.368,0.255c-0.118,0.094-0.223,0.196-0.313,0.307
		c-0.09,0.11-0.145,0.231-0.168,0.362h2.187v0.326H13.559z"/>
	<path clip-path="url(#SVGID_2_)" fill="#FFFFFF" d="M16.768,43.999c0.004-0.195,0.038-0.367,0.102-0.517
		c0.063-0.15,0.147-0.285,0.252-0.405s0.223-0.229,0.354-0.328c0.132-0.1,0.267-0.195,0.405-0.288
		c0.139-0.091,0.277-0.185,0.413-0.28c0.137-0.096,0.26-0.198,0.369-0.307c0.108-0.108,0.19-0.22,0.244-0.334
		c0.054-0.115,0.082-0.25,0.082-0.408c0-0.127-0.024-0.24-0.071-0.34c-0.046-0.099-0.11-0.184-0.191-0.253
		c-0.08-0.069-0.174-0.122-0.281-0.157c-0.107-0.036-0.22-0.053-0.34-0.053c-0.161,0-0.299,0.029-0.413,0.089
		c-0.114,0.06-0.207,0.141-0.279,0.242c-0.071,0.101-0.123,0.217-0.154,0.349c-0.032,0.131-0.046,0.269-0.042,0.415h-0.354
		c-0.004-0.202,0.019-0.388,0.07-0.559c0.051-0.17,0.128-0.317,0.233-0.441c0.105-0.124,0.238-0.22,0.397-0.29
		c0.159-0.069,0.346-0.104,0.558-0.104c0.173,0,0.333,0.024,0.482,0.071c0.147,0.046,0.277,0.116,0.388,0.208
		c0.11,0.091,0.196,0.207,0.258,0.345c0.062,0.139,0.093,0.3,0.093,0.484c0,0.165-0.027,0.315-0.082,0.449
		c-0.055,0.136-0.127,0.259-0.219,0.371c-0.092,0.113-0.197,0.217-0.315,0.312c-0.118,0.096-0.242,0.185-0.374,0.268
		c-0.094,0.063-0.204,0.133-0.331,0.211c-0.128,0.076-0.25,0.162-0.368,0.255c-0.118,0.094-0.223,0.196-0.313,0.307
		c-0.09,0.11-0.145,0.231-0.168,0.362h2.187v0.326H16.768z"/>
	<path clip-path="url(#SVGID_2_)" fill="#FFFFFF" d="M23.957,43.999c0.004-0.195,0.038-0.367,0.102-0.517
		c0.063-0.15,0.147-0.285,0.252-0.405s0.223-0.229,0.354-0.328c0.132-0.1,0.267-0.195,0.405-0.288
		c0.139-0.091,0.277-0.185,0.413-0.28c0.137-0.096,0.26-0.198,0.369-0.307c0.108-0.108,0.19-0.22,0.244-0.334
		c0.054-0.115,0.082-0.25,0.082-0.408c0-0.127-0.024-0.24-0.071-0.34c-0.046-0.099-0.11-0.184-0.191-0.253
		c-0.08-0.069-0.174-0.122-0.281-0.157c-0.107-0.036-0.22-0.053-0.34-0.053c-0.161,0-0.299,0.029-0.413,0.089
		c-0.114,0.06-0.207,0.141-0.279,0.242c-0.071,0.101-0.123,0.217-0.154,0.349c-0.032,0.131-0.046,0.269-0.042,0.415h-0.354
		c-0.004-0.202,0.019-0.388,0.07-0.559c0.051-0.17,0.128-0.317,0.233-0.441c0.105-0.124,0.238-0.22,0.397-0.29
		c0.159-0.069,0.346-0.104,0.558-0.104c0.173,0,0.333,0.024,0.482,0.071c0.147,0.046,0.277,0.116,0.388,0.208
		c0.11,0.091,0.196,0.207,0.258,0.345c0.062,0.139,0.093,0.3,0.093,0.484c0,0.165-0.027,0.315-0.082,0.449
		c-0.055,0.136-0.127,0.259-0.219,0.371c-0.092,0.113-0.197,0.217-0.315,0.312c-0.118,0.096-0.242,0.185-0.374,0.268
		c-0.094,0.063-0.204,0.133-0.331,0.211c-0.128,0.076-0.25,0.162-0.368,0.255c-0.118,0.094-0.223,0.196-0.313,0.307
		c-0.09,0.11-0.145,0.231-0.168,0.362h2.187v0.326H23.957z"/>
	<path clip-path="url(#SVGID_2_)" fill="#FFFFFF" d="M27.444,43.173c0.043,0.127,0.107,0.236,0.191,0.326
		c0.084,0.09,0.19,0.16,0.315,0.211c0.126,0.05,0.267,0.076,0.425,0.076c0.131,0,0.256-0.019,0.377-0.057
		c0.119-0.037,0.226-0.093,0.32-0.168c0.094-0.075,0.168-0.167,0.225-0.276c0.055-0.109,0.084-0.232,0.084-0.371
		c0-0.142-0.025-0.265-0.074-0.368c-0.049-0.103-0.116-0.189-0.202-0.258c-0.086-0.07-0.186-0.121-0.301-0.155
		c-0.114-0.034-0.237-0.051-0.368-0.051h-0.298v-0.298h0.298c0.09,0,0.183-0.014,0.279-0.042c0.095-0.028,0.181-0.071,0.258-0.129
		c0.077-0.058,0.14-0.132,0.189-0.222c0.049-0.09,0.073-0.197,0.073-0.321c0-0.13-0.022-0.242-0.067-0.334
		c-0.046-0.092-0.108-0.168-0.186-0.23c-0.079-0.062-0.17-0.107-0.273-0.135c-0.103-0.029-0.214-0.042-0.334-0.042
		c-0.147,0-0.276,0.024-0.388,0.073c-0.112,0.048-0.207,0.117-0.284,0.205c-0.077,0.088-0.134,0.193-0.172,0.315
		c-0.037,0.122-0.054,0.255-0.05,0.401h-0.354c0-0.187,0.029-0.359,0.087-0.517c0.058-0.157,0.14-0.293,0.248-0.407
		c0.106-0.115,0.236-0.205,0.39-0.27c0.154-0.065,0.325-0.099,0.517-0.099c0.153,0,0.304,0.02,0.45,0.06
		c0.146,0.039,0.276,0.099,0.391,0.18c0.114,0.08,0.206,0.183,0.275,0.309c0.069,0.125,0.104,0.276,0.104,0.452
		c0,0.214-0.057,0.399-0.171,0.557c-0.115,0.157-0.279,0.262-0.493,0.314v0.012c0.259,0.041,0.458,0.149,0.599,0.323
		c0.141,0.174,0.211,0.391,0.211,0.649c0,0.195-0.037,0.367-0.109,0.515c-0.074,0.147-0.172,0.272-0.296,0.374
		c-0.123,0.101-0.268,0.176-0.433,0.227c-0.165,0.05-0.337,0.076-0.516,0.076c-0.204,0-0.39-0.03-0.56-0.09
		c-0.171-0.06-0.316-0.146-0.439-0.259c-0.122-0.112-0.213-0.251-0.275-0.415c-0.061-0.165-0.085-0.355-0.07-0.568h0.354
		C27.383,42.903,27.401,43.046,27.444,43.173"/>
	<path clip-path="url(#SVGID_2_)" fill="#FFFFFF" d="M34.181,43.999c0.004-0.195,0.038-0.367,0.102-0.517
		c0.063-0.15,0.147-0.285,0.252-0.405s0.223-0.229,0.354-0.328c0.132-0.1,0.267-0.195,0.405-0.288
		c0.139-0.091,0.277-0.185,0.413-0.28c0.137-0.096,0.26-0.198,0.369-0.307c0.108-0.108,0.19-0.22,0.244-0.334
		c0.054-0.115,0.082-0.25,0.082-0.408c0-0.127-0.024-0.24-0.071-0.34c-0.046-0.099-0.11-0.184-0.191-0.253
		c-0.08-0.069-0.174-0.122-0.281-0.157c-0.107-0.036-0.22-0.053-0.34-0.053c-0.161,0-0.299,0.029-0.413,0.089
		c-0.114,0.06-0.207,0.141-0.279,0.242c-0.071,0.101-0.123,0.217-0.154,0.349c-0.032,0.131-0.046,0.269-0.042,0.415h-0.354
		c-0.004-0.202,0.019-0.388,0.07-0.559c0.051-0.17,0.128-0.317,0.233-0.441c0.105-0.124,0.238-0.22,0.397-0.29
		c0.159-0.069,0.346-0.104,0.558-0.104c0.173,0,0.333,0.024,0.482,0.071c0.147,0.046,0.277,0.116,0.388,0.208
		c0.11,0.091,0.196,0.207,0.258,0.345c0.062,0.139,0.093,0.3,0.093,0.484c0,0.165-0.027,0.315-0.082,0.449
		c-0.055,0.136-0.127,0.259-0.219,0.371c-0.092,0.113-0.197,0.217-0.315,0.312c-0.118,0.096-0.242,0.185-0.374,0.268
		c-0.094,0.063-0.204,0.133-0.331,0.211c-0.128,0.076-0.25,0.162-0.368,0.255c-0.118,0.094-0.223,0.196-0.313,0.307
		c-0.09,0.11-0.145,0.231-0.168,0.362h2.187v0.326H34.181z"/>
	<path clip-path="url(#SVGID_2_)" fill="#FFFFFF" d="M38.954,40.063h0.32v2.66h0.59v0.297h-0.59v0.978h-0.326v-0.978h-1.815v-0.342
		L38.954,40.063z M38.948,40.582h-0.012l-1.483,2.142h1.495V40.582z"/>
	<path clip-path="url(#SVGID_2_)" fill="#FFFFFF" d="M44.297,43.999c0.004-0.195,0.038-0.367,0.102-0.517s0.147-0.285,0.252-0.405
		c0.105-0.12,0.224-0.229,0.354-0.328c0.132-0.1,0.267-0.195,0.405-0.288c0.139-0.091,0.276-0.185,0.413-0.28
		c0.137-0.096,0.26-0.198,0.368-0.307c0.108-0.108,0.19-0.22,0.244-0.334c0.055-0.115,0.082-0.25,0.082-0.408
		c0-0.127-0.023-0.24-0.07-0.34c-0.047-0.099-0.11-0.184-0.191-0.253c-0.08-0.069-0.174-0.122-0.281-0.157
		c-0.106-0.036-0.22-0.053-0.34-0.053c-0.161,0-0.299,0.029-0.413,0.089s-0.207,0.141-0.279,0.242
		c-0.07,0.101-0.122,0.217-0.153,0.349c-0.032,0.131-0.046,0.269-0.042,0.415h-0.354c-0.004-0.202,0.02-0.388,0.07-0.559
		c0.051-0.17,0.128-0.317,0.233-0.441c0.104-0.124,0.237-0.22,0.396-0.29c0.159-0.069,0.346-0.104,0.558-0.104
		c0.174,0,0.333,0.024,0.482,0.071c0.147,0.046,0.277,0.116,0.388,0.208c0.11,0.091,0.196,0.207,0.259,0.345
		c0.062,0.139,0.093,0.3,0.093,0.484c0,0.165-0.027,0.315-0.082,0.449c-0.056,0.136-0.127,0.259-0.219,0.371
		c-0.093,0.113-0.197,0.217-0.315,0.312c-0.118,0.096-0.242,0.185-0.374,0.268c-0.094,0.063-0.204,0.133-0.331,0.211
		c-0.128,0.076-0.25,0.162-0.368,0.255c-0.118,0.094-0.223,0.196-0.312,0.307c-0.09,0.11-0.146,0.231-0.168,0.362h2.187v0.326
		H44.297z"/>
	<path clip-path="url(#SVGID_2_)" fill="#FFFFFF" d="M47.83,43.246c0.051,0.113,0.119,0.209,0.205,0.29
		c0.087,0.08,0.188,0.142,0.304,0.185s0.242,0.065,0.377,0.065c0.153,0,0.29-0.029,0.41-0.087s0.223-0.137,0.31-0.236
		c0.086-0.1,0.151-0.214,0.196-0.343s0.067-0.266,0.067-0.408c0-0.146-0.025-0.281-0.075-0.404c-0.051-0.124-0.12-0.232-0.208-0.324
		c-0.089-0.092-0.194-0.164-0.318-0.216c-0.122-0.053-0.258-0.079-0.404-0.079c-0.18,0-0.347,0.04-0.5,0.121
		c-0.154,0.081-0.279,0.196-0.377,0.346h-0.304l0.383-2.041h1.967v0.326h-1.721l-0.252,1.305l0.011,0.011
		c0.098-0.116,0.222-0.206,0.371-0.27c0.15-0.064,0.304-0.096,0.461-0.096c0.202,0,0.385,0.034,0.548,0.102
		c0.163,0.067,0.302,0.161,0.416,0.28c0.114,0.12,0.203,0.264,0.265,0.431c0.062,0.166,0.093,0.349,0.093,0.547
		c0,0.192-0.035,0.369-0.107,0.532c-0.07,0.163-0.168,0.303-0.292,0.421c-0.123,0.118-0.269,0.21-0.436,0.276
		c-0.167,0.065-0.344,0.098-0.531,0.098c-0.184,0-0.354-0.027-0.509-0.082c-0.155-0.054-0.29-0.132-0.404-0.235
		s-0.205-0.23-0.272-0.38c-0.067-0.15-0.104-0.319-0.107-0.506h0.354C47.752,43.01,47.78,43.134,47.83,43.246"/>
	<path clip-path="url(#SVGID_2_)" fill="#FFFFFF" d="M54.493,43.999c0.004-0.195,0.038-0.367,0.102-0.517s0.147-0.285,0.253-0.405
		c0.104-0.12,0.223-0.229,0.354-0.328c0.132-0.1,0.267-0.195,0.405-0.288c0.139-0.091,0.276-0.185,0.413-0.28
		c0.137-0.096,0.26-0.198,0.369-0.307c0.107-0.108,0.189-0.22,0.243-0.334c0.055-0.115,0.082-0.25,0.082-0.408
		c0-0.127-0.023-0.24-0.07-0.34c-0.046-0.099-0.11-0.184-0.191-0.253c-0.08-0.069-0.174-0.122-0.281-0.157
		c-0.106-0.036-0.22-0.053-0.34-0.053c-0.161,0-0.299,0.029-0.413,0.089s-0.207,0.141-0.278,0.242s-0.123,0.217-0.154,0.349
		c-0.032,0.131-0.046,0.269-0.042,0.415h-0.354c-0.004-0.202,0.02-0.388,0.07-0.559c0.051-0.17,0.128-0.317,0.233-0.441
		c0.104-0.124,0.237-0.22,0.396-0.29c0.159-0.069,0.346-0.104,0.559-0.104c0.173,0,0.333,0.024,0.481,0.071
		c0.147,0.046,0.277,0.116,0.388,0.208c0.11,0.091,0.196,0.207,0.259,0.345c0.062,0.139,0.093,0.3,0.093,0.484
		c0,0.165-0.027,0.315-0.082,0.449c-0.055,0.136-0.127,0.259-0.219,0.371c-0.093,0.113-0.197,0.217-0.315,0.312
		c-0.118,0.096-0.242,0.185-0.374,0.268c-0.094,0.063-0.204,0.133-0.331,0.211c-0.128,0.076-0.25,0.162-0.368,0.255
		c-0.118,0.094-0.223,0.196-0.312,0.307c-0.09,0.11-0.146,0.231-0.168,0.362h2.187v0.326H54.493z"/>
	<path clip-path="url(#SVGID_2_)" fill="#FFFFFF" d="M59.611,40.53c-0.145-0.134-0.331-0.202-0.56-0.202s-0.414,0.058-0.557,0.174
		s-0.253,0.263-0.332,0.438c-0.078,0.177-0.131,0.367-0.157,0.571c-0.026,0.204-0.039,0.396-0.039,0.576h0.011
		c0.094-0.194,0.235-0.352,0.425-0.472c0.189-0.12,0.396-0.18,0.621-0.18c0.198,0,0.378,0.033,0.537,0.099
		c0.159,0.065,0.295,0.156,0.407,0.272c0.112,0.116,0.199,0.255,0.262,0.416c0.062,0.161,0.093,0.338,0.093,0.529
		s-0.033,0.368-0.099,0.531c-0.065,0.163-0.157,0.304-0.275,0.422c-0.118,0.117-0.259,0.21-0.422,0.275s-0.342,0.098-0.537,0.098
		c-0.238,0-0.445-0.036-0.618-0.109c-0.172-0.073-0.314-0.193-0.427-0.357c-0.111-0.165-0.196-0.379-0.25-0.644
		c-0.055-0.264-0.082-0.589-0.082-0.975c0-0.079,0.005-0.182,0.015-0.309c0.009-0.128,0.03-0.264,0.064-0.408
		c0.033-0.144,0.081-0.29,0.144-0.439c0.062-0.147,0.144-0.281,0.248-0.401c0.102-0.12,0.23-0.218,0.384-0.292
		c0.153-0.076,0.338-0.113,0.551-0.113c0.353,0,0.632,0.084,0.838,0.253c0.206,0.169,0.33,0.427,0.371,0.776h-0.354
		C59.841,40.841,59.754,40.666,59.611,40.53 M58.604,41.815c-0.122,0.054-0.225,0.128-0.309,0.222
		c-0.085,0.093-0.148,0.203-0.191,0.329c-0.043,0.125-0.064,0.261-0.064,0.407c0,0.139,0.019,0.27,0.056,0.394
		c0.038,0.123,0.097,0.231,0.178,0.323c0.08,0.092,0.183,0.164,0.306,0.216c0.124,0.053,0.271,0.079,0.444,0.079
		c0.144,0,0.271-0.027,0.385-0.081c0.114-0.055,0.214-0.128,0.298-0.22c0.086-0.091,0.149-0.199,0.194-0.323
		s0.067-0.253,0.067-0.388c0-0.142-0.021-0.277-0.064-0.405c-0.043-0.127-0.105-0.238-0.186-0.331
		c-0.081-0.094-0.18-0.168-0.298-0.222c-0.118-0.055-0.252-0.082-0.402-0.082C58.864,41.733,58.726,41.76,58.604,41.815"/>
	<path clip-path="url(#SVGID_2_)" fill="#FFFFFF" d="M64.748,43.999c0.004-0.195,0.038-0.367,0.102-0.517s0.147-0.285,0.252-0.405
		c0.105-0.12,0.224-0.229,0.354-0.328c0.132-0.1,0.267-0.195,0.405-0.288c0.139-0.091,0.276-0.185,0.413-0.28
		c0.137-0.096,0.26-0.198,0.368-0.307c0.108-0.108,0.19-0.22,0.244-0.334c0.055-0.115,0.082-0.25,0.082-0.408
		c0-0.127-0.023-0.24-0.07-0.34c-0.047-0.099-0.11-0.184-0.191-0.253c-0.08-0.069-0.174-0.122-0.281-0.157
		c-0.106-0.036-0.22-0.053-0.34-0.053c-0.161,0-0.299,0.029-0.413,0.089s-0.207,0.141-0.279,0.242
		c-0.07,0.101-0.123,0.217-0.153,0.349c-0.032,0.131-0.046,0.269-0.042,0.415h-0.354c-0.004-0.202,0.02-0.388,0.07-0.559
		c0.051-0.17,0.128-0.317,0.233-0.441c0.104-0.124,0.237-0.22,0.396-0.29c0.159-0.069,0.346-0.104,0.558-0.104
		c0.174,0,0.333,0.024,0.482,0.071c0.147,0.046,0.277,0.116,0.388,0.208c0.11,0.091,0.196,0.207,0.259,0.345
		c0.062,0.139,0.093,0.3,0.093,0.484c0,0.165-0.027,0.315-0.082,0.449c-0.056,0.136-0.127,0.259-0.219,0.371
		c-0.093,0.113-0.197,0.217-0.315,0.312c-0.118,0.096-0.242,0.185-0.374,0.268c-0.094,0.063-0.204,0.133-0.331,0.211
		c-0.128,0.076-0.25,0.162-0.368,0.255c-0.118,0.094-0.223,0.196-0.312,0.307c-0.09,0.11-0.146,0.231-0.168,0.362h2.187v0.326
		H64.748z"/>
	<path clip-path="url(#SVGID_2_)" fill="#FFFFFF" d="M70.234,40.115v0.326c-0.124,0.128-0.271,0.299-0.444,0.514
		c-0.172,0.216-0.34,0.472-0.503,0.77c-0.163,0.298-0.306,0.638-0.428,1.018c-0.121,0.38-0.193,0.799-0.216,1.256H68.26
		c0.022-0.333,0.068-0.648,0.138-0.944s0.169-0.586,0.299-0.869c0.129-0.282,0.29-0.566,0.483-0.851
		c0.192-0.285,0.426-0.583,0.7-0.894h-2.176v-0.326H70.234z"/>
	<path clip-path="url(#SVGID_2_)" fill="#FFFFFF" d="M3.523,52.725c0.004-0.195,0.038-0.367,0.102-0.517
		c0.063-0.15,0.147-0.285,0.252-0.405s0.223-0.229,0.354-0.328c0.132-0.1,0.267-0.195,0.405-0.288
		c0.139-0.091,0.277-0.185,0.413-0.28c0.137-0.096,0.26-0.198,0.369-0.307c0.108-0.108,0.19-0.22,0.244-0.334
		c0.054-0.115,0.082-0.25,0.082-0.408c0-0.127-0.024-0.24-0.071-0.34c-0.046-0.099-0.11-0.184-0.191-0.253
		c-0.08-0.069-0.174-0.122-0.281-0.157c-0.107-0.036-0.22-0.053-0.34-0.053c-0.161,0-0.299,0.029-0.413,0.089
		c-0.114,0.06-0.207,0.141-0.279,0.242c-0.071,0.101-0.123,0.217-0.154,0.349c-0.032,0.131-0.046,0.269-0.042,0.415H3.619
		c-0.004-0.202,0.019-0.388,0.07-0.559c0.051-0.17,0.128-0.317,0.233-0.441c0.105-0.124,0.238-0.22,0.397-0.29
		c0.159-0.069,0.346-0.104,0.558-0.104c0.173,0,0.333,0.024,0.482,0.071c0.147,0.046,0.277,0.116,0.388,0.208
		c0.11,0.091,0.196,0.207,0.258,0.345c0.062,0.139,0.093,0.3,0.093,0.484c0,0.165-0.027,0.315-0.082,0.449
		c-0.055,0.136-0.127,0.259-0.219,0.371c-0.092,0.113-0.197,0.217-0.315,0.312c-0.118,0.096-0.242,0.185-0.374,0.268
		c-0.094,0.063-0.204,0.133-0.331,0.211c-0.128,0.076-0.25,0.162-0.368,0.255c-0.118,0.094-0.223,0.196-0.313,0.307
		c-0.09,0.11-0.145,0.231-0.168,0.362h2.187v0.326H3.523z"/>
	<path clip-path="url(#SVGID_2_)" fill="#FFFFFF" d="M9.116,50.288c-0.112,0.151-0.27,0.257-0.473,0.317v0.012
		c0.259,0.052,0.457,0.166,0.596,0.339c0.139,0.175,0.208,0.397,0.208,0.667c0,0.198-0.035,0.372-0.106,0.519
		c-0.072,0.149-0.169,0.271-0.292,0.369c-0.124,0.097-0.268,0.171-0.431,0.219c-0.163,0.049-0.338,0.073-0.525,0.073
		c-0.184,0-0.358-0.024-0.523-0.073c-0.165-0.048-0.309-0.122-0.433-0.219c-0.124-0.098-0.221-0.22-0.292-0.369
		c-0.072-0.147-0.107-0.321-0.107-0.519c0.008-0.259,0.08-0.48,0.219-0.664c0.139-0.183,0.332-0.297,0.579-0.342v-0.012
		c-0.206-0.064-0.364-0.169-0.475-0.317c-0.11-0.148-0.166-0.331-0.166-0.548c0-0.169,0.035-0.315,0.105-0.439
		c0.069-0.123,0.16-0.225,0.272-0.306c0.113-0.081,0.24-0.141,0.382-0.18c0.143-0.039,0.287-0.059,0.433-0.059
		s0.291,0.02,0.433,0.059s0.271,0.099,0.385,0.18c0.114,0.081,0.206,0.183,0.275,0.306c0.07,0.124,0.104,0.27,0.104,0.439
		C9.284,49.953,9.228,50.136,9.116,50.288 M8.483,52.457c0.122-0.035,0.228-0.089,0.318-0.163c0.09-0.072,0.161-0.165,0.213-0.278
		c0.053-0.112,0.08-0.243,0.08-0.393c0-0.143-0.028-0.267-0.082-0.374s-0.127-0.197-0.219-0.27
		c-0.092-0.073-0.199-0.127-0.321-0.163c-0.122-0.035-0.249-0.051-0.379-0.048c-0.135-0.003-0.263,0.012-0.385,0.045
		C7.585,50.847,7.479,50.9,7.39,50.974c-0.089,0.073-0.162,0.164-0.216,0.272c-0.055,0.109-0.081,0.234-0.081,0.377
		c0,0.146,0.025,0.275,0.078,0.388c0.052,0.112,0.124,0.205,0.214,0.278c0.089,0.073,0.195,0.128,0.317,0.166
		c0.122,0.037,0.252,0.056,0.391,0.056C8.231,52.511,8.361,52.493,8.483,52.457 M8.408,50.434c0.101-0.028,0.189-0.072,0.267-0.132
		c0.077-0.06,0.138-0.137,0.185-0.231c0.047-0.093,0.07-0.204,0.07-0.331c0-0.113-0.021-0.212-0.064-0.298
		c-0.044-0.087-0.103-0.157-0.178-0.214c-0.074-0.056-0.163-0.099-0.263-0.129c-0.102-0.03-0.212-0.045-0.332-0.045
		c-0.109,0-0.214,0.015-0.315,0.045c-0.101,0.03-0.191,0.073-0.269,0.129c-0.08,0.057-0.142,0.127-0.189,0.214
		c-0.047,0.086-0.07,0.185-0.07,0.298c0,0.131,0.024,0.243,0.073,0.337c0.048,0.094,0.112,0.17,0.19,0.231
		c0.08,0.06,0.169,0.103,0.271,0.129c0.101,0.026,0.204,0.037,0.309,0.034C8.201,50.474,8.306,50.462,8.408,50.434"/>
	<path clip-path="url(#SVGID_2_)" fill="#FFFFFF" d="M13.594,52.725c0.004-0.195,0.038-0.367,0.102-0.517
		c0.063-0.15,0.147-0.285,0.252-0.405s0.223-0.229,0.354-0.328c0.132-0.1,0.267-0.195,0.405-0.288
		c0.139-0.091,0.277-0.185,0.413-0.28c0.137-0.096,0.26-0.198,0.369-0.307c0.108-0.108,0.19-0.22,0.244-0.334
		c0.054-0.115,0.082-0.25,0.082-0.408c0-0.127-0.024-0.24-0.071-0.34c-0.046-0.099-0.11-0.184-0.191-0.253
		c-0.08-0.069-0.174-0.122-0.281-0.157c-0.107-0.036-0.22-0.053-0.34-0.053c-0.161,0-0.299,0.029-0.413,0.089
		c-0.114,0.06-0.207,0.141-0.279,0.242c-0.071,0.101-0.123,0.217-0.154,0.349c-0.032,0.131-0.046,0.269-0.042,0.415H13.69
		c-0.004-0.202,0.019-0.388,0.07-0.559c0.051-0.17,0.128-0.317,0.233-0.441c0.105-0.124,0.238-0.22,0.397-0.29
		c0.159-0.069,0.346-0.104,0.558-0.104c0.173,0,0.333,0.024,0.482,0.071c0.147,0.046,0.277,0.116,0.388,0.208
		c0.11,0.091,0.196,0.207,0.258,0.345c0.062,0.139,0.093,0.3,0.093,0.484c0,0.165-0.027,0.315-0.082,0.449
		c-0.055,0.136-0.127,0.259-0.219,0.371c-0.092,0.113-0.197,0.217-0.315,0.312c-0.118,0.096-0.242,0.185-0.374,0.268
		c-0.094,0.063-0.204,0.133-0.331,0.211c-0.128,0.076-0.25,0.162-0.368,0.255c-0.118,0.094-0.223,0.196-0.313,0.307
		c-0.09,0.11-0.145,0.231-0.168,0.362h2.187v0.326H13.594z"/>
	<path clip-path="url(#SVGID_2_)" fill="#FFFFFF" d="M17.503,52.309c0.145,0.135,0.33,0.203,0.56,0.203
		c0.231,0,0.418-0.058,0.558-0.175c0.141-0.116,0.25-0.262,0.329-0.438c0.08-0.176,0.131-0.366,0.158-0.571
		c0.026-0.204,0.04-0.396,0.04-0.576h-0.012c-0.094,0.195-0.235,0.353-0.425,0.472c-0.188,0.12-0.395,0.18-0.621,0.18
		c-0.194,0-0.373-0.032-0.533-0.098c-0.162-0.066-0.299-0.156-0.411-0.273c-0.113-0.116-0.199-0.255-0.261-0.416
		c-0.063-0.161-0.093-0.337-0.093-0.528s0.032-0.368,0.098-0.531c0.066-0.163,0.158-0.304,0.275-0.422
		c0.118-0.118,0.259-0.211,0.422-0.278c0.163-0.068,0.342-0.102,0.537-0.102c0.239,0,0.447,0.037,0.618,0.11
		c0.173,0.074,0.315,0.193,0.428,0.36c0.112,0.167,0.195,0.383,0.25,0.649c0.054,0.266,0.081,0.59,0.081,0.973
		c0,0.078-0.005,0.181-0.013,0.309c-0.01,0.127-0.032,0.263-0.065,0.408c-0.034,0.144-0.082,0.29-0.143,0.438
		c-0.063,0.148-0.145,0.281-0.248,0.399c-0.103,0.118-0.231,0.214-0.385,0.29c-0.154,0.074-0.337,0.112-0.551,0.112
		c-0.353,0-0.632-0.084-0.838-0.25c-0.206-0.167-0.329-0.425-0.37-0.773h0.353C17.272,51.998,17.359,52.173,17.503,52.309
		 M18.509,51.024c0.122-0.055,0.225-0.128,0.31-0.222c0.084-0.094,0.147-0.203,0.19-0.329c0.044-0.126,0.065-0.261,0.065-0.407
		c0-0.143-0.019-0.275-0.056-0.397c-0.037-0.122-0.097-0.228-0.177-0.32c-0.081-0.092-0.183-0.164-0.307-0.217
		c-0.124-0.052-0.271-0.078-0.444-0.078c-0.139,0-0.266,0.027-0.382,0.081c-0.116,0.055-0.217,0.127-0.301,0.219
		c-0.084,0.092-0.149,0.2-0.194,0.323c-0.045,0.124-0.067,0.253-0.067,0.389c0,0.142,0.021,0.277,0.065,0.404
		c0.043,0.128,0.105,0.238,0.185,0.332c0.081,0.094,0.18,0.167,0.299,0.222c0.117,0.054,0.252,0.081,0.401,0.081
		C18.25,51.105,18.387,51.079,18.509,51.024"/>
	<path clip-path="url(#SVGID_2_)" fill="#FFFFFF" d="M24.246,51.898c0.043,0.127,0.107,0.236,0.191,0.326
		c0.084,0.09,0.19,0.16,0.315,0.211c0.126,0.05,0.267,0.076,0.425,0.076c0.131,0,0.256-0.019,0.377-0.057
		c0.119-0.037,0.226-0.093,0.32-0.168c0.094-0.075,0.168-0.167,0.225-0.276c0.055-0.109,0.084-0.232,0.084-0.371
		c0-0.142-0.025-0.265-0.074-0.368c-0.049-0.103-0.116-0.189-0.202-0.258c-0.086-0.07-0.186-0.121-0.301-0.155
		c-0.114-0.034-0.237-0.051-0.368-0.051h-0.298v-0.298h0.298c0.09,0,0.183-0.014,0.279-0.042c0.095-0.028,0.181-0.071,0.258-0.129
		c0.077-0.058,0.14-0.132,0.189-0.222c0.049-0.09,0.073-0.197,0.073-0.321c0-0.13-0.022-0.242-0.067-0.334
		c-0.046-0.092-0.108-0.168-0.186-0.23c-0.079-0.062-0.17-0.107-0.273-0.135c-0.103-0.029-0.214-0.042-0.334-0.042
		c-0.147,0-0.276,0.024-0.388,0.073c-0.112,0.048-0.207,0.117-0.284,0.205c-0.077,0.088-0.134,0.193-0.172,0.315
		c-0.037,0.122-0.054,0.255-0.05,0.401h-0.354c0-0.187,0.029-0.359,0.087-0.517c0.058-0.157,0.14-0.293,0.248-0.407
		c0.106-0.115,0.236-0.205,0.39-0.27c0.154-0.065,0.325-0.099,0.517-0.099c0.153,0,0.304,0.02,0.45,0.06
		c0.146,0.039,0.276,0.099,0.391,0.18c0.114,0.08,0.206,0.183,0.275,0.309c0.069,0.125,0.104,0.276,0.104,0.452
		c0,0.214-0.057,0.399-0.171,0.557c-0.115,0.157-0.279,0.262-0.493,0.314v0.012c0.259,0.041,0.458,0.149,0.599,0.323
		s0.211,0.391,0.211,0.649c0,0.195-0.037,0.367-0.109,0.515c-0.074,0.147-0.172,0.272-0.296,0.374
		c-0.123,0.101-0.268,0.176-0.433,0.227c-0.165,0.05-0.337,0.076-0.516,0.076c-0.204,0-0.39-0.03-0.56-0.09
		c-0.171-0.06-0.316-0.146-0.439-0.259c-0.122-0.112-0.213-0.251-0.275-0.415c-0.061-0.165-0.085-0.355-0.07-0.568h0.354
		C24.185,51.628,24.203,51.771,24.246,51.898"/>
	<path clip-path="url(#SVGID_2_)" fill="#FFFFFF" d="M29.124,48.944c0.178,0.126,0.317,0.286,0.416,0.481
		c0.099,0.195,0.166,0.412,0.202,0.652c0.036,0.24,0.054,0.474,0.054,0.703c0,0.232-0.018,0.468-0.054,0.708
		c-0.036,0.24-0.103,0.457-0.202,0.652c-0.099,0.195-0.238,0.354-0.416,0.478c-0.177,0.124-0.411,0.185-0.7,0.185
		c-0.284,0-0.517-0.061-0.697-0.185c-0.18-0.124-0.32-0.283-0.418-0.478c-0.1-0.195-0.167-0.412-0.203-0.652
		c-0.035-0.24-0.053-0.474-0.053-0.703c0-0.232,0.018-0.468,0.053-0.708c0.036-0.24,0.103-0.457,0.203-0.652
		c0.098-0.195,0.238-0.355,0.418-0.481c0.18-0.125,0.413-0.188,0.697-0.188C28.713,48.756,28.947,48.819,29.124,48.944
		 M27.885,49.228c-0.136,0.116-0.237,0.261-0.307,0.433c-0.069,0.172-0.115,0.36-0.137,0.562c-0.023,0.203-0.035,0.388-0.035,0.557
		c0,0.172,0.012,0.359,0.035,0.559c0.022,0.201,0.068,0.388,0.137,0.562c0.07,0.174,0.171,0.32,0.307,0.436
		c0.135,0.116,0.314,0.174,0.539,0.174s0.405-0.058,0.54-0.174c0.135-0.116,0.236-0.262,0.306-0.436
		c0.069-0.174,0.115-0.361,0.138-0.562c0.023-0.2,0.034-0.387,0.034-0.559c0-0.169-0.011-0.354-0.034-0.557
		c-0.023-0.202-0.069-0.39-0.138-0.562c-0.07-0.172-0.171-0.317-0.306-0.433c-0.135-0.116-0.315-0.174-0.54-0.174
		S28.02,49.112,27.885,49.228"/>
	<path clip-path="url(#SVGID_2_)" fill="#FFFFFF" d="M35.004,51.898c0.043,0.127,0.107,0.236,0.191,0.326
		c0.084,0.09,0.19,0.16,0.315,0.211c0.126,0.05,0.267,0.076,0.425,0.076c0.131,0,0.256-0.019,0.377-0.057
		c0.119-0.037,0.226-0.093,0.32-0.168c0.094-0.075,0.168-0.167,0.225-0.276c0.055-0.109,0.084-0.232,0.084-0.371
		c0-0.142-0.025-0.265-0.074-0.368c-0.049-0.103-0.116-0.189-0.202-0.258c-0.086-0.07-0.186-0.121-0.301-0.155
		c-0.114-0.034-0.237-0.051-0.368-0.051h-0.298v-0.298h0.298c0.09,0,0.183-0.014,0.279-0.042c0.095-0.028,0.181-0.071,0.258-0.129
		c0.077-0.058,0.14-0.132,0.189-0.222c0.049-0.09,0.073-0.197,0.073-0.321c0-0.13-0.022-0.242-0.067-0.334
		c-0.046-0.092-0.108-0.168-0.186-0.23c-0.079-0.062-0.17-0.107-0.273-0.135c-0.103-0.029-0.214-0.042-0.334-0.042
		c-0.147,0-0.276,0.024-0.388,0.073c-0.112,0.048-0.207,0.117-0.284,0.205c-0.077,0.088-0.134,0.193-0.172,0.315
		c-0.037,0.122-0.054,0.255-0.05,0.401h-0.354c0-0.187,0.029-0.359,0.087-0.517c0.058-0.157,0.14-0.293,0.248-0.407
		c0.106-0.115,0.236-0.205,0.39-0.27c0.154-0.065,0.325-0.099,0.517-0.099c0.153,0,0.304,0.02,0.45,0.06
		c0.146,0.039,0.276,0.099,0.391,0.18c0.114,0.08,0.206,0.183,0.275,0.309c0.069,0.125,0.104,0.276,0.104,0.452
		c0,0.214-0.057,0.399-0.171,0.557c-0.115,0.157-0.279,0.262-0.493,0.314v0.012c0.259,0.041,0.458,0.149,0.599,0.323
		s0.211,0.391,0.211,0.649c0,0.195-0.037,0.367-0.109,0.515c-0.074,0.147-0.172,0.272-0.296,0.374
		c-0.123,0.101-0.268,0.176-0.433,0.227c-0.165,0.05-0.337,0.076-0.516,0.076c-0.204,0-0.39-0.03-0.56-0.09
		c-0.171-0.06-0.316-0.146-0.439-0.259c-0.122-0.112-0.213-0.251-0.275-0.415c-0.061-0.165-0.085-0.355-0.07-0.568h0.354
		C34.943,51.628,34.961,51.771,35.004,51.898"/>
	<path clip-path="url(#SVGID_2_)" fill="#FFFFFF" d="M38.023,49.523c0.126-0.013,0.234-0.044,0.326-0.093
		c0.092-0.049,0.169-0.122,0.23-0.222c0.062-0.099,0.105-0.239,0.131-0.419h0.288v3.935h-0.354v-2.923h-1.04v-0.253
		C37.758,49.544,37.898,49.537,38.023,49.523"/>
	<rect x="42.094" y="28.402" clip-path="url(#SVGID_2_)" fill="#FFFFFF" width="10.182" height="8.999"/>
	<path clip-path="url(#SVGID_2_)" d="M47.577,12.927h0.32v2.66h0.59v0.297h-0.59v0.978h-0.326v-0.978h-1.815v-0.342L47.577,12.927z
		 M47.571,13.445h-0.012l-1.483,2.142h1.495V13.445z"/>
	<path clip-path="url(#SVGID_2_)" d="M45.119,31.625c0.126-0.013,0.234-0.044,0.326-0.093c0.092-0.049,0.169-0.122,0.23-0.222
		c0.062-0.099,0.105-0.239,0.131-0.419h0.288v3.935H45.74v-2.923H44.7V31.65C44.854,31.646,44.994,31.638,45.119,31.625"/>
	<path clip-path="url(#SVGID_2_)" d="M49.163,32.39c-0.112,0.151-0.27,0.257-0.473,0.317v0.012c0.259,0.052,0.457,0.166,0.596,0.339
		c0.139,0.175,0.208,0.397,0.208,0.667c0,0.198-0.035,0.372-0.106,0.519c-0.071,0.149-0.169,0.271-0.292,0.369
		c-0.124,0.097-0.268,0.171-0.431,0.219c-0.163,0.049-0.338,0.073-0.525,0.073c-0.184,0-0.357-0.024-0.522-0.073
		c-0.165-0.048-0.31-0.122-0.433-0.219c-0.124-0.098-0.222-0.22-0.293-0.369c-0.071-0.147-0.106-0.321-0.106-0.519
		c0.008-0.259,0.08-0.48,0.219-0.664c0.14-0.183,0.332-0.297,0.579-0.342v-0.012c-0.206-0.064-0.364-0.169-0.475-0.317
		s-0.166-0.331-0.166-0.548c0-0.169,0.035-0.315,0.104-0.439c0.069-0.123,0.16-0.225,0.272-0.306s0.24-0.141,0.382-0.18
		c0.143-0.039,0.287-0.059,0.433-0.059c0.146,0,0.291,0.02,0.434,0.059c0.142,0.039,0.271,0.099,0.385,0.18s0.206,0.183,0.275,0.306
		c0.069,0.124,0.104,0.27,0.104,0.439C49.331,32.055,49.275,32.238,49.163,32.39 M48.53,34.559c0.122-0.035,0.228-0.089,0.317-0.163
		c0.091-0.072,0.161-0.165,0.214-0.278c0.053-0.112,0.079-0.243,0.079-0.393c0-0.143-0.027-0.267-0.081-0.374
		c-0.055-0.107-0.128-0.197-0.22-0.27c-0.092-0.073-0.199-0.127-0.32-0.163c-0.122-0.035-0.249-0.051-0.38-0.048
		c-0.135-0.003-0.263,0.012-0.385,0.045c-0.122,0.034-0.228,0.087-0.317,0.161c-0.09,0.073-0.162,0.164-0.217,0.272
		c-0.055,0.109-0.081,0.234-0.081,0.377c0,0.146,0.025,0.275,0.078,0.388c0.053,0.112,0.124,0.205,0.214,0.278
		c0.09,0.073,0.195,0.128,0.317,0.166c0.122,0.037,0.252,0.056,0.391,0.056S48.408,34.595,48.53,34.559 M48.455,32.536
		c0.101-0.028,0.189-0.072,0.267-0.132s0.139-0.137,0.186-0.231c0.047-0.093,0.07-0.204,0.07-0.331c0-0.113-0.021-0.212-0.064-0.298
		c-0.044-0.087-0.103-0.157-0.178-0.214c-0.074-0.056-0.163-0.099-0.264-0.129c-0.102-0.03-0.212-0.045-0.332-0.045
		c-0.108,0-0.214,0.015-0.314,0.045c-0.102,0.03-0.191,0.073-0.27,0.129c-0.079,0.057-0.142,0.127-0.188,0.214
		c-0.047,0.086-0.07,0.185-0.07,0.298c0,0.131,0.024,0.243,0.073,0.337c0.048,0.094,0.112,0.17,0.19,0.231
		c0.079,0.06,0.169,0.103,0.271,0.129c0.101,0.026,0.204,0.037,0.309,0.034C48.248,32.576,48.353,32.563,48.455,32.536"/>
</g>
</svg>
