<?xml version="1.0" encoding="utf-8"?>
<!-- Generator: Adobe Illustrator 16.0.4, SVG Export Plug-In . SVG Version: 6.00 Build 0)  -->
<!DOCTYPE svg PUBLIC "-//W3C//DTD SVG 1.1//EN" "http://www.w3.org/Graphics/SVG/1.1/DTD/svg11.dtd">
<svg version="1.1" xmlns="http://www.w3.org/2000/svg" xmlns:xlink="http://www.w3.org/1999/xlink" x="0px" y="0px"
	 width="227.939px" height="146.673px" viewBox="0 0 227.939 146.673" enable-background="new 0 0 227.939 146.673"
	 xml:space="preserve">
<g id="New_Layer">
	
		<line fill-rule="evenodd" clip-rule="evenodd" fill="#528AC8" stroke="#245C87" stroke-width="16" stroke-linecap="round" stroke-miterlimit="10" x1="35.609" y1="138.672" x2="219.939" y2="8"/>
	
		<line fill-rule="evenodd" clip-rule="evenodd" stroke="#000000" stroke-width="8" stroke-linecap="round" stroke-miterlimit="10" x1="28.27" y1="101.105" x2="48.94" y2="130.265"/>
	
		<line fill-rule="evenodd" clip-rule="evenodd" stroke="#000000" stroke-width="8" stroke-linecap="round" stroke-miterlimit="10" x1="49.119" y1="86.337" x2="69.79" y2="115.496"/>
	
		<line fill-rule="evenodd" clip-rule="evenodd" stroke="#000000" stroke-width="8" stroke-linecap="round" stroke-miterlimit="10" x1="38.694" y1="93.722" x2="59.365" y2="122.881"/>
	
		<line fill-rule="evenodd" clip-rule="evenodd" stroke="#000000" stroke-width="8" stroke-linecap="round" stroke-miterlimit="10" x1="59.544" y1="78.953" x2="80.215" y2="108.111"/>
	
		<line fill-rule="evenodd" clip-rule="evenodd" stroke="#000000" stroke-width="8" stroke-linecap="round" stroke-miterlimit="10" x1="69.969" y1="71.568" x2="90.641" y2="100.727"/>
	
		<line fill-rule="evenodd" clip-rule="evenodd" stroke="#245C87" stroke-width="16" stroke-linecap="round" stroke-miterlimit="10" x1="8" y1="101.317" x2="34.481" y2="138.673"/>
	
		<path fill-rule="evenodd" clip-rule="evenodd" fill="#FFFFFF" stroke="#4D99D3" stroke-width="24" stroke-linecap="round" stroke-miterlimit="10" d="
		M15.903,81.396c6.278,4.323,14.102,0.1,23.471-12.671c6.854-9.192,12.531-13,17.034-11.422"/>
	
		<path fill-rule="evenodd" clip-rule="evenodd" fill="none" stroke="#E0E0E0" stroke-width="4" stroke-linecap="round" stroke-miterlimit="10" d="
		M13.727,79.61c6.278,4.322,14.101,0.1,23.471-12.671c6.853-9.191,12.531-13,17.034-11.422"/>
</g>
<g id="MasterLayer_1">
</g>
</svg>
