<?xml version="1.0" encoding="utf-8"?>
<!-- Generator: Adobe Illustrator 16.0.4, SVG Export Plug-In . SVG Version: 6.00 Build 0)  -->
<!DOCTYPE svg PUBLIC "-//W3C//DTD SVG 1.1//EN" "http://www.w3.org/Graphics/SVG/1.1/DTD/svg11.dtd">
<svg version="1.1" id="Layer_1" xmlns="http://www.w3.org/2000/svg" xmlns:xlink="http://www.w3.org/1999/xlink" x="0px" y="0px"
	 width="167.22px" height="167.221px" viewBox="0 0 167.22 167.221" enable-background="new 0 0 167.22 167.221"
	 xml:space="preserve">
<g>
	<path fill="#FFFFFF" stroke="#FFFFFF" stroke-width="0.75" stroke-miterlimit="10" d="M143.157,166.846H24.062
		c-13.16,0-23.688-10.528-23.688-23.688V24.062c0-13.16,10.528-23.688,23.688-23.688h119.095c13.16,0,23.688,10.528,23.688,23.688
		v119.096C166.845,156.317,156.317,166.846,143.157,166.846 M24.062,6.297c-9.87,0-17.766,7.896-17.766,17.766v119.096
		c0,9.869,7.896,17.766,17.766,17.766h119.095c9.87,0,17.766-7.896,17.766-17.766V24.062c0-9.87-7.896-17.766-17.766-17.766H24.062z
		"/>
	
		<rect x="77.363" y="35.174" transform="matrix(-0.978 0.2084 -0.2084 -0.978 174.5782 119.7247)" fill="#FFFFFF" stroke="#FFFFFF" stroke-width="0.25" stroke-miterlimit="10" width="7.238" height="67.769"/>
	
		<rect x="62.668" y="74.162" transform="matrix(-0.8197 0.5728 -0.5728 -0.8197 213.9214 84.9331)" fill="#FFFFFF" stroke="#FFFFFF" stroke-width="0.25" stroke-miterlimit="10" width="61.851" height="3.947"/>
	<path fill="#FFFFFF" stroke="#FFFFFF" stroke-width="0.75" stroke-miterlimit="10" d="M88.545,29.327
		c0,2.632-1.974,4.606-4.606,4.606c-2.632,0-4.606-1.974-4.606-4.606s1.974-4.606,4.606-4.606
		C86.571,24.721,88.545,26.695,88.545,29.327"/>
	<path fill="#FFFFFF" stroke="#FFFFFF" stroke-width="0.75" stroke-miterlimit="10" d="M29.984,78.675
		c2.632,0,4.605,1.974,4.605,4.606s-1.974,5.265-4.605,5.265c-2.632,0-4.606-1.975-4.606-4.606S27.352,78.675,29.984,78.675"/>
	<path fill="#FFFFFF" stroke="#FFFFFF" stroke-width="0.75" stroke-miterlimit="10" d="M78.675,137.236
		c0-2.632,1.974-4.606,4.605-4.606c2.632,0,4.606,1.975,4.606,4.606s-1.974,4.605-4.606,4.605
		C81.307,141.842,78.675,139.868,78.675,137.236"/>
	<path fill="#FFFFFF" stroke="#FFFFFF" stroke-width="0.75" stroke-miterlimit="10" d="M137.894,88.546
		c-2.632,0-4.605-1.975-4.605-4.606s1.974-4.606,4.605-4.606c2.633,0,4.605,1.974,4.605,4.606
		C142.499,85.913,140.526,88.546,137.894,88.546"/>
	<circle fill="none" stroke="#FFFFFF" stroke-width="5" stroke-miterlimit="10" cx="83.939" cy="83.281" r="64.482"/>
</g>
</svg>
