<?xml version="1.0" encoding="utf-8"?>
<!-- Generator: Adobe Illustrator 16.0.4, SVG Export Plug-In . SVG Version: 6.00 Build 0)  -->
<!DOCTYPE svg PUBLIC "-//W3C//DTD SVG 1.1//EN" "http://www.w3.org/Graphics/SVG/1.1/DTD/svg11.dtd">
<svg version="1.1" id="Layer_1" xmlns="http://www.w3.org/2000/svg" xmlns:xlink="http://www.w3.org/1999/xlink" x="0px" y="0px"
	 width="67.264px" height="53.97px" viewBox="0 0 67.264 53.97" enable-background="new 0 0 67.264 53.97" xml:space="preserve">
<g>
	<defs>
		<rect id="SVGID_1_" x="-271.824" y="-368.736" width="612" height="792"/>
	</defs>
	<clipPath id="SVGID_2_">
		<use xlink:href="#SVGID_1_"  overflow="visible"/>
	</clipPath>
	<path clip-path="url(#SVGID_2_)" fill="none" stroke="#FFFFFF" stroke-width="0.5" stroke-miterlimit="10" d="M37.634,13.709
		c0-2.187-1.773-3.959-3.959-3.959c-2.187,0-3.959,1.772-3.959,3.959c0,0.214,0.016,0.423,0.049,0.627
		c0.026,0.167,0.063,0.329,0.109,0.487c0.751,2.768,2.794,7.291,3.473,8.654h0.002c0.059,0.121,0.182,0.204,0.326,0.204
		c0.143,0,0.267-0.083,0.327-0.204c0.679-1.363,2.722-5.886,3.473-8.654h-0.001C37.576,14.47,37.634,14.096,37.634,13.709z"/>
	<path clip-path="url(#SVGID_2_)" fill="none" stroke="#FFFFFF" stroke-miterlimit="10" d="M40.021,25.539H27.418
		c-1.382,0-2.507-1.125-2.507-2.507V10.428c0-1.382,1.125-2.506,2.507-2.506h12.603c1.382,0,2.506,1.124,2.506,2.506v12.603
		C42.527,24.414,41.403,25.539,40.021,25.539z M27.418,8.572c-1.023,0-1.856,0.833-1.856,1.856v12.603
		c0,1.023,0.833,1.856,1.856,1.856h12.603c1.022,0,1.855-0.833,1.855-1.856V10.428c0-1.023-0.833-1.856-1.855-1.856H27.418z"/>
	<path clip-path="url(#SVGID_2_)" fill="#FFFFFF" d="M63.555,47.108H3.71c-2.049,0-3.71-1.66-3.71-3.709V3.709
		C0,1.661,1.661,0,3.71,0h59.845c2.048,0,3.709,1.661,3.709,3.709v39.69C67.264,45.448,65.603,47.108,63.555,47.108 M64.334,3.088
		H3.009v41.09h61.325V3.088z"/>
	<path clip-path="url(#SVGID_2_)" fill="#FFFFFF" d="M41.842,46.478v3.712c0.813,0.951,1.661,1.982,2.165,2.612
		c0.966,1.206-0.32,1.168-1.271,1.168H24.612c-0.951,0-2.237,0.038-1.272-1.168c0.504-0.63,1.352-1.661,2.165-2.612v-3.712H41.842z"
		/>
	<polygon clip-path="url(#SVGID_2_)" fill="#FFFFFF" points="11.862,27.687 11.862,33.833 11.269,33.833 7.089,28.77 7.08,28.77 
		7.08,33.833 6.449,33.833 6.449,27.687 7.042,27.687 11.222,32.75 11.231,32.75 11.231,27.687 	"/>
	<polygon clip-path="url(#SVGID_2_)" fill="#FFFFFF" points="15.966,31.405 13.688,31.405 13.688,33.278 17.623,33.278 
		17.623,33.834 13.066,33.834 13.066,28.703 17.443,28.703 17.443,29.259 13.688,29.259 13.688,30.85 15.966,30.85 	"/>
	<polygon clip-path="url(#SVGID_2_)" fill="#FFFFFF" points="18.629,28.704 20.041,32.997 20.088,32.997 21.528,28.704 
		22.027,28.704 23.477,32.997 23.514,32.997 24.936,28.704 25.595,28.704 23.835,33.833 23.176,33.833 21.792,29.777 21.745,29.777 
		20.361,33.833 19.702,33.833 17.932,28.704 	"/>
	<path clip-path="url(#SVGID_2_)" fill="#FFFFFF" d="M27.27,33.833l2.852-6.146h0.621l2.852,6.146h-0.687l-0.913-1.996h-3.172
		l-0.904,1.996H27.27z M29.058,31.33h2.711l-1.327-2.909h-0.057L29.058,31.33z"/>
	<polygon clip-path="url(#SVGID_2_)" fill="#FFFFFF" points="38.48,28.704 35.938,33.833 35.336,33.833 32.785,28.704 33.5,28.704 
		35.628,33.099 35.685,33.099 37.812,28.704 	"/>
	<polygon clip-path="url(#SVGID_2_)" fill="#FFFFFF" points="42.048,31.405 39.77,31.405 39.77,33.278 43.704,33.278 43.704,33.834 
		39.148,33.834 39.148,28.703 43.525,28.703 43.525,29.259 39.77,29.259 39.77,30.85 42.048,30.85 	"/>
	<polygon clip-path="url(#SVGID_2_)" fill="#FFFFFF" points="49.521,28.704 49.521,33.833 48.938,33.833 45.313,29.702 
		45.304,29.702 45.304,33.833 44.684,33.833 44.684,28.704 45.257,28.704 48.881,32.845 48.891,32.845 48.891,28.704 	"/>
	<path clip-path="url(#SVGID_2_)" fill="#FFFFFF" d="M55.404,28.704v3.359c0,1.216-1.026,1.922-2.392,1.922
		s-2.391-0.706-2.391-1.922v-3.359h0.621v3.359c0,0.866,0.771,1.366,1.77,1.366c1.007,0,1.771-0.5,1.771-1.366v-3.359H55.404z"/>
	<polygon clip-path="url(#SVGID_2_)" fill="#FFFFFF" points="59.451,31.405 57.173,31.405 57.173,33.278 61.086,33.278 
		61.086,33.834 56.552,33.834 56.552,28.703 60.929,28.703 60.929,29.259 57.173,29.259 57.173,30.85 59.451,30.85 	"/>
	<path clip-path="url(#SVGID_2_)" fill="#FFFFFF" d="M6.451,38.466v-2.98h1.274c0.64,0,0.996,0.178,1.302,0.467
		c0.267,0.262,0.417,0.623,0.417,1.023s-0.15,0.768-0.429,1.04c-0.305,0.278-0.661,0.45-1.29,0.45H6.451z M7.714,38.216
		c0.54,0,0.818-0.145,1.073-0.373c0.228-0.222,0.362-0.533,0.362-0.867s-0.128-0.634-0.345-0.856c-0.261-0.233-0.539-0.39-1.09-0.39
		H6.735v2.486H7.714z"/>
	<polygon clip-path="url(#SVGID_2_)" fill="#FFFFFF" points="15.295,37.009 13.932,37.009 13.932,38.216 16.28,38.216 16.28,38.466 
		13.649,38.466 13.649,35.486 16.174,35.486 16.174,35.731 13.932,35.731 13.932,36.759 15.295,36.759 	"/>
	<polygon clip-path="url(#SVGID_2_)" fill="#FFFFFF" points="23.138,35.486 23.138,38.466 22.871,38.466 20.641,35.919 
		20.634,35.919 20.634,38.466 20.352,38.466 20.352,35.486 20.624,35.486 22.854,38.028 22.859,38.028 22.859,35.486 	"/>
	<polygon clip-path="url(#SVGID_2_)" fill="#FFFFFF" points="27.12,35.486 29.851,35.486 29.851,35.731 28.627,35.731 
		28.627,38.466 28.349,38.466 28.349,35.731 27.12,35.731 	"/>
	<rect x="33.833" y="35.486" clip-path="url(#SVGID_2_)" fill="#FFFFFF" width="0.284" height="2.981"/>
	<path clip-path="url(#SVGID_2_)" fill="#FFFFFF" d="M40.88,36.042c-0.194-0.167-0.623-0.389-1.212-0.389
		c-0.445,0-0.957,0.161-0.957,0.6c0,0.435,0.589,0.456,1.141,0.49c0.545,0.027,1.44,0.077,1.44,0.84c0,0.667-0.673,0.962-1.44,0.962
		c-0.784,0-1.269-0.316-1.597-0.611l0.172-0.195c0.284,0.245,0.724,0.562,1.431,0.562c0.616,0,1.15-0.223,1.15-0.685
		c0-0.517-0.629-0.579-1.156-0.605c-0.668-0.039-1.425-0.078-1.425-0.74c0-0.651,0.701-0.862,1.246-0.862
		c0.641,0,1.146,0.256,1.385,0.445L40.88,36.042z"/>
	<polygon clip-path="url(#SVGID_2_)" fill="#FFFFFF" points="44.885,35.486 47.616,35.486 47.616,35.731 46.392,35.731 
		46.392,38.466 46.113,38.466 46.113,35.731 44.885,35.731 	"/>
	<path clip-path="url(#SVGID_2_)" fill="#FFFFFF" d="M51.598,38.467v-2.982h1.736c0.449,0,0.688,0.112,0.884,0.302
		c0.139,0.144,0.228,0.333,0.228,0.545c0,0.423-0.3,0.751-0.79,0.812l0.808,1.324H54.14l-0.773-1.285h-1.484v1.285H51.598z
		 M51.882,35.73v1.202h1.58c0.428,0,0.699-0.272,0.699-0.601c0-0.14-0.055-0.273-0.154-0.378c-0.162-0.151-0.323-0.224-0.673-0.224
		H51.882z"/>
	<polygon clip-path="url(#SVGID_2_)" fill="#FFFFFF" points="61.092,35.486 59.791,37.048 59.791,38.466 59.507,38.466 
		59.507,37.048 58.205,35.486 58.556,35.486 59.657,36.792 60.764,35.486 	"/>
	<path clip-path="url(#SVGID_2_)" fill="#FFFFFF" d="M35.919,12.446c-0.452-0.974-1.347-0.453-2.243-0.436
		c-0.896-0.017-1.792-0.538-2.243,0.436c-0.534,1.167,0.33,1.923,0.465,3.164c0.135,1.242,0.332,1.654,0.601,1.648
		c0.312-0.008,0.504-0.45,0.735-1.202c0.158-0.512,0.302-0.648,0.442-0.648c0.139,0,0.284,0.136,0.441,0.648
		c0.232,0.752,0.424,1.194,0.736,1.202c0.27,0.006,0.467-0.406,0.601-1.648C35.588,14.37,36.45,13.609,35.919,12.446"/>
</g>
</svg>
