<?xml version="1.0" encoding="utf-8"?>
<!-- Generator: Adobe Illustrator 16.0.4, SVG Export Plug-In . SVG Version: 6.00 Build 0)  -->
<!DOCTYPE svg PUBLIC "-//W3C//DTD SVG 1.1//EN" "http://www.w3.org/Graphics/SVG/1.1/DTD/svg11.dtd">
<svg version="1.1" id="Layer_1" xmlns="http://www.w3.org/2000/svg" xmlns:xlink="http://www.w3.org/1999/xlink" x="0px" y="0px"
	 width="167.22px" height="167.221px" viewBox="0 0 167.22 167.221" enable-background="new 0 0 167.22 167.221"
	 xml:space="preserve">
<path fill="#FFFFFF" stroke="#FFFFFF" stroke-width="0.75" stroke-miterlimit="10" d="M143.158,166.846H24.063
	c-13.16,0-23.688-10.528-23.688-23.688V24.062c0-13.16,10.528-23.688,23.688-23.688h119.095c13.16,0,23.688,10.528,23.688,23.688
	v119.096C166.845,156.317,156.318,166.846,143.158,166.846 M24.063,6.297c-9.87,0-17.766,7.896-17.766,17.766v119.096
	c0,9.869,7.896,17.766,17.766,17.766h119.095c9.87,0,17.766-7.896,17.766-17.766V24.062c0-9.87-7.896-17.766-17.766-17.766H24.063z"
	/>
<polygon fill="#FFFFFF" stroke="#FFFFFF" stroke-width="0.25" stroke-miterlimit="10" points="149.738,81.965 129.34,81.965 
	129.34,73.412 147.764,73.412 "/>
<path fill="#FFFFFF" stroke="#FFFFFF" stroke-width="0.25" stroke-miterlimit="10" d="M145.79,81.965
	c-4.605-29.609-30.925-51.981-61.192-51.981S28.668,52.356,23.405,81.965h-5.264c5.264-32.241,33.557-57.245,66.456-57.245
	s61.192,24.345,66.456,57.245H145.79z"/>
<rect x="79.333" y="27.353" fill="#FFFFFF" stroke="#FFFFFF" stroke-width="0.75" stroke-miterlimit="10" width="8.554" height="21.713"/>
<rect x="43.011" y="41.465" transform="matrix(-0.7105 0.7037 -0.7037 -0.7105 112.4759 53.1056)" fill="#FFFFFF" stroke="#FFFFFF" stroke-width="0.25" stroke-miterlimit="10" width="4.606" height="16.449"/>
<rect x="112.795" y="47.424" transform="matrix(-0.7034 0.7108 -0.7108 -0.7034 241.4901 -1.318)" fill="#FFFFFF" stroke="#FFFFFF" stroke-width="0.25" stroke-miterlimit="10" width="16.449" height="4.606"/>
<polygon fill="#FFFFFF" stroke="#FFFFFF" stroke-width="0.25" stroke-miterlimit="10" points="38.539,81.965 18.141,81.965 
	21.431,73.412 38.539,73.412 "/>
<path fill="#FFFFFF" stroke="#FFFFFF" stroke-width="0.75" stroke-miterlimit="10" d="M91.177,89.861
	c0,3.948-3.29,7.896-7.896,7.896c-3.948,0-7.896-3.289-7.896-7.896c0-3.948,3.29-7.896,7.896-7.896
	C87.887,81.965,91.177,85.255,91.177,89.861"/>
<path fill="#FFFFFF" stroke="#FFFFFF" stroke-width="0.5" stroke-miterlimit="10" d="M84.597,91.177c-0.658,0-1.315,0-1.315-0.658
	c-0.658-0.657-0.658-1.973,0.657-2.631l44.085-30.268c0.658-0.658,1.975-0.658,2.633,0.658c0.657,0.658,0.657,1.974-0.658,2.632
	L85.914,91.177C85.255,91.177,85.255,91.177,84.597,91.177"/>
<polygon fill="#FFFFFF" stroke="#FFFFFF" stroke-width="0.25" stroke-miterlimit="10" points="35.249,86.571 35.249,90.519 
	24.063,90.519 24.063,94.468 33.932,94.468 33.932,98.415 24.063,98.415 24.063,103.021 35.249,103.021 35.249,106.969 
	19.457,106.969 19.457,86.571 "/>
<polygon fill="#FFFFFF" stroke="#FFFFFF" stroke-width="0.25" stroke-miterlimit="10" points="147.764,86.571 147.764,90.519 
	137.894,90.519 137.894,95.125 146.448,95.125 146.448,98.415 137.894,98.415 137.894,106.969 133.289,106.969 133.289,86.571 "/>
</svg>
