<?xml version="1.0" encoding="utf-8"?>
<!-- Generator: Adobe Illustrator 16.0.4, SVG Export Plug-In . SVG Version: 6.00 Build 0)  -->
<!DOCTYPE svg PUBLIC "-//W3C//DTD SVG 1.1//EN" "http://www.w3.org/Graphics/SVG/1.1/DTD/svg11.dtd">
<svg version="1.1" id="Layer_1" xmlns="http://www.w3.org/2000/svg" xmlns:xlink="http://www.w3.org/1999/xlink" x="0px" y="0px"
	 width="60.582px" height="65.658px" viewBox="0 0 60.582 65.658" enable-background="new 0 0 60.582 65.658" xml:space="preserve">
<g>
	<defs>
		<rect id="SVGID_1_" x="-275.123" y="-362.607" width="612" height="792"/>
	</defs>
	<clipPath id="SVGID_2_">
		<use xlink:href="#SVGID_1_"  overflow="visible"/>
	</clipPath>
	<path clip-path="url(#SVGID_2_)" fill="#FFFFFF" d="M35.761,0c-5.443,0-10.474,1.432-14.565,3.858H6.219
		C2.784,3.858,0,6.643,0,10.078v49.36c0,3.436,2.784,6.22,6.219,6.22h23.324c3.434,0,6.22-2.784,6.22-6.22V40.564
		c0.075-0.006,0.147-0.013,0.223-0.017c0.365-0.004,1.513-0.039,1.688-0.059c12.816-0.798,22.909-9.543,22.909-20.215
		C60.582,9.076,49.467,0,35.761,0 M12.787,6.365h4.918c-0.804,0.697-1.549,1.439-2.227,2.223h-2.691
		c-0.615,0-1.111-0.497-1.111-1.111C11.676,6.864,12.172,6.365,12.787,6.365 M20.158,61.852h-4.554
		c-1.045,0-1.891-0.847-1.891-1.892c0-1.044,0.846-1.891,1.891-1.891h4.554c1.044,0,1.891,0.847,1.891,1.891
		C22.049,61.005,21.202,61.852,20.158,61.852 M33.108,55.054H2.653V11.128h10.954c-1.703,2.747-2.664,5.855-2.664,9.146
		c0,5.399,2.584,10.303,6.796,13.939l-0.08,0.004c2.666,2.801,1.739,4.395,1.388,6.052l-3.195,6.665c0,0,4.91-4.788,17.256-6.142
		V55.054z M37.511,37.885l-0.14,0.014c0.014-0.002,0.035-0.005,0.06-0.006c-0.181,0.013-1.131,0.044-1.473,0.047l-0.127,0.005
		c-6.125,0.361-10.803,1.539-14.226,2.836c0.037-0.171,0.082-0.341,0.127-0.513c0.423-1.635,1.131-4.369-2.185-7.85l-0.103-0.179
		c-3.8-3.28-5.892-7.53-5.892-11.965c0-9.741,9.963-17.666,22.209-17.666c12.248,0,22.212,7.925,22.212,17.666
		C57.973,29.435,48.985,37.171,37.511,37.885"/>
	<polygon clip-path="url(#SVGID_2_)" fill="#FFFFFF" points="27.819,7.759 28.858,7.759 31.424,11.898 31.439,11.898 31.439,7.759 
		32.376,7.759 32.376,13.377 31.337,13.377 28.779,9.246 28.756,9.246 28.756,13.377 27.819,13.377 	"/>
	<path clip-path="url(#SVGID_2_)" fill="#FFFFFF" d="M34.076,11.576c0,0.157,0.021,0.309,0.066,0.456s0.111,0.275,0.201,0.386
		c0.089,0.11,0.201,0.198,0.338,0.263c0.137,0.066,0.299,0.099,0.488,0.099c0.262,0,0.473-0.057,0.633-0.17
		c0.16-0.112,0.279-0.281,0.358-0.507h0.85c-0.047,0.22-0.128,0.417-0.244,0.59c-0.115,0.173-0.254,0.318-0.417,0.437
		c-0.162,0.118-0.345,0.207-0.547,0.267c-0.202,0.061-0.413,0.091-0.633,0.091c-0.32,0-0.604-0.053-0.851-0.157
		c-0.246-0.106-0.455-0.252-0.625-0.442c-0.172-0.188-0.299-0.414-0.386-0.676s-0.13-0.551-0.13-0.866
		c0-0.288,0.046-0.562,0.138-0.822c0.092-0.26,0.223-0.488,0.394-0.685c0.17-0.196,0.376-0.352,0.617-0.467
		c0.242-0.117,0.515-0.174,0.819-0.174c0.319,0,0.606,0.067,0.861,0.201c0.254,0.134,0.466,0.311,0.634,0.531
		c0.167,0.22,0.289,0.473,0.365,0.759s0.096,0.581,0.06,0.886H34.076z M36.169,10.985c-0.011-0.142-0.041-0.277-0.091-0.409
		c-0.05-0.131-0.117-0.245-0.204-0.342s-0.191-0.176-0.314-0.236c-0.124-0.061-0.262-0.091-0.413-0.091
		c-0.158,0-0.301,0.028-0.43,0.083c-0.128,0.055-0.238,0.131-0.33,0.228c-0.092,0.097-0.165,0.211-0.221,0.342
		c-0.055,0.132-0.085,0.274-0.09,0.425H36.169z"/>
	<polygon clip-path="url(#SVGID_2_)" fill="#FFFFFF" points="38.805,11.237 37.396,9.309 38.481,9.309 39.331,10.56 40.221,9.309 
		41.26,9.309 39.874,11.19 41.433,13.378 40.354,13.378 39.323,11.875 38.324,13.378 37.27,13.378 	"/>
	<path clip-path="url(#SVGID_2_)" fill="#FFFFFF" d="M41.487,9.309h0.677v-1.22h0.897v1.22h0.811v0.669h-0.811v2.172
		c0,0.095,0.004,0.176,0.012,0.244s0.026,0.126,0.056,0.173c0.028,0.047,0.071,0.083,0.13,0.106
		c0.058,0.024,0.136,0.035,0.235,0.035c0.063,0,0.126-0.001,0.189-0.003c0.062-0.003,0.126-0.012,0.188-0.028v0.693
		c-0.1,0.01-0.196,0.02-0.291,0.031c-0.095,0.011-0.191,0.015-0.291,0.015c-0.236,0-0.427-0.022-0.57-0.066
		c-0.145-0.045-0.258-0.11-0.339-0.197c-0.081-0.086-0.137-0.196-0.164-0.326c-0.03-0.131-0.047-0.281-0.053-0.449v-2.4h-0.677
		V9.309z"/>
	<path clip-path="url(#SVGID_2_)" fill="#FFFFFF" d="M21.108,19.015c0,0.11,0.014,0.189,0.043,0.236
		c0.029,0.047,0.085,0.071,0.169,0.071h0.095c0.036,0,0.078-0.005,0.126-0.016v0.622c-0.031,0.011-0.072,0.022-0.122,0.035
		c-0.05,0.014-0.102,0.025-0.153,0.036c-0.053,0.01-0.106,0.018-0.158,0.024c-0.052,0.005-0.097,0.007-0.133,0.007
		c-0.185,0-0.336-0.037-0.457-0.11c-0.12-0.073-0.2-0.202-0.237-0.386c-0.177,0.173-0.396,0.299-0.656,0.378
		c-0.26,0.079-0.511,0.118-0.752,0.118c-0.183,0-0.359-0.025-0.527-0.075c-0.168-0.05-0.316-0.123-0.445-0.219
		c-0.128-0.098-0.23-0.221-0.306-0.371c-0.076-0.149-0.114-0.324-0.114-0.523c0-0.252,0.045-0.456,0.137-0.613
		c0.092-0.159,0.212-0.282,0.363-0.37c0.149-0.089,0.316-0.154,0.502-0.194c0.187-0.039,0.374-0.069,0.563-0.09
		c0.163-0.031,0.317-0.053,0.465-0.067c0.146-0.013,0.276-0.035,0.389-0.066c0.113-0.032,0.202-0.081,0.268-0.146
		c0.065-0.065,0.098-0.164,0.098-0.295c0-0.116-0.028-0.21-0.082-0.284c-0.056-0.073-0.124-0.13-0.205-0.169
		s-0.172-0.065-0.272-0.078c-0.1-0.014-0.194-0.021-0.283-0.021c-0.252,0-0.459,0.053-0.621,0.159
		c-0.163,0.104-0.255,0.267-0.276,0.487H17.63c0.016-0.262,0.079-0.48,0.188-0.653c0.111-0.173,0.251-0.312,0.421-0.417
		c0.171-0.105,0.364-0.178,0.579-0.22c0.215-0.042,0.436-0.064,0.662-0.064c0.199,0,0.395,0.022,0.589,0.064
		c0.195,0.042,0.369,0.11,0.524,0.204c0.154,0.095,0.279,0.217,0.374,0.366c0.094,0.15,0.141,0.332,0.141,0.547V19.015z
		 M20.211,17.882c-0.137,0.089-0.305,0.143-0.504,0.161c-0.199,0.019-0.398,0.046-0.598,0.083c-0.094,0.016-0.186,0.038-0.275,0.067
		c-0.09,0.029-0.168,0.068-0.236,0.118c-0.069,0.05-0.122,0.115-0.161,0.197c-0.039,0.081-0.06,0.18-0.06,0.295
		c0,0.1,0.029,0.183,0.087,0.252c0.058,0.068,0.127,0.122,0.209,0.161c0.081,0.039,0.17,0.066,0.267,0.082
		c0.097,0.017,0.185,0.024,0.264,0.024c0.1,0,0.207-0.013,0.322-0.04c0.116-0.026,0.225-0.07,0.327-0.133s0.187-0.143,0.255-0.24
		c0.069-0.097,0.103-0.216,0.103-0.358V17.882z"/>
	<path clip-path="url(#SVGID_2_)" fill="#FFFFFF" d="M22.061,15.852h0.85v0.551h0.015c0.126-0.237,0.302-0.406,0.528-0.508
		c0.225-0.102,0.469-0.153,0.731-0.153c0.321,0,0.6,0.056,0.838,0.169c0.239,0.113,0.438,0.267,0.595,0.464
		c0.157,0.197,0.275,0.426,0.353,0.689c0.079,0.263,0.118,0.543,0.118,0.842c0,0.273-0.035,0.538-0.105,0.795
		c-0.071,0.256-0.179,0.484-0.323,0.68c-0.145,0.196-0.326,0.355-0.547,0.473c-0.22,0.117-0.48,0.177-0.779,0.177
		c-0.131,0-0.262-0.012-0.394-0.036c-0.131-0.024-0.257-0.062-0.377-0.114c-0.121-0.053-0.232-0.119-0.335-0.201
		c-0.102-0.081-0.187-0.177-0.256-0.287h-0.015v2.03h-0.897V15.852z M25.192,17.89c0-0.184-0.023-0.362-0.071-0.535
		c-0.047-0.173-0.118-0.326-0.212-0.46c-0.095-0.134-0.213-0.241-0.355-0.323c-0.141-0.081-0.304-0.122-0.488-0.122
		c-0.377,0-0.662,0.131-0.853,0.393c-0.192,0.263-0.288,0.611-0.288,1.047c0,0.205,0.025,0.395,0.076,0.57
		c0.049,0.176,0.124,0.327,0.223,0.453c0.1,0.126,0.219,0.226,0.359,0.299c0.138,0.074,0.299,0.111,0.483,0.111
		c0.205,0,0.378-0.042,0.52-0.126c0.141-0.084,0.258-0.194,0.35-0.328c0.092-0.133,0.157-0.285,0.196-0.456
		C25.172,18.243,25.192,18.069,25.192,17.89"/>
	<path clip-path="url(#SVGID_2_)" fill="#FFFFFF" d="M26.828,15.852h0.85v0.551h0.015c0.126-0.237,0.302-0.406,0.528-0.508
		c0.225-0.102,0.469-0.153,0.731-0.153c0.321,0,0.6,0.056,0.838,0.169c0.239,0.113,0.438,0.267,0.595,0.464
		c0.157,0.197,0.275,0.426,0.353,0.689c0.079,0.263,0.118,0.543,0.118,0.842c0,0.273-0.035,0.538-0.105,0.795
		c-0.071,0.256-0.179,0.484-0.323,0.68c-0.145,0.196-0.326,0.355-0.547,0.473c-0.22,0.117-0.48,0.177-0.779,0.177
		c-0.131,0-0.262-0.012-0.394-0.036c-0.131-0.024-0.257-0.062-0.377-0.114c-0.121-0.053-0.232-0.119-0.335-0.201
		c-0.102-0.081-0.187-0.177-0.256-0.287h-0.015v2.03h-0.897V15.852z M29.96,17.89c0-0.184-0.023-0.362-0.071-0.535
		c-0.047-0.173-0.118-0.326-0.212-0.46c-0.095-0.134-0.213-0.241-0.355-0.323c-0.141-0.081-0.304-0.122-0.488-0.122
		c-0.377,0-0.662,0.131-0.853,0.393c-0.192,0.263-0.288,0.611-0.288,1.047c0,0.205,0.025,0.395,0.076,0.57
		c0.049,0.176,0.124,0.327,0.223,0.453c0.1,0.126,0.219,0.226,0.359,0.299c0.138,0.074,0.299,0.111,0.483,0.111
		c0.205,0,0.378-0.042,0.52-0.126c0.141-0.084,0.258-0.194,0.35-0.328c0.092-0.133,0.157-0.285,0.196-0.456
		C29.94,18.243,29.96,18.069,29.96,17.89"/>
	<path clip-path="url(#SVGID_2_)" fill="#FFFFFF" d="M31.163,15.852h0.677v-1.22h0.897v1.22h0.811v0.669h-0.811v2.172
		c0,0.095,0.004,0.176,0.012,0.244s0.026,0.126,0.056,0.173c0.028,0.047,0.071,0.083,0.129,0.106
		c0.059,0.024,0.137,0.035,0.236,0.035c0.063,0,0.126-0.001,0.189-0.003c0.062-0.003,0.126-0.012,0.188-0.028v0.693
		c-0.1,0.01-0.197,0.02-0.291,0.031c-0.095,0.011-0.191,0.015-0.291,0.015c-0.236,0-0.427-0.022-0.57-0.066
		c-0.145-0.045-0.258-0.11-0.339-0.197c-0.082-0.086-0.137-0.196-0.165-0.326c-0.029-0.131-0.046-0.281-0.052-0.449v-2.4h-0.677
		V15.852z"/>
	<polygon clip-path="url(#SVGID_2_)" fill="#FFFFFF" points="36.412,14.302 37.797,14.302 39.348,18.7 39.363,18.7 40.874,14.302 
		42.243,14.302 42.243,19.92 41.307,19.92 41.307,15.584 41.291,15.584 39.733,19.92 38.923,19.92 37.364,15.584 37.35,15.584 
		37.35,19.92 36.412,19.92 	"/>
	<path clip-path="url(#SVGID_2_)" fill="#FFFFFF" d="M45.122,20.031c-0.325,0-0.615-0.054-0.869-0.161
		c-0.255-0.108-0.47-0.256-0.646-0.445s-0.31-0.414-0.401-0.677c-0.092-0.262-0.138-0.551-0.138-0.865
		c0-0.31,0.046-0.596,0.138-0.858c0.092-0.263,0.226-0.488,0.401-0.677s0.391-0.337,0.646-0.445
		c0.254-0.107,0.544-0.161,0.869-0.161s0.615,0.054,0.87,0.161c0.254,0.108,0.469,0.256,0.645,0.445s0.31,0.414,0.401,0.677
		c0.092,0.262,0.138,0.548,0.138,0.858c0,0.314-0.046,0.603-0.138,0.865c-0.092,0.263-0.226,0.488-0.401,0.677
		s-0.391,0.337-0.645,0.445C45.737,19.977,45.447,20.031,45.122,20.031 M45.122,19.323c0.199,0,0.373-0.042,0.52-0.126
		s0.268-0.194,0.362-0.331c0.094-0.136,0.164-0.29,0.208-0.46c0.045-0.171,0.067-0.345,0.067-0.523c0-0.173-0.022-0.347-0.067-0.52
		c-0.044-0.173-0.114-0.326-0.208-0.46c-0.095-0.134-0.216-0.243-0.362-0.327c-0.146-0.083-0.32-0.126-0.52-0.126
		s-0.372,0.043-0.521,0.126c-0.146,0.084-0.267,0.193-0.36,0.327c-0.095,0.134-0.164,0.287-0.209,0.46s-0.066,0.347-0.066,0.52
		c0,0.178,0.021,0.352,0.066,0.523c0.045,0.17,0.114,0.324,0.209,0.46c0.094,0.137,0.215,0.247,0.36,0.331
		C44.75,19.281,44.923,19.323,45.122,19.323"/>
	<path clip-path="url(#SVGID_2_)" fill="#FFFFFF" d="M47.884,15.852h0.851v0.598l0.016,0.016c0.136-0.225,0.314-0.403,0.535-0.531
		c0.22-0.129,0.464-0.193,0.731-0.193c0.446,0,0.798,0.115,1.055,0.346c0.257,0.231,0.386,0.577,0.386,1.038v2.794H50.56v-2.557
		c-0.011-0.32-0.078-0.552-0.204-0.697c-0.126-0.144-0.324-0.216-0.591-0.216c-0.152,0-0.288,0.028-0.409,0.083
		c-0.12,0.054-0.223,0.131-0.307,0.228c-0.084,0.097-0.149,0.211-0.196,0.342c-0.048,0.132-0.072,0.27-0.072,0.417v2.4h-0.896
		V15.852z"/>
	<path clip-path="url(#SVGID_2_)" fill="#FFFFFF" d="M52.433,18.858h1.094v1.062c-0.005,0.326-0.104,0.598-0.299,0.819
		c-0.194,0.221-0.448,0.362-0.764,0.425v-0.48c0.174-0.042,0.303-0.138,0.39-0.287c0.087-0.15,0.127-0.309,0.122-0.477h-0.543
		V18.858z"/>
	<polygon clip-path="url(#SVGID_2_)" fill="#FFFFFF" points="24.546,20.844 25.931,20.844 27.482,25.242 27.497,25.242 
		29.008,20.844 30.377,20.844 30.377,26.462 29.441,26.462 29.441,22.126 29.425,22.126 27.867,26.462 27.057,26.462 25.498,22.126 
		25.483,22.126 25.483,26.462 24.546,26.462 	"/>
	<path clip-path="url(#SVGID_2_)" fill="#FFFFFF" d="M34.799,25.557c0,0.11,0.015,0.189,0.044,0.236
		c0.028,0.047,0.085,0.071,0.169,0.071h0.095c0.036,0,0.078-0.005,0.126-0.016v0.622c-0.031,0.011-0.072,0.022-0.122,0.035
		c-0.05,0.014-0.102,0.025-0.153,0.036c-0.053,0.01-0.105,0.018-0.158,0.024c-0.052,0.005-0.097,0.007-0.133,0.007
		c-0.185,0-0.336-0.037-0.457-0.11c-0.12-0.073-0.199-0.202-0.236-0.386c-0.178,0.173-0.396,0.299-0.656,0.378
		c-0.26,0.079-0.511,0.118-0.752,0.118c-0.184,0-0.359-0.025-0.527-0.075c-0.168-0.05-0.315-0.123-0.444-0.219
		c-0.129-0.098-0.23-0.221-0.307-0.371c-0.076-0.149-0.114-0.324-0.114-0.523c0-0.252,0.046-0.456,0.138-0.613
		c0.092-0.159,0.212-0.282,0.362-0.37c0.149-0.089,0.316-0.154,0.502-0.194c0.188-0.039,0.375-0.069,0.563-0.09
		c0.163-0.031,0.317-0.053,0.465-0.067c0.146-0.013,0.276-0.035,0.39-0.066c0.112-0.032,0.201-0.081,0.268-0.146
		c0.064-0.065,0.098-0.164,0.098-0.295c0-0.116-0.027-0.21-0.082-0.284c-0.056-0.073-0.124-0.13-0.205-0.169
		s-0.172-0.065-0.271-0.078c-0.1-0.014-0.194-0.021-0.283-0.021c-0.252,0-0.459,0.053-0.621,0.159
		c-0.163,0.104-0.255,0.267-0.275,0.487h-0.897c0.016-0.262,0.079-0.48,0.188-0.653c0.11-0.173,0.251-0.312,0.421-0.417
		c0.171-0.105,0.363-0.178,0.579-0.22c0.215-0.042,0.436-0.064,0.661-0.064c0.199,0,0.396,0.022,0.59,0.064s0.368,0.11,0.523,0.204
		c0.154,0.095,0.279,0.217,0.374,0.366c0.094,0.15,0.141,0.332,0.141,0.547V25.557z M33.902,24.424
		c-0.137,0.089-0.305,0.143-0.504,0.161c-0.199,0.019-0.398,0.046-0.598,0.083c-0.095,0.016-0.187,0.038-0.275,0.067
		c-0.09,0.029-0.168,0.068-0.236,0.118c-0.068,0.05-0.122,0.115-0.161,0.197c-0.039,0.081-0.06,0.18-0.06,0.295
		c0,0.1,0.029,0.183,0.087,0.252c0.058,0.068,0.127,0.122,0.209,0.161c0.081,0.039,0.17,0.066,0.267,0.082
		c0.098,0.017,0.186,0.024,0.265,0.024c0.1,0,0.207-0.013,0.322-0.04c0.115-0.026,0.225-0.07,0.326-0.133
		c0.103-0.063,0.188-0.143,0.255-0.24c0.069-0.097,0.104-0.216,0.104-0.358V24.424z"/>
	<path clip-path="url(#SVGID_2_)" fill="#FFFFFF" d="M35.278,22.394h0.983l1.062,3.037h0.016l1.031-3.037h0.937l-1.582,4.289
		c-0.073,0.184-0.146,0.359-0.216,0.527c-0.071,0.167-0.158,0.316-0.26,0.445c-0.103,0.128-0.229,0.23-0.382,0.306
		c-0.153,0.077-0.347,0.115-0.582,0.115c-0.21,0-0.417-0.016-0.622-0.047v-0.756c0.073,0.011,0.145,0.022,0.213,0.035
		c0.067,0.014,0.139,0.02,0.212,0.02c0.105,0,0.191-0.013,0.26-0.039c0.068-0.027,0.125-0.065,0.169-0.115
		c0.045-0.05,0.083-0.108,0.115-0.176c0.03-0.069,0.06-0.148,0.086-0.237l0.103-0.314L35.278,22.394z"/>
	<path clip-path="url(#SVGID_2_)" fill="#FFFFFF" d="M41.724,20.954h3.771v0.748c-0.29,0.325-0.552,0.662-0.788,1.011
		c-0.236,0.349-0.442,0.719-0.618,1.11c-0.176,0.391-0.318,0.804-0.429,1.239c-0.11,0.436-0.184,0.903-0.22,1.401h-0.984
		c0.032-0.436,0.106-0.865,0.225-1.291c0.118-0.425,0.271-0.836,0.456-1.236c0.187-0.398,0.403-0.781,0.649-1.148
		c0.247-0.367,0.512-0.711,0.795-1.031h-2.856V20.954z"/>
	<path clip-path="url(#SVGID_2_)" fill="#FFFFFF" d="M45.697,25.4h1.094v1.062c-0.005,0.326-0.104,0.598-0.299,0.819
		c-0.194,0.221-0.448,0.362-0.764,0.425v-0.48c0.174-0.042,0.303-0.138,0.39-0.287c0.087-0.15,0.127-0.309,0.122-0.477h-0.543V25.4z
		"/>
	<path clip-path="url(#SVGID_2_)" fill="#FFFFFF" d="M31.746,33.005h-3.762c0.006-0.456,0.116-0.855,0.331-1.196
		c0.215-0.341,0.509-0.637,0.881-0.889c0.179-0.132,0.364-0.259,0.559-0.382c0.194-0.123,0.373-0.256,0.535-0.397
		c0.163-0.142,0.297-0.295,0.401-0.46c0.106-0.166,0.16-0.356,0.165-0.572c0-0.099-0.011-0.205-0.035-0.318
		c-0.023-0.112-0.069-0.218-0.137-0.314c-0.069-0.098-0.163-0.179-0.284-0.244c-0.121-0.066-0.278-0.099-0.471-0.099
		c-0.179,0-0.328,0.035-0.446,0.106c-0.118,0.071-0.212,0.168-0.283,0.291c-0.07,0.123-0.123,0.269-0.157,0.437
		s-0.054,0.349-0.059,0.543h-0.897c0-0.304,0.041-0.586,0.122-0.846c0.081-0.26,0.203-0.484,0.366-0.673
		c0.162-0.188,0.36-0.337,0.594-0.444c0.233-0.107,0.505-0.161,0.814-0.161c0.336,0,0.617,0.055,0.842,0.165
		c0.226,0.11,0.408,0.249,0.547,0.417s0.237,0.35,0.295,0.547c0.058,0.196,0.087,0.385,0.087,0.562c0,0.221-0.034,0.42-0.103,0.598
		c-0.068,0.179-0.16,0.343-0.275,0.492s-0.246,0.287-0.394,0.413c-0.146,0.126-0.298,0.244-0.457,0.355
		c-0.157,0.11-0.314,0.215-0.472,0.314c-0.158,0.1-0.303,0.199-0.437,0.299c-0.134,0.1-0.25,0.204-0.35,0.311
		c-0.099,0.108-0.167,0.222-0.205,0.342h2.684V33.005z"/>
	<path clip-path="url(#SVGID_2_)" fill="#FFFFFF" d="M32.51,28.937h0.85v0.551h0.016c0.126-0.237,0.302-0.406,0.527-0.508
		s0.469-0.153,0.731-0.153c0.32,0,0.6,0.056,0.838,0.169c0.239,0.113,0.438,0.267,0.595,0.464c0.157,0.197,0.275,0.426,0.354,0.689
		c0.078,0.263,0.117,0.543,0.117,0.842c0,0.273-0.034,0.538-0.104,0.795c-0.071,0.256-0.179,0.484-0.323,0.68
		c-0.145,0.196-0.326,0.355-0.547,0.473c-0.22,0.117-0.48,0.177-0.779,0.177c-0.131,0-0.262-0.012-0.394-0.036
		c-0.131-0.024-0.257-0.062-0.377-0.114c-0.121-0.053-0.232-0.119-0.335-0.201c-0.103-0.081-0.188-0.177-0.256-0.287h-0.016v2.03
		H32.51V28.937z M35.642,30.975c0-0.184-0.023-0.362-0.071-0.535c-0.047-0.173-0.118-0.326-0.212-0.46
		c-0.095-0.134-0.213-0.241-0.354-0.323c-0.142-0.081-0.305-0.122-0.488-0.122c-0.377,0-0.662,0.131-0.854,0.393
		c-0.191,0.263-0.287,0.611-0.287,1.047c0,0.205,0.024,0.395,0.075,0.57c0.05,0.176,0.124,0.327,0.224,0.453
		s0.219,0.226,0.358,0.299c0.139,0.074,0.299,0.111,0.483,0.111c0.205,0,0.378-0.042,0.52-0.126s0.259-0.194,0.351-0.328
		c0.092-0.133,0.157-0.285,0.195-0.456C35.621,31.328,35.642,31.154,35.642,30.975"/>
	<path clip-path="url(#SVGID_2_)" fill="#FFFFFF" d="M37.253,28.937h0.851v0.566h0.023c0.068-0.099,0.142-0.191,0.221-0.275
		c0.078-0.084,0.166-0.154,0.263-0.212c0.098-0.058,0.209-0.103,0.335-0.138c0.126-0.034,0.271-0.051,0.433-0.051
		c0.247,0,0.477,0.055,0.688,0.165c0.213,0.11,0.363,0.281,0.453,0.511c0.151-0.21,0.327-0.375,0.526-0.495
		c0.199-0.121,0.449-0.181,0.748-0.181c0.43,0,0.765,0.105,1.003,0.315c0.239,0.209,0.358,0.561,0.358,1.054v2.809h-0.897v-2.376
		c0-0.163-0.005-0.311-0.016-0.445c-0.01-0.134-0.04-0.249-0.09-0.346c-0.051-0.097-0.125-0.172-0.225-0.224
		c-0.1-0.053-0.236-0.079-0.409-0.079c-0.305,0-0.524,0.094-0.661,0.284c-0.137,0.188-0.204,0.456-0.204,0.802v2.384h-0.897v-2.612
		c0-0.283-0.051-0.497-0.153-0.642c-0.103-0.144-0.29-0.216-0.562-0.216c-0.116,0-0.228,0.024-0.335,0.071s-0.202,0.115-0.283,0.204
		c-0.081,0.09-0.146,0.2-0.196,0.331c-0.05,0.131-0.075,0.28-0.075,0.448v2.416h-0.897V28.937z"/>
</g>
</svg>
