<?xml version="1.0" encoding="utf-8"?>
<!-- Generator: Adobe Illustrator 16.0.4, SVG Export Plug-In . SVG Version: 6.00 Build 0)  -->
<!DOCTYPE svg PUBLIC "-//W3C//DTD SVG 1.1//EN" "http://www.w3.org/Graphics/SVG/1.1/DTD/svg11.dtd">
<svg version="1.1" id="Layer_1" xmlns="http://www.w3.org/2000/svg" xmlns:xlink="http://www.w3.org/1999/xlink" x="0px" y="0px"
	 width="167.22px" height="167.221px" viewBox="0 0 167.22 167.221" enable-background="new 0 0 167.22 167.221"
	 xml:space="preserve">
<path fill="#FFFFFF" stroke="#FFFFFF" stroke-width="0.75" stroke-miterlimit="10" d="M143.157,166.846H24.062
	c-13.16,0-23.688-10.528-23.688-23.688V24.062c0-13.16,10.527-23.688,23.688-23.688h119.095c13.16,0,23.688,10.528,23.688,23.688
	v119.096C166.845,156.317,155.659,166.846,143.157,166.846 M23.404,6.297c-9.87,0-17.766,7.896-17.766,17.766v119.096
	c0,9.869,7.896,17.766,17.766,17.766h119.095c9.87,0,17.766-7.896,17.766-17.766V24.062c0-9.87-7.896-17.766-17.766-17.766
	C143.157,6.297,23.404,6.297,23.404,6.297z"/>
<path fill="none" stroke="#FFFFFF" stroke-width="3" stroke-miterlimit="10" d="M133.945,40.512
	c-9.869-20.397-28.951-9.87-47.375-9.211c-19.081-0.658-38.163-11.186-47.375,9.211c-11.186,25.003,7.238,40.795,9.87,67.115
	S56.304,142.5,61.567,142.5c6.58,0,10.527-9.87,15.792-25.661c3.289-11.186,6.579-13.818,9.211-13.818s5.922,2.633,9.212,13.818
	c4.606,15.791,9.212,25.661,15.792,25.661c5.922,0,9.869-8.554,12.501-34.873C127.365,81.308,145.789,65.516,133.945,40.512z"/>
</svg>
