<?xml version="1.0" encoding="utf-8"?>
<!-- Generator: Adobe Illustrator 16.0.4, SVG Export Plug-In . SVG Version: 6.00 Build 0)  -->
<!DOCTYPE svg PUBLIC "-//W3C//DTD SVG 1.1//EN" "http://www.w3.org/Graphics/SVG/1.1/DTD/svg11.dtd">
<svg version="1.1" id="Layer_1" xmlns="http://www.w3.org/2000/svg" xmlns:xlink="http://www.w3.org/1999/xlink" x="0px" y="0px"
	 width="435.152px" height="79.69px" viewBox="0 0 435.152 79.69" enable-background="new 0 0 435.152 79.69" xml:space="preserve">
<circle fill="none" stroke="#FFFFFF" stroke-width="5" stroke-miterlimit="10" cx="169.53" cy="58.653" r="5.919"/>
<circle fill="none" stroke="#FFFFFF" stroke-width="5" stroke-miterlimit="10" cx="191.124" cy="58.653" r="5.919"/>
<circle fill="none" stroke="#FFFFFF" stroke-width="5" stroke-miterlimit="10" cx="212.718" cy="58.653" r="5.919"/>
<path fill="none" stroke="#FFFFFF" stroke-width="5" stroke-miterlimit="10" d="M264.491,58.631h26.504V2.5H145.182v56.131h11.636
	c0.011-7.001,5.709-12.691,12.712-12.691c4.559,0,8.553,2.419,10.798,6.034c2.244-3.615,6.238-6.034,10.797-6.034
	c4.558,0,8.552,2.419,10.797,6.032c2.244-3.613,6.238-6.032,10.797-6.032c7.003,0,12.701,5.69,12.712,12.691h25.016"/>
<line fill="#FFFFFF" stroke="#FFFFFF" stroke-width="5" stroke-linecap="round" stroke-linejoin="round" stroke-miterlimit="10" x1="291.086" y1="52.911" x2="296.366" y2="52.911"/>
<path fill="#FFFFFF" stroke="#FFFFFF" stroke-miterlimit="10" d="M422.264,2.991c4.917,0,8.915,3.961,8.915,8.832
	c0,4.87-3.998,8.836-8.915,8.836c-4.914,0-8.912-3.966-8.912-8.836C413.352,6.952,417.35,2.991,422.264,2.991 M422.264,18.898
	c3.94,0,7.146-3.172,7.146-7.075c0-3.9-3.205-7.076-7.146-7.076c-3.939,0-7.145,3.176-7.145,7.076
	C415.12,15.727,418.325,18.898,422.264,18.898"/>
<path fill="#FFFFFF" stroke="#FFFFFF" stroke-miterlimit="10" d="M399.183,25.729h15.115v-0.17c0-1.895,1.263-3.434,2.82-3.434h10.3
	c1.553,0,2.816,1.539,2.816,3.434v20.337c0,1.89-1.264,3.429-2.816,3.429h-10.297v0.014l-11.765-0.031v17.947
	c0.003,1.245-0.134,2.415-0.38,3.216c-0.069,0.221-0.225,0.408-0.428,0.518c-1.046,0.554-2.154,0.836-3.284,0.836h-0.044
	c-1.122,0-2.216-0.274-3.244-0.822c-0.207-0.104-0.359-0.289-0.427-0.507c-0.25-0.774-0.398-1.944-0.402-3.215l-0.033-19.041
	l-0.007-2.55v-0.003l0.011-0.139c0.003-0.018,0.008-0.035,0.012-0.054c0.289-1.734,1.292-3.299,2.766-4.31
	c0.022-0.018,0.044-0.035,0.069-0.05c0.138-0.091,0.301-0.146,0.474-0.149l6.45,0.019l7.409,0.019v-7.156h-15.115
	c-1.738,0-3.596-0.46-3.596-1.753v-4.635C395.587,26.188,397.445,25.729,399.183,25.729 M397.354,31.83
	c0.29,0.123,0.942,0.279,1.829,0.279h15.998c0.489,0,0.884,0.391,0.884,0.88v8.922c0,0.056-0.007,0.109-0.018,0.16
	c0,0.011-0.004,0.021-0.009,0.036c-0.003,0.021-0.01,0.04-0.018,0.061c-0.021,0.069-0.05,0.136-0.087,0.192
	c-0.04,0.062-0.083,0.117-0.13,0.167c-0.04,0.04-0.083,0.073-0.126,0.109h-0.004c-0.047,0.028-0.099,0.058-0.149,0.079
	c-0.104,0.044-0.224,0.068-0.348,0.068l-8.296-0.021l-6.142-0.019c-0.988,0.739-1.658,1.822-1.865,3.021l0.04,21.507
	c0.004,0.894,0.088,1.738,0.225,2.342c0.674,0.301,1.373,0.453,2.09,0.453c0.735-0.004,1.455-0.152,2.147-0.467
	c0.138-0.619,0.214-1.46,0.21-2.343v-18.81c0-0.486,0.397-0.88,0.884-0.88l0.633-0.022l11.835,0.036h0.003
	c0.058-0.011,0.116-0.018,0.178-0.018h10.3c0.494,0,1.05-0.713,1.05-1.669V25.559c0-0.96-0.556-1.673-1.05-1.673h-10.3
	c-0.5,0-1.054,0.713-1.054,1.673v1.05c0,0.485-0.395,0.876-0.884,0.876h-15.998c-0.887,0-1.539,0.156-1.829,0.279V31.83z"/>
<path fill="#FFFFFF" stroke="#FFFFFF" stroke-miterlimit="10" d="M409.021,51.45v19.493c0,0.489,0.398,0.881,0.888,0.881
	c0.484,0,0.884-0.392,0.884-0.881V52.326h22.089v18.617c0,0.489,0.398,0.881,0.887,0.881c0.489,0,0.884-0.392,0.884-0.881V25.449
	c0-0.484-0.395-0.88-0.884-0.88c-0.488,0-0.887,0.396-0.887,0.88V50.57h-22.973C409.419,50.57,409.021,50.965,409.021,51.45"/>
<path fill="#FFFFFF" stroke="#FFFFFF" stroke-miterlimit="10" d="M400.458,35.296h-33.476v35.647c0,0.489,0.396,0.881,0.885,0.881
	c0.487,0,0.884-0.392,0.884-0.881V37.052h21.412v33.892c0,0.489,0.394,0.881,0.883,0.881c0.49,0,0.884-0.392,0.884-0.881V37.052
	h8.528c0.489,0,0.887-0.394,0.887-0.88C401.344,35.687,400.947,35.296,400.458,35.296"/>
<path fill="#FFFFFF" stroke="#FFFFFF" stroke-miterlimit="10" d="M369.887,18.555l3.712,14.322c0.004,0.011,0.008,0.022,0.011,0.033
	c0.011,0.043,0.025,0.083,0.044,0.119c0.021,0.043,0.043,0.083,0.068,0.12v0.003c0.029,0.037,0.055,0.068,0.083,0.102
	c0.008,0.007,0.019,0.019,0.025,0.025c0.029,0.029,0.058,0.054,0.087,0.076c0.076,0.058,0.159,0.102,0.246,0.131
	c0.055,0.018,0.109,0.032,0.166,0.039c0.041,0.007,0.084,0.011,0.128,0.011h14.926c0.489,0,0.884-0.391,0.884-0.876
	c0-0.489-0.395-0.88-0.884-0.88h-14.238l-3.546-13.663c-0.122-0.471-0.604-0.749-1.074-0.63
	C370.05,17.606,369.764,18.084,369.887,18.555"/>
<path fill="none" stroke="#FFFFFF" stroke-miterlimit="10" d="M260.287,74.32c-0.669,0-1.184-0.206-1.53-0.613
	c-0.484-0.569-0.447-1.328-0.434-1.482V52.222h-1.811v19.94c0.014,0.159,0.057,0.927-0.427,1.498
	c-0.345,0.408-0.857,0.615-1.523,0.615c-0.665,0-1.186-0.205-1.549-0.609c-0.521-0.581-0.509-1.367-0.504-1.493V49.491l0.004-10.371
	c0,0-0.012-0.377-0.26-0.71c-0.989-1.332-4.501-5.799-7.065-9.06c-1.652-2.102-2.958-3.762-3.153-4.028
	c-0.36-0.494-0.516-1.108-0.426-1.687c0.074-0.469,0.306-0.863,0.654-1.109c0.431-0.305,0.838-0.454,1.246-0.454
	c0.63,0,1.225,0.362,1.768,1.075c0.91,1.194,7.063,8.335,7.944,9.356h9.075c0.871,0,1.571,0.802,2.028,2.317
	c0.246,0.818,3.478,11.027,3.757,11.874c0.318,0.957,0.134,1.601-0.077,1.972c-0.263,0.462-0.712,0.771-1.267,0.872
	c-0.098,0.018-0.198,0.026-0.295,0.026c-1.021,0-1.705-0.951-1.979-1.766c-0.191-0.562-1.446-4.352-2.253-6.787l0.026,31.21
	c0.016,0.158,0.058,0.916-0.422,1.482C261.471,74.113,260.957,74.32,260.287,74.32 M256.161,51.493h2.513
	c0.193,0,0.351,0.163,0.351,0.364v20.385c0,0.016-0.001,0.03-0.003,0.045c0,0.005-0.057,0.568,0.264,0.941
	c0.208,0.241,0.545,0.364,1.002,0.364c0.456,0,0.792-0.122,0.997-0.363c0.317-0.371,0.255-0.935,0.255-0.941
	c-0.002-0.014-0.003-0.03-0.003-0.046l-0.028-33.414c0-0.178,0.123-0.329,0.292-0.358s0.334,0.072,0.39,0.241
	c0.026,0.08,2.654,8.017,2.935,8.848c0.2,0.59,0.665,1.279,1.319,1.279c0.057,0,0.115-0.005,0.174-0.017
	c0.35-0.062,0.627-0.25,0.784-0.524c0.194-0.344,0.201-0.814,0.02-1.364c-0.282-0.848-3.519-11.074-3.766-11.894
	c-0.163-0.544-0.623-1.808-1.358-1.808h-9.231c-0.1,0-0.195-0.044-0.262-0.121c-0.289-0.335-7.087-8.213-8.076-9.512
	c-0.403-0.529-0.813-0.797-1.218-0.797c-0.263,0-0.541,0.105-0.852,0.326c-0.188,0.133-0.313,0.354-0.356,0.625
	c-0.06,0.376,0.051,0.799,0.293,1.129c0.187,0.256,1.554,1.995,3.137,4.009c2.567,3.264,6.082,7.735,7.077,9.075
	c0.391,0.525,0.405,1.09,0.406,1.152l-0.003,10.373v22.691c0,0.008-0.001,0.016-0.001,0.025c0,0.004-0.029,0.581,0.319,0.966
	c0.226,0.248,0.572,0.374,1.032,0.374c0.453,0,0.787-0.122,0.993-0.363c0.321-0.376,0.259-0.951,0.258-0.957
	c-0.001-0.014-0.003-0.031-0.003-0.045V51.857C255.81,51.656,255.967,51.493,256.161,51.493"/>
<path fill="#FFFFFF" stroke="#FFFFFF" stroke-miterlimit="10" d="M257.651,30.502c-3.081,0-5.587-2.603-5.587-5.801
	c0-3.199,2.506-5.803,5.587-5.803s5.587,2.604,5.587,5.803C263.238,27.899,260.732,30.502,257.651,30.502 M257.651,19.627
	c-2.693,0-4.886,2.275-4.886,5.074c0,2.797,2.192,5.072,4.886,5.072c2.694,0,4.886-2.275,4.886-5.072
	C262.537,21.902,260.345,19.627,257.651,19.627"/>
<g>
	<defs>
		<rect id="SVGID_1_" x="91.528" y="31.922" width="32.66" height="20.376"/>
	</defs>
	<clipPath id="SVGID_2_">
		<use xlink:href="#SVGID_1_"  overflow="visible"/>
	</clipPath>
	<polygon clip-path="url(#SVGID_2_)" fill="#FFFFFF" stroke="#FFFFFF" stroke-miterlimit="10" points="97.544,46.006 
		109.146,46.006 109.146,50.186 120.678,42.109 109.146,34.035 109.146,38.215 97.544,38.215 	"/>
</g>
<g>
	<defs>
		<rect id="SVGID_3_" x="316.219" y="35.229" width="32.66" height="20.376"/>
	</defs>
	<clipPath id="SVGID_4_">
		<use xlink:href="#SVGID_3_"  overflow="visible"/>
	</clipPath>
	<polygon clip-path="url(#SVGID_4_)" fill="#FFFFFF" stroke="#FFFFFF" stroke-miterlimit="10" points="322.236,49.313 
		333.837,49.313 333.837,53.493 345.37,45.417 333.837,37.343 333.837,41.522 322.236,41.522 	"/>
</g>
<text transform="matrix(1 0 0 1 87.4966 72.457)"><tspan x="0" y="0" fill="#FFFFFF" stroke="#FFFFFF" stroke-miterlimit="10" font-family="'Helvetica-Bold'" font-size="14">10</tspan><tspan x="15.572" y="0" fill="#FFFFFF" stroke="#FFFFFF" stroke-miterlimit="10" font-family="'Helvetica-Bold'" font-size="14"> </tspan><tspan x="18.958" y="0" fill="#FFFFFF" stroke="#FFFFFF" stroke-miterlimit="10" font-family="'Helvetica-Bold'" font-size="14">AM</tspan></text>
<text transform="matrix(1 0 0 1 311.6929 72.457)"><tspan x="0" y="0" fill="#FFFFFF" stroke="#FFFFFF" stroke-miterlimit="10" font-family="'Helvetica-Bold'" font-size="14">1</tspan><tspan x="7.03" y="0" fill="#FFFFFF" stroke="#FFFFFF" stroke-miterlimit="10" font-family="'Helvetica-Bold'" font-size="14">1</tspan><tspan x="14.816" y="0" fill="#FFFFFF" stroke="#FFFFFF" stroke-miterlimit="10" font-family="'Helvetica-Bold'" font-size="14"> </tspan><tspan x="18.202" y="0" fill="#FFFFFF" stroke="#FFFFFF" stroke-miterlimit="10" font-family="'Helvetica-Bold'" font-size="14">AM</tspan></text>
<text transform="matrix(1 0 0 1 5.396 -73.332)"><tspan x="0" y="0" fill="#FFFFFF" font-family="'Helvetica-Bold'" font-size="24">Dentistr</tspan><tspan x="90.68" y="0" fill="#FFFFFF" font-family="'Helvetica-Bold'" font-size="24" letter-spacing="-1">y</tspan><tspan x="102.275" y="0" fill="#FFFFFF" font-family="'Helvetica-Bold'" font-size="24">, Delivered to</tspan><tspan x="252.99" y="0" fill="#FFFFFF" font-family="'Helvetica-Bold'" font-size="24"> </tspan><tspan x="259.25" y="0" fill="#FFFFFF" font-family="'Helvetica-Bold'" font-size="24" letter-spacing="-1">Y</tspan><tspan x="273.506" y="0" fill="#FFFFFF" font-family="'Helvetica-Bold'" font-size="24">our </tspan><tspan x="318.834" y="0" fill="#FFFFFF" font-family="'Helvetica-Bold'" font-size="24">W</tspan><tspan x="341.078" y="0" fill="#FFFFFF" font-family="'Helvetica-Bold'" font-size="24">orkplace</tspan></text>
<path fill="#FFFFFF" stroke="#FFFFFF" stroke-miterlimit="10" d="M55.782,4.747c4.917,0,8.915,3.961,8.915,8.832
	s-3.998,8.836-8.915,8.836c-4.914,0-8.912-3.965-8.912-8.836S50.868,4.747,55.782,4.747 M55.782,20.655
	c3.94,0,7.145-3.172,7.145-7.076c0-3.899-3.205-7.076-7.145-7.076s-7.145,3.177-7.145,7.076
	C48.637,17.483,51.842,20.655,55.782,20.655"/>
<path fill="#FFFFFF" stroke="#FFFFFF" stroke-miterlimit="10" d="M32.701,27.484h15.115v-0.17c0-1.894,1.263-3.433,2.821-3.433
	h10.299c1.553,0,2.817,1.539,2.817,3.433v20.337c0,1.891-1.264,3.43-2.817,3.43H50.64v0.014l-11.765-0.032v17.948
	c0.003,1.245-0.134,2.415-0.38,3.215c-0.069,0.221-0.225,0.409-0.428,0.519c-1.046,0.554-2.154,0.836-3.284,0.836h-0.044
	c-1.122,0-2.216-0.275-3.244-0.822c-0.207-0.105-0.359-0.289-0.427-0.507c-0.25-0.775-0.398-1.944-0.402-3.215l-0.033-19.041
	l-0.007-2.551v-0.003l0.011-0.138c0.003-0.018,0.007-0.036,0.011-0.054c0.289-1.735,1.292-3.299,2.766-4.31
	c0.022-0.018,0.044-0.036,0.069-0.051c0.138-0.09,0.301-0.145,0.474-0.148l6.45,0.019l7.409,0.018v-7.155H32.701
	c-1.738,0-3.596-0.46-3.596-1.753v-4.636C29.104,27.944,30.962,27.484,32.701,27.484 M30.872,33.587
	c0.29,0.123,0.942,0.279,1.829,0.279h15.998c0.489,0,0.884,0.391,0.884,0.88v8.922c0,0.055-0.007,0.108-0.018,0.16
	c0,0.011-0.004,0.021-0.008,0.035c-0.003,0.022-0.01,0.04-0.018,0.062c-0.021,0.069-0.05,0.135-0.087,0.192
	c-0.04,0.062-0.083,0.116-0.13,0.167c-0.04,0.04-0.083,0.072-0.126,0.108h-0.004c-0.047,0.029-0.098,0.059-0.149,0.079
	c-0.105,0.044-0.224,0.069-0.348,0.069l-8.295-0.021l-6.142-0.019c-0.989,0.738-1.658,1.821-1.865,3.021l0.04,21.507
	c0.003,0.895,0.087,1.738,0.224,2.343c0.674,0.301,1.373,0.453,2.09,0.453c0.735-0.005,1.455-0.152,2.147-0.468
	c0.138-0.619,0.214-1.459,0.21-2.343V50.205c0-0.486,0.398-0.88,0.884-0.88l0.633-0.022l11.835,0.036h0.003
	c0.058-0.011,0.116-0.019,0.178-0.019h10.299c0.495,0,1.05-0.713,1.05-1.669V27.314c0-0.96-0.555-1.673-1.05-1.673H50.637
	c-0.5,0-1.054,0.713-1.054,1.673v1.051c0,0.484-0.395,0.877-0.884,0.877H32.701c-0.887,0-1.539,0.154-1.829,0.277V33.587z"/>
<path fill="#FFFFFF" stroke="#FFFFFF" stroke-miterlimit="10" d="M42.539,53.207V72.7c0,0.488,0.398,0.881,0.887,0.881
	c0.485,0,0.884-0.393,0.884-0.881V54.083h22.089V72.7c0,0.488,0.398,0.881,0.887,0.881c0.489,0,0.884-0.393,0.884-0.881V27.206
	c0-0.485-0.395-0.88-0.884-0.88c-0.489,0-0.887,0.395-0.887,0.88v25.121H43.426C42.937,52.327,42.539,52.721,42.539,53.207"/>
<path fill="#FFFFFF" stroke="#FFFFFF" stroke-miterlimit="10" d="M33.975,37.052H0.5V72.7c0,0.489,0.395,0.88,0.884,0.88
	c0.488,0,0.884-0.391,0.884-0.88V38.809H23.68V72.7c0,0.489,0.394,0.88,0.883,0.88c0.49,0,0.884-0.391,0.884-0.88V38.809h8.528
	c0.489,0,0.887-0.395,0.887-0.881C34.862,37.443,34.464,37.052,33.975,37.052"/>
<path fill="#FFFFFF" stroke="#FFFFFF" stroke-miterlimit="10" d="M3.405,20.312l3.712,14.322c0.003,0.011,0.007,0.021,0.01,0.033
	c0.011,0.043,0.026,0.083,0.044,0.118c0.021,0.043,0.043,0.083,0.069,0.12v0.003c0.029,0.036,0.054,0.069,0.083,0.103
	c0.007,0.007,0.018,0.018,0.025,0.024c0.029,0.029,0.058,0.055,0.087,0.076c0.076,0.059,0.159,0.103,0.246,0.131
	c0.055,0.019,0.109,0.032,0.166,0.039c0.041,0.008,0.084,0.012,0.128,0.012h14.926c0.489,0,0.884-0.392,0.884-0.876
	c0-0.489-0.395-0.881-0.884-0.881H8.662L5.117,19.874c-0.123-0.472-0.604-0.749-1.075-0.631C3.568,19.362,3.282,19.841,3.405,20.312
	"/>
</svg>
