<?xml version="1.0" encoding="utf-8"?>
<!-- Generator: Adobe Illustrator 16.0.4, SVG Export Plug-In . SVG Version: 6.00 Build 0)  -->
<!DOCTYPE svg PUBLIC "-//W3C//DTD SVG 1.1//EN" "http://www.w3.org/Graphics/SVG/1.1/DTD/svg11.dtd">
<svg version="1.1" id="Layer_1" xmlns="http://www.w3.org/2000/svg" xmlns:xlink="http://www.w3.org/1999/xlink" x="0px" y="0px"
	 width="429.67px" height="78.682px" viewBox="0 0 429.67 78.682" enable-background="new 0 0 429.67 78.682" xml:space="preserve">
<path fill="#FFFFFF" stroke="#000000" stroke-miterlimit="10" d="M365.131-141.428v-137.451V-141.428z"/>
<line fill="none" stroke="#000000" stroke-width="7" stroke-miterlimit="10" x1="365.131" y1="-278.879" x2="365.131" y2="-141.428"/>
<path fill="#FFFFFF" stroke="#000000" stroke-miterlimit="10" d="M273.325-143.871v-130.351V-143.871z"/>
<line fill="none" stroke="#000000" stroke-width="7" stroke-miterlimit="10" x1="273.325" y1="-274.221" x2="273.325" y2="-143.871"/>
<path fill="#FFFFFF" stroke="#000000" stroke-miterlimit="10" d="M319.229-141.428V-272.58V-141.428z"/>
<line fill="none" stroke="#000000" stroke-width="7" stroke-miterlimit="10" x1="319.229" y1="-272.581" x2="319.229" y2="-141.428"/>
<path fill="#FFFFFF" stroke="#000000" stroke-miterlimit="10" d="M250.295-188.497h114.678H250.295z"/>
<line fill="none" stroke="#000000" stroke-width="5" stroke-miterlimit="10" x1="250.294" y1="-188.496" x2="364.973" y2="-188.496"/>
<path fill="#FFFFFF" stroke="#000000" stroke-miterlimit="10" d="M135.616-231.058h229.515H135.616z"/>
<line fill="none" stroke="#000000" stroke-width="5" stroke-miterlimit="10" x1="135.616" y1="-231.058" x2="365.131" y2="-231.058"/>
<path fill="#FFFFFF" stroke="#000000" stroke-miterlimit="10" d="M227.422-198.913v-76.483V-198.913z"/>
<line fill="none" stroke="#000000" stroke-width="7" stroke-miterlimit="10" x1="227.422" y1="-275.396" x2="227.422" y2="-198.913"/>
<path fill="#FFFFFF" stroke="#000000" stroke-miterlimit="10" d="M181.519-198.913v-76.483V-198.913z"/>
<line fill="none" stroke="#000000" stroke-width="7" stroke-miterlimit="10" x1="181.519" y1="-275.396" x2="181.519" y2="-198.913"/>
<path fill="#FFFFFF" stroke="#000000" stroke-miterlimit="10" d="M135.616-275.396h229.515H135.616z"/>
<line fill="none" stroke="#000000" stroke-width="7" stroke-miterlimit="10" x1="135.616" y1="-275.396" x2="365.131" y2="-275.396"/>
<path fill="#FFFFFF" stroke="#000000" stroke-miterlimit="10" d="M139.106-198.913v-77.622V-198.913z"/>
<line fill="none" stroke="#000000" stroke-width="7" stroke-miterlimit="10" x1="139.106" y1="-276.535" x2="139.106" y2="-198.913"/>
<rect x="250.794" y="-188.593" fill="#FFFFFF" stroke="#000000" stroke-miterlimit="10" width="112.078" height="47.164"/>
<g>
	<rect x="261.587" y="-184.563" fill="#FFFFFF" stroke="#000000" stroke-miterlimit="10" width="88.893" height="23.589"/>
	<g>
		<rect x="261.587" y="-184.563" fill="none" stroke="#000000" stroke-miterlimit="10" width="88.893" height="23.589"/>
		
			<text transform="matrix(1 0 0 1 290.5576 -165.7622)" fill="#17345C" stroke="#000000" stroke-miterlimit="10" font-family="'Helvetica-Bold'" font-size="16"> Inc.</text>
	</g>
</g>
<g>
	<defs>
		<rect id="SVGID_1_" x="-86.461" y="-494.099" width="612" height="792"/>
	</defs>
	<clipPath id="SVGID_2_">
		<use xlink:href="#SVGID_1_"  overflow="visible"/>
	</clipPath>
	<path clip-path="url(#SVGID_2_)" fill="#17345C" stroke="#000000" stroke-miterlimit="10" d="M252.47-139.666h-3.872
		c-1.329,0-2.407-1.078-2.407-2.407v-2.624c0-1.329,1.078-2.406,2.407-2.406h3.872c1.329,0,2.406,1.077,2.406,2.406v2.624
		C254.876-140.744,253.799-139.666,252.47-139.666"/>
	<path clip-path="url(#SVGID_2_)" fill="none" stroke="#000000" stroke-width="0" stroke-miterlimit="10" d="M252.47-139.666h-3.872
		c-1.329,0-2.407-1.078-2.407-2.407v-2.624c0-1.329,1.078-2.406,2.407-2.406h3.872c1.329,0,2.406,1.077,2.406,2.406v2.624
		C254.876-140.744,253.799-139.666,252.47-139.666z"/>
	
		<circle clip-path="url(#SVGID_2_)" fill="none" stroke="#000000" stroke-width="5" stroke-miterlimit="10" cx="123.576" cy="-137.804" r="5.949"/>
	
		<circle clip-path="url(#SVGID_2_)" fill="none" stroke="#000000" stroke-width="5" stroke-miterlimit="10" cx="145.281" cy="-137.804" r="5.949"/>
	
		<circle clip-path="url(#SVGID_2_)" fill="none" stroke="#000000" stroke-width="5" stroke-miterlimit="10" cx="166.986" cy="-137.804" r="5.949"/>
	<polygon clip-path="url(#SVGID_2_)" fill="#F8FCFF" stroke="#000000" stroke-miterlimit="10" points="143.883,-182.06 
		143.883,-171.38 143.883,-170.733 142.791,-170.733 142.076,-171.599 135.088,-180.065 135.071,-180.065 135.071,-170.733 
		133.91,-170.733 133.91,-181.082 133.91,-182.06 135.002,-182.06 135.497,-181.461 142.705,-172.727 142.722,-172.727 
		142.722,-182.06 	"/>
	<polygon clip-path="url(#SVGID_2_)" stroke="#000000" stroke-width="0" stroke-miterlimit="10" points="143.883,-182.06 
		143.883,-171.38 143.883,-170.733 142.791,-170.733 142.076,-171.599 135.088,-180.065 135.071,-180.065 135.071,-170.733 
		133.91,-170.733 133.91,-181.082 133.91,-182.06 135.002,-182.06 135.497,-181.461 142.705,-172.727 142.722,-172.727 
		142.722,-182.06 	"/>
	<polygon clip-path="url(#SVGID_2_)" fill="#F8FCFF" stroke="#000000" stroke-miterlimit="10" points="151.445,-175.208 
		147.247,-175.208 147.247,-171.758 154.498,-171.758 154.498,-170.733 146.103,-170.733 146.103,-180.187 154.169,-180.187 
		154.169,-179.163 147.247,-179.163 147.247,-176.232 151.445,-176.232 	"/>
	<polygon clip-path="url(#SVGID_2_)" stroke="#000000" stroke-width="0" stroke-miterlimit="10" points="151.445,-175.208 
		147.247,-175.208 147.247,-171.758 154.498,-171.758 154.498,-170.733 146.103,-170.733 146.103,-180.187 154.169,-180.187 
		154.169,-179.163 147.247,-179.163 147.247,-176.232 151.445,-176.232 	"/>
	<polygon clip-path="url(#SVGID_2_)" fill="#F8FCFF" stroke="#000000" stroke-miterlimit="10" points="156.353,-180.187 
		158.954,-172.278 159.042,-172.278 161.695,-180.187 162.614,-180.187 165.286,-172.278 165.355,-172.278 167.975,-180.187 
		169.189,-180.187 165.944,-170.734 164.731,-170.734 162.181,-178.21 162.095,-178.21 159.544,-170.734 158.33,-170.734 
		155.069,-180.187 	"/>
	<polygon clip-path="url(#SVGID_2_)" stroke="#000000" stroke-width="0" stroke-miterlimit="10" points="156.353,-180.187 
		158.954,-172.278 159.042,-172.278 161.695,-180.187 162.614,-180.187 165.286,-172.278 165.355,-172.278 167.975,-180.187 
		169.189,-180.187 165.944,-170.734 164.731,-170.734 162.181,-178.21 162.095,-178.21 159.544,-170.734 158.33,-170.734 
		155.069,-180.187 	"/>
	<path clip-path="url(#SVGID_2_)" fill="#F8FCFF" stroke="#000000" stroke-miterlimit="10" d="M175.57-175.348h4.996l-2.447-5.359
		h-0.103L175.57-175.348z M172.274-170.733l5.256-11.327h1.145l5.255,11.327h-1.265l-1.682-3.679h-5.846l-1.665,3.679H172.274z"/>
	<path clip-path="url(#SVGID_2_)" stroke="#000000" stroke-width="0" stroke-miterlimit="10" d="M175.57-175.348h4.996l-2.447-5.359
		h-0.103L175.57-175.348z M172.274-170.733l5.256-11.327h1.145l5.255,11.327h-1.265l-1.682-3.679h-5.846l-1.665,3.679H172.274z"/>
	<polygon clip-path="url(#SVGID_2_)" fill="#F8FCFF" stroke="#000000" stroke-miterlimit="10" points="192.932,-180.187 
		188.248,-170.734 187.138,-170.734 182.437,-180.187 183.756,-180.187 187.676,-172.087 187.781,-172.087 191.701,-180.187 	"/>
	<polygon clip-path="url(#SVGID_2_)" stroke="#000000" stroke-width="0" stroke-miterlimit="10" points="192.932,-180.187 
		188.248,-170.734 187.138,-170.734 182.437,-180.187 183.756,-180.187 187.676,-172.087 187.781,-172.087 191.701,-180.187 	"/>
	<polygon clip-path="url(#SVGID_2_)" fill="#F8FCFF" stroke="#000000" stroke-miterlimit="10" points="199.504,-175.208 
		195.307,-175.208 195.307,-171.758 202.558,-171.758 202.558,-170.733 194.163,-170.733 194.163,-180.187 202.229,-180.187 
		202.229,-179.163 195.307,-179.163 195.307,-176.232 199.504,-176.232 	"/>
	<polygon clip-path="url(#SVGID_2_)" stroke="#000000" stroke-width="0" stroke-miterlimit="10" points="199.504,-175.208 
		195.307,-175.208 195.307,-171.758 202.558,-171.758 202.558,-170.733 194.163,-170.733 194.163,-180.187 202.229,-180.187 
		202.229,-179.163 195.307,-179.163 195.307,-176.232 199.504,-176.232 	"/>
	<polygon clip-path="url(#SVGID_2_)" fill="#F8FCFF" stroke="#000000" stroke-miterlimit="10" points="213.276,-180.187 
		213.276,-170.734 212.2,-170.734 205.522,-178.349 205.505,-178.349 205.505,-170.734 204.36,-170.734 204.36,-180.187 
		205.419,-180.187 212.097,-172.556 212.114,-172.556 212.114,-180.187 	"/>
	<polygon clip-path="url(#SVGID_2_)" stroke="#000000" stroke-width="0" stroke-miterlimit="10" points="213.276,-180.187 
		213.276,-170.734 212.2,-170.734 205.522,-178.349 205.505,-178.349 205.505,-170.734 204.36,-170.734 204.36,-180.187 
		205.419,-180.187 212.097,-172.556 212.114,-172.556 212.114,-180.187 	"/>
	<path clip-path="url(#SVGID_2_)" fill="#F8FCFF" stroke="#000000" stroke-miterlimit="10" d="M224.116-180.187v6.192
		c0,2.238-1.892,3.539-4.406,3.539c-2.515,0-4.406-1.301-4.406-3.539v-6.192h1.145v6.192c0,1.596,1.423,2.515,3.261,2.515
		c1.856,0,3.261-0.919,3.261-2.515v-6.192H224.116z"/>
	<path clip-path="url(#SVGID_2_)" stroke="#000000" stroke-width="0" stroke-miterlimit="10" d="M224.116-180.187v6.192
		c0,2.238-1.892,3.539-4.406,3.539c-2.515,0-4.406-1.301-4.406-3.539v-6.192h1.145v6.192c0,1.596,1.423,2.515,3.261,2.515
		c1.856,0,3.261-0.919,3.261-2.515v-6.192H224.116z"/>
	<polygon clip-path="url(#SVGID_2_)" fill="#F8FCFF" stroke="#000000" stroke-miterlimit="10" points="231.574,-175.208 
		227.376,-175.208 227.376,-171.758 234.588,-171.758 234.588,-170.733 226.231,-170.733 226.231,-180.187 234.298,-180.187 
		234.298,-179.163 227.376,-179.163 227.376,-176.232 231.574,-176.232 	"/>
	<polygon clip-path="url(#SVGID_2_)" stroke="#000000" stroke-width="0" stroke-miterlimit="10" points="231.574,-175.208 
		227.376,-175.208 227.376,-171.758 234.588,-171.758 234.588,-170.733 226.231,-170.733 226.231,-180.187 234.298,-180.187 
		234.298,-179.163 227.376,-179.163 227.376,-176.232 231.574,-176.232 	"/>
	<path clip-path="url(#SVGID_2_)" fill="#F8FCFF" stroke="#000000" stroke-miterlimit="10" d="M136.241-162.658
		c0.994,0,1.507-0.267,1.979-0.687c0.418-0.409,0.665-0.983,0.665-1.598c0-0.616-0.236-1.168-0.635-1.579
		c-0.482-0.429-0.995-0.718-2.009-0.718h-1.803v4.582H136.241z M133.914-162.197v-5.493h2.347c1.179,0,1.835,0.328,2.399,0.861
		c0.491,0.482,0.769,1.148,0.769,1.886c0,0.737-0.278,1.413-0.791,1.917c-0.563,0.512-1.218,0.829-2.377,0.829H133.914z"/>
	<path clip-path="url(#SVGID_2_)" fill="none" stroke="#000000" stroke-width="0" stroke-miterlimit="10" d="M136.241-162.658
		c0.994,0,1.507-0.267,1.979-0.687c0.418-0.409,0.665-0.983,0.665-1.598c0-0.616-0.236-1.168-0.635-1.579
		c-0.482-0.429-0.995-0.718-2.009-0.718h-1.803v4.582H136.241z M133.914-162.197v-5.493h2.347c1.179,0,1.835,0.328,2.399,0.861
		c0.491,0.482,0.769,1.148,0.769,1.886c0,0.737-0.278,1.413-0.791,1.917c-0.563,0.512-1.218,0.829-2.377,0.829H133.914z"/>
	<polygon clip-path="url(#SVGID_2_)" fill="#F8FCFF" stroke="#000000" stroke-miterlimit="10" points="150.209,-164.882 
		147.699,-164.882 147.699,-162.659 152.023,-162.659 152.023,-162.196 147.175,-162.196 147.175,-167.689 151.83,-167.689 
		151.83,-167.239 147.699,-167.239 147.699,-165.343 150.209,-165.343 	"/>
	<polygon clip-path="url(#SVGID_2_)" fill="none" stroke="#000000" stroke-width="0" stroke-miterlimit="10" points="
		150.209,-164.882 147.699,-164.882 147.699,-162.659 152.023,-162.659 152.023,-162.196 147.175,-162.196 147.175,-167.689 
		151.83,-167.689 151.83,-167.239 147.699,-167.239 147.699,-165.343 150.209,-165.343 	"/>
	<polygon clip-path="url(#SVGID_2_)" fill="#F8FCFF" stroke="#000000" stroke-miterlimit="10" points="164.66,-167.689 
		164.66,-162.196 164.168,-162.196 160.058,-166.89 160.049,-166.89 160.049,-162.196 159.525,-162.196 159.525,-167.689 
		160.028,-167.689 164.138,-163.005 164.147,-163.005 164.147,-167.689 	"/>
	<polygon clip-path="url(#SVGID_2_)" fill="none" stroke="#000000" stroke-width="0" stroke-miterlimit="10" points="
		164.66,-167.689 164.66,-162.196 164.168,-162.196 160.058,-166.89 160.049,-166.89 160.049,-162.196 159.525,-162.196 
		159.525,-167.689 160.028,-167.689 164.138,-163.005 164.147,-163.005 164.147,-167.689 	"/>
	<polygon clip-path="url(#SVGID_2_)" fill="#F8FCFF" stroke="#000000" stroke-miterlimit="10" points="171.999,-167.689 
		177.03,-167.689 177.03,-167.239 174.775,-167.239 174.775,-162.196 174.262,-162.196 174.262,-167.239 171.999,-167.239 	"/>
	<polygon clip-path="url(#SVGID_2_)" fill="none" stroke="#000000" stroke-width="0" stroke-miterlimit="10" points="
		171.999,-167.689 177.03,-167.689 177.03,-167.239 174.775,-167.239 174.775,-162.196 174.262,-162.196 174.262,-167.239 
		171.999,-167.239 	"/>
	
		<rect x="184.369" y="-167.689" clip-path="url(#SVGID_2_)" fill="#F8FCFF" stroke="#000000" stroke-miterlimit="10" width="0.522" height="5.493"/>
	
		<rect x="184.369" y="-167.689" clip-path="url(#SVGID_2_)" fill="none" stroke="#000000" stroke-width="0" stroke-miterlimit="10" width="0.522" height="5.493"/>
	<path clip-path="url(#SVGID_2_)" fill="#F8FCFF" stroke="#000000" stroke-miterlimit="10" d="M197.354-166.665
		c-0.359-0.307-1.148-0.718-2.234-0.718c-0.82,0-1.763,0.298-1.763,1.107c0,0.8,1.087,0.84,2.101,0.901
		c1.004,0.052,2.655,0.145,2.655,1.548c0,1.231-1.24,1.773-2.655,1.773c-1.445,0-2.336-0.583-2.941-1.127l0.318-0.357
		c0.522,0.45,1.331,1.034,2.633,1.034c1.138,0,2.121-0.41,2.121-1.26c0-0.954-1.157-1.066-2.131-1.118
		c-1.229-0.072-2.623-0.143-2.623-1.363c0-1.199,1.291-1.588,2.296-1.588c1.177,0,2.11,0.472,2.551,0.82L197.354-166.665z"/>
	<path clip-path="url(#SVGID_2_)" fill="none" stroke="#000000" stroke-width="0" stroke-miterlimit="10" d="M197.354-166.665
		c-0.359-0.307-1.148-0.718-2.234-0.718c-0.82,0-1.763,0.298-1.763,1.107c0,0.8,1.087,0.84,2.101,0.901
		c1.004,0.052,2.655,0.145,2.655,1.548c0,1.231-1.24,1.773-2.655,1.773c-1.445,0-2.336-0.583-2.941-1.127l0.318-0.357
		c0.522,0.45,1.331,1.034,2.633,1.034c1.138,0,2.121-0.41,2.121-1.26c0-0.954-1.157-1.066-2.131-1.118
		c-1.229-0.072-2.623-0.143-2.623-1.363c0-1.199,1.291-1.588,2.296-1.588c1.177,0,2.11,0.472,2.551,0.82L197.354-166.665z"/>
	<polygon clip-path="url(#SVGID_2_)" fill="#F8FCFF" stroke="#000000" stroke-miterlimit="10" points="204.733,-167.689 
		209.765,-167.689 209.765,-167.239 207.51,-167.239 207.51,-162.196 206.997,-162.196 206.997,-167.239 204.733,-167.239 	"/>
	<polygon clip-path="url(#SVGID_2_)" fill="none" stroke="#000000" stroke-width="0" stroke-miterlimit="10" points="
		204.733,-167.689 209.765,-167.689 209.765,-167.239 207.51,-167.239 207.51,-162.196 206.997,-162.196 206.997,-167.239 
		204.733,-167.239 	"/>
	<path clip-path="url(#SVGID_2_)" fill="#F8FCFF" stroke="#000000" stroke-miterlimit="10" d="M217.625-167.239v2.214h2.91
		c0.791,0,1.292-0.501,1.292-1.107c0-0.255-0.103-0.501-0.287-0.696c-0.297-0.277-0.594-0.411-1.239-0.411H217.625z
		 M217.104-162.196v-5.493h3.197c0.83,0,1.27,0.204,1.629,0.552c0.257,0.267,0.421,0.616,0.421,1.005
		c0,0.78-0.554,1.383-1.456,1.496l1.487,2.44h-0.595l-1.426-2.368h-2.736v2.368H217.104z"/>
	<path clip-path="url(#SVGID_2_)" fill="none" stroke="#000000" stroke-width="0" stroke-miterlimit="10" d="M217.625-167.239v2.214
		h2.91c0.791,0,1.292-0.501,1.292-1.107c0-0.255-0.103-0.501-0.287-0.696c-0.297-0.277-0.594-0.411-1.239-0.411H217.625z
		 M217.104-162.196v-5.493h3.197c0.83,0,1.27,0.204,1.629,0.552c0.257,0.267,0.421,0.616,0.421,1.005
		c0,0.78-0.554,1.383-1.456,1.496l1.487,2.44h-0.595l-1.426-2.368h-2.736v2.368H217.104z"/>
	<polygon clip-path="url(#SVGID_2_)" fill="#F8FCFF" stroke="#000000" stroke-miterlimit="10" points="234.598,-167.689 
		232.2,-164.81 232.2,-162.196 231.676,-162.196 231.676,-164.81 229.278,-167.689 229.924,-167.689 231.953,-165.281 
		233.992,-167.689 	"/>
	<polygon clip-path="url(#SVGID_2_)" fill="none" stroke="#000000" stroke-width="0" stroke-miterlimit="10" points="
		234.598,-167.689 232.2,-164.81 232.2,-162.196 231.676,-162.196 231.676,-164.81 229.278,-167.689 229.924,-167.689 
		231.953,-165.281 233.992,-167.689 	"/>
	<path clip-path="url(#SVGID_2_)" fill="#79A7D1" stroke="#000000" stroke-miterlimit="10" d="M124.636-175.541
		c0-2.468-2.001-4.469-4.469-4.469c-2.466,0-4.467,2.001-4.467,4.469c0,0.241,0.019,0.478,0.055,0.709
		c0.03,0.186,0.072,0.37,0.124,0.549h-0.002c0.848,3.123,3.155,8.228,3.922,9.767h0.001c0.068,0.134,0.206,0.229,0.367,0.229
		c0.163,0,0.303-0.093,0.37-0.229c0.767-1.539,3.072-6.644,3.92-9.767h-0.001C124.572-174.683,124.636-175.104,124.636-175.541"/>
	<path clip-path="url(#SVGID_2_)" fill="none" stroke="#000000" stroke-width="0" stroke-miterlimit="10" d="M124.636-175.541
		c0-2.468-2.001-4.469-4.469-4.469c-2.466,0-4.467,2.001-4.467,4.469c0,0.241,0.019,0.478,0.055,0.709
		c0.03,0.186,0.072,0.37,0.124,0.549h-0.002c0.848,3.123,3.155,8.228,3.922,9.767h0.001c0.068,0.134,0.206,0.229,0.367,0.229
		c0.163,0,0.303-0.093,0.37-0.229c0.767-1.539,3.072-6.644,3.92-9.767h-0.001C124.572-174.683,124.636-175.104,124.636-175.541"/>
	<path clip-path="url(#SVGID_2_)" fill="#79A7D1" stroke="#000000" stroke-miterlimit="10" d="M113.107-181.338
		c-1.156,0-2.095,0.939-2.095,2.095v14.223c0,1.154,0.939,2.095,2.095,2.095h14.223c1.154,0,2.095-0.941,2.095-2.095v-14.223
		c0-1.156-0.941-2.095-2.095-2.095H113.107z M127.331-162.191h-14.223c-1.56,0-2.829-1.269-2.829-2.829v-14.223
		c0-1.56,1.269-2.829,2.829-2.829h14.223c1.56,0,2.829,1.269,2.829,2.829v14.223C130.16-163.46,128.891-162.191,127.331-162.191"/>
	<path clip-path="url(#SVGID_2_)" fill="none" stroke="#000000" stroke-width="0" stroke-miterlimit="10" d="M113.107-181.338
		c-1.156,0-2.095,0.939-2.095,2.095v14.223c0,1.154,0.939,2.095,2.095,2.095h14.223c1.154,0,2.095-0.941,2.095-2.095v-14.223
		c0-1.156-0.941-2.095-2.095-2.095H113.107z M127.331-162.191h-14.223c-1.56,0-2.829-1.269-2.829-2.829v-14.223
		c0-1.56,1.269-2.829,2.829-2.829h14.223c1.56,0,2.829,1.269,2.829,2.829v14.223C130.16-163.46,128.891-162.191,127.331-162.191"/>
	<path clip-path="url(#SVGID_2_)" fill="#FFFFFF" stroke="#000000" stroke-miterlimit="10" d="M122.701-176.967
		c-0.51-1.099-1.521-0.511-2.532-0.492c-1.012-0.019-2.023-0.607-2.533,0.492c-0.498,1.496,0.374,2.17,0.526,3.572
		c0.153,1.402,0.374,1.867,0.679,1.86c0.351-0.008,0.567-0.508,0.829-1.357c0.179-0.578,0.342-0.732,0.499-0.732
		c0.158,0,0.321,0.154,0.498,0.732c0.262,0.848,0.479,1.349,0.831,1.357c0.303,0.007,0.526-0.458,0.678-1.86
		C122.328-174.797,123.2-175.471,122.701-176.967"/>
	<path clip-path="url(#SVGID_2_)" fill="none" stroke="#000000" stroke-width="0" stroke-miterlimit="10" d="M122.701-176.967
		c-0.51-1.099-1.521-0.511-2.532-0.492c-1.012-0.019-2.023-0.607-2.533,0.492c-0.498,1.496,0.374,2.17,0.526,3.572
		c0.153,1.402,0.374,1.867,0.679,1.86c0.351-0.008,0.567-0.508,0.829-1.357c0.179-0.578,0.342-0.732,0.499-0.732
		c0.158,0,0.321,0.154,0.498,0.732c0.262,0.848,0.479,1.349,0.831,1.357c0.303,0.007,0.526-0.458,0.678-1.86
		C122.328-174.797,123.2-175.471,122.701-176.967"/>
	<path clip-path="url(#SVGID_2_)" fill="none" stroke="#000000" stroke-width="3" stroke-miterlimit="10" d="M395.862-137.826"/>
	<path clip-path="url(#SVGID_2_)" fill="none" stroke="#000000" stroke-width="3" stroke-miterlimit="10" d="M250.294-137.826"/>
	<path clip-path="url(#SVGID_2_)" fill="none" stroke="#000000" stroke-width="3" stroke-miterlimit="10" d="M94.063-137.804"/>
	<path clip-path="url(#SVGID_2_)" fill="none" stroke="#000000" stroke-width="3" stroke-miterlimit="10" d="M78.656-137.804"/>
	<path clip-path="url(#SVGID_2_)" fill="none" stroke="#000000" stroke-width="5" stroke-miterlimit="10" d="M99.102-194.244v56.418
		h11.696c0.011-7.037,5.739-12.757,12.777-12.757c4.582,0,8.598,2.432,10.852,6.065c2.257-3.633,6.272-6.065,10.854-6.065
		s8.596,2.432,10.852,6.065c2.257-3.633,6.271-6.065,10.852-6.065c7.039,0,12.767,5.72,12.778,12.757h65.9v-56.418H99.102z"/>
	
		<line clip-path="url(#SVGID_2_)" fill="none" stroke="#000000" stroke-width="5" stroke-linecap="round" stroke-linejoin="round" stroke-miterlimit="10" x1="245.755" y1="-143.575" x2="251.062" y2="-143.575"/>
	
		<circle clip-path="url(#SVGID_2_)" fill="none" stroke="#000000" stroke-width="5" stroke-miterlimit="10" cx="164.048" cy="58.652" r="5.919"/>
	
		<circle clip-path="url(#SVGID_2_)" fill="none" stroke="#000000" stroke-width="5" stroke-miterlimit="10" cx="185.642" cy="58.652" r="5.919"/>
	
		<circle clip-path="url(#SVGID_2_)" fill="none" stroke="#000000" stroke-width="5" stroke-miterlimit="10" cx="207.236" cy="58.652" r="5.919"/>
	<path clip-path="url(#SVGID_2_)" fill="none" stroke="#000000" stroke-width="5" stroke-miterlimit="10" d="M139.699,2.5v56.131
		h11.636c0.012-7.001,5.709-12.693,12.713-12.693c4.558,0,8.552,2.42,10.797,6.034c2.244-3.614,6.238-6.034,10.797-6.034
		s8.553,2.419,10.797,6.034c2.245-3.615,6.238-6.034,10.797-6.034c7.003,0,12.701,5.692,12.713,12.693h65.563V2.5H139.699z"/>
	
		<line clip-path="url(#SVGID_2_)" fill="none" stroke="#000000" stroke-width="5" stroke-linecap="round" stroke-linejoin="round" stroke-miterlimit="10" x1="285.604" y1="52.91" x2="290.884" y2="52.91"/>
	<path clip-path="url(#SVGID_2_)" stroke="#000000" stroke-miterlimit="10" d="M416.782,2.99c4.917,0,8.915,3.961,8.915,8.832
		c0,4.87-3.998,8.836-8.915,8.836c-4.914,0-8.912-3.966-8.912-8.836C407.87,6.951,411.868,2.99,416.782,2.99 M416.782,18.897
		c3.94,0,7.146-3.172,7.146-7.075c0-3.9-3.205-7.076-7.146-7.076c-3.939,0-7.145,3.176-7.145,7.076
		C409.638,15.726,412.843,18.897,416.782,18.897"/>
	<path clip-path="url(#SVGID_2_)" stroke="#000000" stroke-miterlimit="10" d="M393.701,25.728h15.115v-0.17
		c0-1.895,1.263-3.434,2.82-3.434h10.3c1.553,0,2.816,1.539,2.816,3.434v20.337c0,1.89-1.264,3.429-2.816,3.429H411.64v0.014
		l-11.765-0.031v17.947c0.003,1.245-0.134,2.415-0.38,3.216c-0.069,0.221-0.225,0.408-0.428,0.518
		c-1.046,0.554-2.154,0.836-3.284,0.836h-0.044c-1.122,0-2.216-0.274-3.244-0.822c-0.207-0.104-0.359-0.289-0.427-0.507
		c-0.25-0.774-0.398-1.944-0.402-3.215l-0.033-19.041l-0.007-2.55v-0.003l0.011-0.139c0.003-0.018,0.008-0.035,0.012-0.054
		c0.289-1.734,1.292-3.299,2.766-4.31c0.022-0.018,0.044-0.035,0.069-0.05c0.138-0.091,0.301-0.146,0.474-0.149l6.45,0.019
		l7.409,0.019v-7.156h-15.115c-1.738,0-3.596-0.46-3.596-1.753v-4.635C390.105,26.188,391.963,25.728,393.701,25.728
		 M391.872,31.829c0.29,0.123,0.942,0.279,1.829,0.279h15.998c0.489,0,0.884,0.391,0.884,0.88v8.922c0,0.056-0.007,0.109-0.018,0.16
		c0,0.011-0.004,0.021-0.009,0.036c-0.003,0.021-0.01,0.04-0.018,0.061c-0.021,0.069-0.05,0.136-0.087,0.192
		c-0.04,0.062-0.083,0.117-0.13,0.167c-0.04,0.04-0.083,0.073-0.126,0.109h-0.004c-0.047,0.028-0.099,0.058-0.149,0.079
		c-0.104,0.044-0.224,0.068-0.348,0.068l-8.296-0.021l-6.142-0.019c-0.988,0.739-1.658,1.822-1.865,3.021l0.04,21.507
		c0.004,0.894,0.088,1.738,0.225,2.342c0.674,0.301,1.373,0.453,2.09,0.453c0.735-0.004,1.455-0.152,2.147-0.467
		c0.138-0.619,0.214-1.46,0.21-2.343v-18.81c0-0.486,0.397-0.88,0.884-0.88l0.633-0.022l11.835,0.036h0.003
		c0.058-0.011,0.116-0.018,0.178-0.018h10.3c0.494,0,1.05-0.713,1.05-1.669V25.558c0-0.96-0.556-1.673-1.05-1.673h-10.3
		c-0.5,0-1.054,0.713-1.054,1.673v1.05c0,0.485-0.395,0.876-0.884,0.876h-15.998c-0.887,0-1.539,0.156-1.829,0.279V31.829z"/>
	<path clip-path="url(#SVGID_2_)" stroke="#000000" stroke-miterlimit="10" d="M403.539,51.449v19.493
		c0,0.489,0.398,0.881,0.888,0.881c0.484,0,0.884-0.392,0.884-0.881V52.325h22.089v18.617c0,0.489,0.398,0.881,0.887,0.881
		c0.489,0,0.884-0.392,0.884-0.881V25.448c0-0.484-0.395-0.88-0.884-0.88c-0.488,0-0.887,0.396-0.887,0.88v25.121h-22.973
		C403.938,50.569,403.539,50.964,403.539,51.449"/>
	<path clip-path="url(#SVGID_2_)" stroke="#000000" stroke-miterlimit="10" d="M394.976,35.295H361.5v35.647
		c0,0.489,0.396,0.881,0.885,0.881c0.487,0,0.884-0.392,0.884-0.881V37.051h21.412v33.892c0,0.489,0.394,0.881,0.883,0.881
		c0.49,0,0.884-0.392,0.884-0.881V37.051h8.528c0.489,0,0.887-0.394,0.887-0.88C395.862,35.686,395.465,35.295,394.976,35.295"/>
	<path clip-path="url(#SVGID_2_)" stroke="#000000" stroke-miterlimit="10" d="M364.405,18.554l3.712,14.322
		c0.004,0.011,0.008,0.022,0.011,0.033c0.011,0.043,0.025,0.083,0.044,0.119c0.021,0.043,0.043,0.083,0.068,0.12v0.003
		c0.029,0.037,0.055,0.068,0.083,0.102c0.008,0.007,0.019,0.019,0.025,0.025c0.029,0.029,0.058,0.054,0.087,0.076
		c0.076,0.058,0.159,0.102,0.246,0.131c0.055,0.018,0.109,0.032,0.166,0.039c0.041,0.007,0.084,0.011,0.128,0.011h14.926
		c0.489,0,0.884-0.391,0.884-0.876c0-0.489-0.395-0.88-0.884-0.88h-14.238l-3.546-13.663c-0.122-0.471-0.604-0.749-1.074-0.63
		C364.568,17.605,364.282,18.083,364.405,18.554"/>
	<path clip-path="url(#SVGID_2_)" fill="#FFFFFF" stroke="#000000" stroke-miterlimit="10" d="M255.389,73.773
		c-0.669,0-1.185-0.206-1.531-0.613c-0.483-0.569-0.447-1.328-0.433-1.482V51.675h-1.812v19.941
		c0.015,0.158,0.058,0.926-0.427,1.498c-0.344,0.407-0.857,0.614-1.523,0.614c-0.664,0-1.186-0.205-1.549-0.609
		c-0.521-0.581-0.509-1.367-0.504-1.493V48.944l0.004-10.37c0,0-0.012-0.378-0.26-0.71c-0.989-1.332-4.501-5.8-7.065-9.061
		c-1.651-2.102-2.957-3.762-3.152-4.028c-0.361-0.493-0.517-1.108-0.426-1.687c0.073-0.469,0.306-0.863,0.653-1.109
		c0.432-0.305,0.838-0.454,1.246-0.454c0.63,0,1.226,0.362,1.769,1.075c0.909,1.194,7.062,8.335,7.943,9.356h9.075
		c0.871,0,1.572,0.802,2.029,2.318c0.246,0.817,3.477,11.026,3.757,11.873c0.318,0.957,0.133,1.601-0.078,1.972
		c-0.262,0.462-0.712,0.771-1.266,0.873c-0.099,0.017-0.198,0.025-0.295,0.025c-1.021,0-1.705-0.951-1.98-1.766
		c-0.19-0.562-1.446-4.352-2.253-6.787l0.027,31.211c0.015,0.157,0.057,0.915-0.422,1.483
		C256.572,73.566,256.059,73.773,255.389,73.773 M251.263,50.946h2.512c0.194,0,0.352,0.163,0.352,0.364v20.385
		c0,0.016-0.001,0.03-0.003,0.046c0,0.004-0.058,0.567,0.264,0.94c0.208,0.241,0.545,0.364,1.002,0.364
		c0.456,0,0.792-0.122,0.997-0.362c0.316-0.372,0.255-0.936,0.255-0.941c-0.002-0.015-0.003-0.031-0.003-0.047l-0.029-33.413
		c0-0.179,0.123-0.33,0.292-0.359s0.334,0.072,0.391,0.241c0.025,0.08,2.653,8.017,2.935,8.848c0.2,0.59,0.665,1.279,1.319,1.279
		c0.057,0,0.114-0.005,0.174-0.017c0.349-0.062,0.627-0.25,0.784-0.524c0.193-0.343,0.2-0.814,0.019-1.364
		c-0.282-0.848-3.518-11.074-3.765-11.893c-0.163-0.544-0.623-1.809-1.359-1.809h-9.23c-0.101,0-0.195-0.044-0.263-0.121
		c-0.289-0.335-7.087-8.213-8.076-9.512c-0.402-0.529-0.812-0.797-1.218-0.797c-0.262,0-0.541,0.105-0.851,0.326
		c-0.188,0.133-0.314,0.354-0.357,0.625c-0.059,0.377,0.051,0.799,0.293,1.129c0.188,0.257,1.555,1.995,3.138,4.009
		c2.566,3.264,6.081,7.735,7.076,9.075c0.392,0.525,0.405,1.09,0.406,1.152l-0.003,10.373v22.691c0,0.008-0.001,0.017-0.001,0.025
		c0,0.004-0.029,0.582,0.32,0.966c0.225,0.248,0.571,0.374,1.031,0.374c0.453,0,0.787-0.122,0.993-0.363
		c0.321-0.376,0.26-0.951,0.258-0.957c-0.001-0.014-0.003-0.031-0.003-0.045V51.311C250.911,51.109,251.068,50.946,251.263,50.946"
		/>
	<path clip-path="url(#SVGID_2_)" fill="#FFFFFF" d="M251.263,50.946h2.512c0.194,0,0.352,0.163,0.352,0.364v20.385
		c0,0.016-0.001,0.03-0.003,0.046c0,0.004-0.058,0.567,0.264,0.94c0.208,0.241,0.545,0.364,1.002,0.364
		c0.456,0,0.792-0.122,0.997-0.362c0.316-0.372,0.255-0.936,0.255-0.941c-0.002-0.015-0.003-0.031-0.003-0.047l-0.029-33.413
		c0-0.179,0.123-0.33,0.292-0.359s0.334,0.072,0.391,0.241c0.025,0.08,2.653,8.017,2.935,8.848c0.2,0.59,0.665,1.279,1.319,1.279
		c0.057,0,0.114-0.005,0.174-0.017c0.349-0.062,0.627-0.25,0.784-0.524c0.193-0.343,0.2-0.814,0.019-1.364
		c-0.282-0.848-3.518-11.074-3.765-11.893c-0.163-0.544-0.623-1.809-1.359-1.809h-9.23c-0.101,0-0.195-0.044-0.263-0.121
		c-0.289-0.335-7.087-8.213-8.076-9.512c-0.402-0.529-0.812-0.797-1.218-0.797c-0.262,0-0.541,0.105-0.851,0.326
		c-0.188,0.133-0.314,0.354-0.357,0.625c-0.059,0.377,0.051,0.799,0.293,1.129c0.188,0.257,1.555,1.995,3.138,4.009
		c2.566,3.264,6.081,7.735,7.076,9.075c0.392,0.525,0.405,1.09,0.406,1.152l-0.003,10.373v22.691c0,0.008-0.001,0.017-0.001,0.025
		c0,0.004-0.029,0.582,0.32,0.966c0.225,0.248,0.571,0.374,1.031,0.374c0.453,0,0.787-0.122,0.993-0.363
		c0.321-0.376,0.26-0.951,0.258-0.957c-0.001-0.014-0.003-0.031-0.003-0.045V51.311C250.911,51.109,251.068,50.946,251.263,50.946z"
		/>
	<path clip-path="url(#SVGID_2_)" fill="#FFFFFF" stroke="#000000" stroke-miterlimit="10" d="M252.169,30.501
		c-3.081,0-5.587-2.603-5.587-5.801c0-3.199,2.506-5.803,5.587-5.803s5.587,2.604,5.587,5.803
		C257.756,27.898,255.25,30.501,252.169,30.501 M252.169,19.626c-2.693,0-4.886,2.275-4.886,5.074c0,2.797,2.192,5.072,4.886,5.072
		c2.694,0,4.886-2.275,4.886-5.072C257.055,21.901,254.863,19.626,252.169,19.626"/>
	<path clip-path="url(#SVGID_2_)" fill="none" stroke="#000000" stroke-width="0.5" stroke-miterlimit="10" d="M252.169,30.501
		c-3.081,0-5.587-2.603-5.587-5.801c0-3.199,2.506-5.803,5.587-5.803s5.587,2.604,5.587,5.803
		C257.756,27.898,255.25,30.501,252.169,30.501z M252.169,19.626c-2.693,0-4.886,2.275-4.886,5.074c0,2.797,2.192,5.072,4.886,5.072
		c2.694,0,4.886-2.275,4.886-5.072C257.055,21.901,254.863,19.626,252.169,19.626z"/>
	<g clip-path="url(#SVGID_2_)">
		<polygon stroke="#000000" stroke-miterlimit="10" points="92.062,46.005 103.664,46.005 103.664,50.185 115.196,42.108 
			103.664,34.034 103.664,38.214 92.062,38.214 		"/>
	</g>
	<g clip-path="url(#SVGID_2_)">
		<polygon stroke="#000000" stroke-miterlimit="10" points="316.754,49.312 328.355,49.312 328.355,53.492 339.888,45.416 
			328.355,37.342 328.355,41.521 316.754,41.521 		"/>
	</g>
	<use xlink:href="#SVGID_1_"  overflow="visible" fill="none" stroke="#000000" stroke-miterlimit="10"/>
</g>
<text transform="matrix(1 0 0 1 82.0146 72.4561)"><tspan x="0" y="0" stroke="#000000" stroke-miterlimit="10" font-family="'Avenir-Medium'" font-size="14">10</tspan><tspan x="15.568" y="0" stroke="#000000" stroke-miterlimit="10" font-family="'Avenir-Medium'" font-size="14"> </tspan><tspan x="18.956" y="0" stroke="#000000" stroke-miterlimit="10" font-family="'Avenir-Medium'" font-size="14">AM</tspan></text>
<text transform="matrix(1 0 0 1 306.2109 72.4561)"><tspan x="0" y="0" stroke="#000000" stroke-miterlimit="10" font-family="'Avenir-Roman'" font-size="14">1</tspan><tspan x="7.028" y="0" stroke="#000000" stroke-miterlimit="10" font-family="'Avenir-Roman'" font-size="14">1</tspan><tspan x="14.812" y="0" stroke="#000000" stroke-miterlimit="10" font-family="'Avenir-Roman'" font-size="14"> </tspan><tspan x="18.2" y="0" stroke="#000000" stroke-miterlimit="10" font-family="'Avenir-Roman'" font-size="14">AM</tspan></text>
<g>
	<defs>
		<rect id="SVGID_3_" x="-86.461" y="-494.099" width="612" height="792"/>
	</defs>
	<clipPath id="SVGID_4_">
		<use xlink:href="#SVGID_3_"  overflow="visible"/>
	</clipPath>
	<use xlink:href="#SVGID_3_"  overflow="visible" fill="none" stroke="#000000" stroke-miterlimit="10"/>
</g>
<path fill="#FFFFFF" stroke="#000000" stroke-miterlimit="10" d="M365.131-274.429v-137.451V-274.429z"/>
<line fill="none" stroke="#000000" stroke-width="7" stroke-miterlimit="10" x1="365.131" y1="-411.879" x2="365.131" y2="-274.429"/>
<path fill="#FFFFFF" stroke="#000000" stroke-miterlimit="10" d="M273.325-276.87v-130.352V-276.87z"/>
<line fill="none" stroke="#000000" stroke-width="7" stroke-miterlimit="10" x1="273.325" y1="-407.221" x2="273.325" y2="-276.871"/>
<path fill="#FFFFFF" stroke="#000000" stroke-miterlimit="10" d="M319.229-274.429V-405.58V-274.429z"/>
<line fill="none" stroke="#000000" stroke-width="7" stroke-miterlimit="10" x1="319.229" y1="-405.581" x2="319.229" y2="-274.429"/>
<path fill="#FFFFFF" stroke="#000000" stroke-miterlimit="10" d="M135.616-364.058h229.515H135.616z"/>
<line fill="none" stroke="#000000" stroke-width="5" stroke-miterlimit="10" x1="135.616" y1="-364.058" x2="365.131" y2="-364.058"/>
<path fill="#FFFFFF" stroke="#000000" stroke-miterlimit="10" d="M227.422-331.913v-76.483V-331.913z"/>
<line fill="none" stroke="#000000" stroke-width="7" stroke-miterlimit="10" x1="227.422" y1="-408.396" x2="227.422" y2="-331.913"/>
<path fill="#FFFFFF" stroke="#000000" stroke-miterlimit="10" d="M181.519-331.913v-76.483V-331.913z"/>
<line fill="none" stroke="#000000" stroke-width="7" stroke-miterlimit="10" x1="181.519" y1="-408.396" x2="181.519" y2="-331.913"/>
<path fill="#FFFFFF" stroke="#000000" stroke-miterlimit="10" d="M135.616-408.396h229.515H135.616z"/>
<line fill="none" stroke="#000000" stroke-width="7" stroke-miterlimit="10" x1="135.616" y1="-408.396" x2="365.131" y2="-408.396"/>
<path fill="#FFFFFF" stroke="#000000" stroke-miterlimit="10" d="M139.106-331.913v-77.622V-331.913z"/>
<line fill="none" stroke="#000000" stroke-width="7" stroke-miterlimit="10" x1="139.106" y1="-409.535" x2="139.106" y2="-331.913"/>
<line fill="none" stroke="#000000" stroke-width="5" stroke-miterlimit="10" x1="136.616" y1="-321.558" x2="366.131" y2="-321.558"/>
<line fill="none" stroke="#000000" stroke-width="7" stroke-miterlimit="10" x1="139.131" y1="-380.379" x2="139.131" y2="-242.929"/>
<line fill="none" stroke="#000000" stroke-width="7" stroke-miterlimit="10" x1="181.631" y1="-367.379" x2="181.631" y2="-229.929"/>
<line fill="none" stroke="#000000" stroke-width="7" stroke-miterlimit="10" x1="227.381" y1="-377.879" x2="227.381" y2="-240.429"/>
<path stroke="#000000" stroke-miterlimit="10" d="M55.782,2.99c4.917,0,8.915,3.961,8.915,8.832c0,4.87-3.998,8.836-8.915,8.836
	c-4.914,0-8.912-3.966-8.912-8.836C46.87,6.951,50.868,2.99,55.782,2.99 M55.782,18.897c3.94,0,7.146-3.172,7.146-7.075
	c0-3.9-3.205-7.076-7.146-7.076c-3.939,0-7.145,3.176-7.145,7.076C48.638,15.726,51.843,18.897,55.782,18.897"/>
<path stroke="#000000" stroke-miterlimit="10" d="M32.701,25.728h15.115v-0.17c0-1.895,1.263-3.434,2.82-3.434h10.3
	c1.553,0,2.816,1.539,2.816,3.434v20.337c0,1.89-1.264,3.429-2.816,3.429H50.64v0.014l-11.765-0.031v17.947
	c0.003,1.245-0.134,2.415-0.38,3.216c-0.069,0.221-0.225,0.408-0.428,0.518c-1.046,0.554-2.154,0.836-3.284,0.836h-0.044
	c-1.122,0-2.216-0.274-3.244-0.822c-0.207-0.104-0.359-0.289-0.427-0.507c-0.25-0.774-0.398-1.944-0.402-3.215l-0.033-19.041
	l-0.007-2.55v-0.003l0.011-0.139c0.003-0.018,0.008-0.035,0.012-0.054c0.289-1.734,1.292-3.299,2.766-4.31
	c0.022-0.018,0.044-0.035,0.069-0.05c0.138-0.091,0.301-0.146,0.474-0.149l6.45,0.019l7.409,0.019v-7.156H32.701
	c-1.738,0-3.596-0.46-3.596-1.753v-4.635C29.105,26.188,30.963,25.728,32.701,25.728 M30.872,31.829
	c0.29,0.123,0.942,0.279,1.829,0.279h15.998c0.489,0,0.884,0.391,0.884,0.88v8.922c0,0.056-0.007,0.109-0.018,0.16
	c0,0.011-0.004,0.021-0.009,0.036c-0.003,0.021-0.01,0.04-0.018,0.061c-0.021,0.069-0.05,0.136-0.087,0.192
	c-0.04,0.062-0.083,0.117-0.13,0.167c-0.04,0.04-0.083,0.073-0.126,0.109h-0.004c-0.047,0.028-0.099,0.058-0.149,0.079
	c-0.104,0.044-0.224,0.068-0.348,0.068l-8.296-0.021l-6.142-0.019c-0.988,0.739-1.658,1.822-1.865,3.021l0.04,21.507
	c0.004,0.894,0.088,1.738,0.225,2.342c0.674,0.301,1.373,0.453,2.09,0.453c0.735-0.004,1.455-0.152,2.147-0.467
	c0.138-0.619,0.214-1.46,0.21-2.343v-18.81c0-0.486,0.397-0.88,0.884-0.88l0.633-0.022l11.835,0.036h0.003
	c0.058-0.011,0.116-0.018,0.178-0.018h10.3c0.494,0,1.05-0.713,1.05-1.669V25.558c0-0.96-0.556-1.673-1.05-1.673h-10.3
	c-0.5,0-1.054,0.713-1.054,1.673v1.05c0,0.485-0.395,0.876-0.884,0.876H32.701c-0.887,0-1.539,0.156-1.829,0.279V31.829z"/>
<path stroke="#000000" stroke-miterlimit="10" d="M42.539,51.449v19.493c0,0.489,0.398,0.881,0.888,0.881
	c0.484,0,0.884-0.392,0.884-0.881V52.325h22.089v18.617c0,0.489,0.398,0.881,0.887,0.881c0.489,0,0.884-0.392,0.884-0.881V25.448
	c0-0.484-0.395-0.88-0.884-0.88c-0.488,0-0.887,0.396-0.887,0.88v25.121H43.427C42.938,50.569,42.539,50.964,42.539,51.449"/>
<path stroke="#000000" stroke-miterlimit="10" d="M33.976,35.295H0.5v35.647c0,0.489,0.396,0.881,0.885,0.881
	c0.487,0,0.884-0.392,0.884-0.881V37.051h21.412v33.892c0,0.489,0.394,0.881,0.883,0.881c0.49,0,0.884-0.392,0.884-0.881V37.051
	h8.528c0.489,0,0.887-0.394,0.887-0.88C34.862,35.686,34.465,35.295,33.976,35.295"/>
<path stroke="#000000" stroke-miterlimit="10" d="M3.405,18.554l3.712,14.322c0.004,0.011,0.008,0.022,0.011,0.033
	c0.011,0.043,0.025,0.083,0.044,0.119c0.021,0.043,0.043,0.083,0.068,0.12v0.003c0.029,0.037,0.055,0.068,0.083,0.102
	c0.008,0.007,0.019,0.019,0.025,0.025c0.029,0.029,0.058,0.054,0.087,0.076c0.076,0.058,0.159,0.102,0.246,0.131
	c0.055,0.018,0.109,0.032,0.166,0.039c0.041,0.007,0.084,0.011,0.128,0.011h14.926c0.489,0,0.884-0.391,0.884-0.876
	c0-0.489-0.395-0.88-0.884-0.88H8.663L5.117,18.116c-0.122-0.471-0.604-0.749-1.074-0.63C3.568,17.605,3.282,18.083,3.405,18.554"/>
</svg>
