<?xml version="1.0" encoding="utf-8"?>
<!-- Generator: Adobe Illustrator 16.0.4, SVG Export Plug-In . SVG Version: 6.00 Build 0)  -->
<!DOCTYPE svg PUBLIC "-//W3C//DTD SVG 1.1//EN" "http://www.w3.org/Graphics/SVG/1.1/DTD/svg11.dtd">
<svg version="1.1" id="Layer_1" xmlns="http://www.w3.org/2000/svg" xmlns:xlink="http://www.w3.org/1999/xlink" x="0px" y="0px"
	 width="71.011px" height="52.316px" viewBox="0 0 71.011 52.316" enable-background="new 0 0 71.011 52.316" xml:space="preserve">
<g>
	<defs>
		<rect id="SVGID_1_" x="-271.134" y="-370.909" width="612" height="792"/>
	</defs>
	<clipPath id="SVGID_2_">
		<use xlink:href="#SVGID_1_"  overflow="visible"/>
	</clipPath>
	
		<circle clip-path="url(#SVGID_2_)" fill="none" stroke="#FFFFFF" stroke-width="1.808" stroke-miterlimit="10" cx="41.478" cy="21.898" r="11.844"/>
	
		<line clip-path="url(#SVGID_2_)" fill="none" stroke="#FFFFFF" stroke-width="2.618" stroke-linecap="round" stroke-linejoin="round" stroke-miterlimit="10" x1="50.208" y1="30.991" x2="69.703" y2="51.008"/>
	<path clip-path="url(#SVGID_2_)" fill="none" stroke="#FFFFFF" stroke-width="2.108" stroke-miterlimit="10" d="M43.48,6.429
		c-4.113-8.865-12.266-4.13-20.428-3.97c-8.161-0.16-16.314-4.895-20.428,3.97c-4.863,10.632,3.012,17.511,4.24,28.817
		c1.229,11.307,3.022,15.059,5.469,15.001c2.84-0.068,4.588-4.099,6.697-10.944c1.437-4.66,2.752-5.901,4.022-5.901
		c1.271,0,2.586,1.241,4.022,5.901c2.109,6.846,3.858,10.876,6.698,10.944c2.447,0.058,4.239-3.694,5.469-15.001
		C40.469,23.94,48.318,17.018,43.48,6.429z"/>
</g>
</svg>
