<?xml version="1.0" encoding="utf-8"?>
<!-- Generator: Adobe Illustrator 16.0.4, SVG Export Plug-In . SVG Version: 6.00 Build 0)  -->
<!DOCTYPE svg PUBLIC "-//W3C//DTD SVG 1.1//EN" "http://www.w3.org/Graphics/SVG/1.1/DTD/svg11.dtd">
<svg version="1.1" id="Layer_1" xmlns="http://www.w3.org/2000/svg" xmlns:xlink="http://www.w3.org/1999/xlink" x="0px" y="0px"
	 width="274.568px" height="305.769px" viewBox="350.524 115.975 274.568 305.769"
	 enable-background="new 350.524 115.975 274.568 305.769" xml:space="preserve">
<path fill="#FFFFFF" stroke="#FFFFFF" stroke-miterlimit="10" d="M621.592,409.67V272.219V409.67z"/>
<line fill="none" stroke="#FFFFFF" stroke-width="7" stroke-miterlimit="10" x1="621.592" y1="272.219" x2="621.592" y2="409.67"/>
<line fill="none" stroke="#FFFFFF" stroke-width="7" stroke-miterlimit="10" x1="529.786" y1="276.877" x2="529.786" y2="362.601"/>
<line fill="none" stroke="#FFFFFF" stroke-width="7" stroke-miterlimit="10" x1="575.692" y1="276.67" x2="575.692" y2="362.601"/>
<path fill="#FFFFFF" stroke="#FFFFFF" stroke-miterlimit="10" d="M506.756,362.6h114.678H506.756z"/>
<line fill="none" stroke="#FFFFFF" stroke-width="5" stroke-miterlimit="10" x1="506.755" y1="362.601" x2="621.434" y2="362.601"/>
<path fill="#FFFFFF" stroke="#FFFFFF" stroke-miterlimit="10" d="M392.077,320.041h229.515H392.077z"/>
<line fill="none" stroke="#FFFFFF" stroke-width="5" stroke-miterlimit="10" x1="392.077" y1="320.041" x2="621.592" y2="320.041"/>
<path fill="#FFFFFF" stroke="#FFFFFF" stroke-miterlimit="10" d="M483.883,352.183v-76.48V352.183z"/>
<line fill="none" stroke="#FFFFFF" stroke-width="7" stroke-miterlimit="10" x1="483.883" y1="275.703" x2="483.883" y2="352.183"/>
<path fill="#FFFFFF" stroke="#FFFFFF" stroke-miterlimit="10" d="M437.979,352.183v-76.48V352.183z"/>
<line fill="none" stroke="#FFFFFF" stroke-width="7" stroke-miterlimit="10" x1="437.981" y1="275.703" x2="437.981" y2="352.183"/>
<path fill="#FFFFFF" stroke="#FFFFFF" stroke-miterlimit="10" d="M392.077,275.703h229.515H392.077z"/>
<path fill="#FFFFFF" stroke="#FFFFFF" stroke-miterlimit="10" d="M395.567,352.183v-77.62V352.183z"/>
<line fill="none" stroke="#FFFFFF" stroke-width="7" stroke-miterlimit="10" x1="395.567" y1="274.564" x2="395.567" y2="352.183"/>
<g>
	<g>
		
			<rect x="462.31" y="117.975" fill="none" stroke="#FFFFFF" stroke-width="4" stroke-miterlimit="10" width="88.895" height="23.589"/>
		<text transform="matrix(1 0 0 1 491.2805 136.7751)" fill="#FFFFFF" font-family="'Helvetica-Bold'" font-size="16"> Inc.</text>
	</g>
</g>
<circle fill="none" stroke="#FFFFFF" stroke-width="5" stroke-miterlimit="10" cx="380.037" cy="413.295" r="5.949"/>
<circle fill="none" stroke="#FFFFFF" stroke-width="5" stroke-miterlimit="10" cx="401.742" cy="413.295" r="5.949"/>
<circle fill="none" stroke="#FFFFFF" stroke-width="5" stroke-miterlimit="10" cx="423.448" cy="413.295" r="5.949"/>
<polygon fill="#F7FBFF" stroke="#FFFFFF" stroke-miterlimit="10" points="400.344,369.039 400.344,379.719 400.344,380.365 
	399.251,380.365 398.537,379.5 391.549,371.033 391.532,371.033 391.532,380.365 390.371,380.365 390.371,370.015 390.371,369.039 
	391.463,369.039 391.957,369.636 399.165,378.371 399.183,378.371 399.183,369.039 "/>
<polygon fill="#FFFFFF" points="400.344,369.039 400.344,379.719 400.344,380.365 399.251,380.365 398.537,379.5 391.549,371.033 
	391.532,371.033 391.532,380.365 390.371,380.365 390.371,370.015 390.371,369.039 391.463,369.039 391.957,369.636 
	399.165,378.371 399.183,378.371 399.183,369.039 "/>
<polygon fill="#F7FBFF" stroke="#FFFFFF" stroke-miterlimit="10" points="407.906,375.889 403.708,375.889 403.708,379.341 
	410.959,379.341 410.959,380.365 402.566,380.365 402.566,370.912 410.63,370.912 410.63,371.933 403.708,371.933 403.708,374.866 
	407.906,374.866 "/>
<polygon fill="#FFFFFF" points="407.906,375.889 403.708,375.889 403.708,379.341 410.959,379.341 410.959,380.365 402.566,380.365 
	402.566,370.912 410.63,370.912 410.63,371.933 403.708,371.933 403.708,374.866 407.906,374.866 "/>
<polygon fill="#F7FBFF" stroke="#FFFFFF" stroke-miterlimit="10" points="412.816,370.912 415.415,378.82 415.503,378.82 
	418.156,370.912 419.075,370.912 421.747,378.82 421.818,378.82 424.435,370.912 425.652,370.912 422.406,380.365 421.194,380.365 
	418.642,372.887 418.556,372.887 416.005,380.365 414.791,380.365 411.531,370.912 "/>
<polygon fill="#FFFFFF" points="412.816,370.912 415.415,378.82 415.503,378.82 418.156,370.912 419.075,370.912 421.747,378.82 
	421.818,378.82 424.435,370.912 425.652,370.912 422.406,380.365 421.194,380.365 418.642,372.887 418.556,372.887 416.005,380.365 
	414.791,380.365 411.531,370.912 "/>
<path fill="#F7FBFF" stroke="#FFFFFF" stroke-miterlimit="10" d="M432.031,375.75h4.996l-2.447-5.358h-0.104L432.031,375.75z
	 M428.737,380.365l5.256-11.326h1.145l5.255,11.326h-1.265l-1.682-3.682h-5.849l-1.665,3.682H428.737z"/>
<path fill="#FFFFFF" d="M432.031,375.75h4.996l-2.447-5.358h-0.104L432.031,375.75z M428.737,380.365l5.256-11.326h1.145
	l5.255,11.326h-1.265l-1.682-3.682h-5.849l-1.665,3.682H428.737z"/>
<polygon fill="#F7FBFF" stroke="#FFFFFF" stroke-miterlimit="10" points="449.393,370.912 444.708,380.365 443.599,380.365 
	438.897,370.912 440.217,370.912 444.137,379.01 444.242,379.01 448.162,370.912 "/>
<polygon fill="#FFFFFF" points="449.393,370.912 444.708,380.365 443.599,380.365 438.897,370.912 440.217,370.912 444.137,379.01 
	444.242,379.01 448.162,370.912 "/>
<polygon fill="#F7FBFF" stroke="#FFFFFF" stroke-miterlimit="10" points="455.965,375.889 451.768,375.889 451.768,379.341 
	459.02,379.341 459.02,380.365 450.623,380.365 450.623,370.912 458.691,370.912 458.691,371.933 451.768,371.933 451.768,374.866 
	455.965,374.866 "/>
<polygon fill="#FFFFFF" points="455.965,375.889 451.768,375.889 451.768,379.341 459.02,379.341 459.02,380.365 450.623,380.365 
	450.623,370.912 458.691,370.912 458.691,371.933 451.768,371.933 451.768,374.866 455.965,374.866 "/>
<polygon fill="#F7FBFF" stroke="#FFFFFF" stroke-miterlimit="10" points="469.739,370.912 469.739,380.365 468.661,380.365 
	461.985,372.75 461.966,372.75 461.966,380.365 460.823,380.365 460.823,370.912 461.88,370.912 468.558,378.543 468.575,378.543 
	468.575,370.912 "/>
<polygon fill="#FFFFFF" points="469.739,370.912 469.739,380.365 468.661,380.365 461.985,372.75 461.966,372.75 461.966,380.365 
	460.823,380.365 460.823,370.912 461.88,370.912 468.558,378.543 468.575,378.543 468.575,370.912 "/>
<path fill="#F7FBFF" stroke="#FFFFFF" stroke-miterlimit="10" d="M480.577,370.912v6.188c0,2.238-1.895,3.539-4.406,3.539
	c-2.515,0-4.406-1.301-4.406-3.539v-6.188h1.146v6.188c0,1.599,1.423,2.519,3.261,2.519c1.856,0,3.261-0.92,3.261-2.519v-6.188
	H480.577z"/>
<path fill="#FFFFFF" d="M480.577,370.912v6.188c0,2.238-1.895,3.539-4.406,3.539c-2.515,0-4.406-1.301-4.406-3.539v-6.188h1.146
	v6.188c0,1.599,1.423,2.519,3.261,2.519c1.856,0,3.261-0.92,3.261-2.519v-6.188H480.577z"/>
<polygon fill="#F7FBFF" stroke="#FFFFFF" stroke-miterlimit="10" points="488.035,375.889 483.837,375.889 483.837,379.341 
	491.049,379.341 491.049,380.365 482.694,380.365 482.694,370.912 490.759,370.912 490.759,371.933 483.837,371.933 
	483.837,374.866 488.035,374.866 "/>
<polygon fill="#FFFFFF" points="488.035,375.889 483.837,375.889 483.837,379.341 491.049,379.341 491.049,380.365 482.694,380.365 
	482.694,370.912 490.759,370.912 490.759,371.933 483.837,371.933 483.837,374.866 488.035,374.866 "/>
<path fill="#F7FBFF" stroke="#FFFFFF" stroke-miterlimit="10" d="M392.702,388.441c0.992,0,1.507-0.271,1.979-0.688
	c0.418-0.409,0.665-0.979,0.665-1.598s-0.236-1.168-0.635-1.579c-0.482-0.429-0.995-0.718-2.009-0.718h-1.805v4.582L392.702,388.441
	L392.702,388.441z M390.374,388.902v-5.494h2.347c1.179,0,1.835,0.328,2.399,0.858c0.489,0.483,0.769,1.148,0.769,1.89
	c0,0.733-0.278,1.412-0.791,1.916c-0.562,0.513-1.218,0.83-2.377,0.83H390.374L390.374,388.902z"/>
<path fill="none" d="M392.702,388.441c0.992,0,1.507-0.271,1.979-0.688c0.418-0.409,0.665-0.979,0.665-1.598
	s-0.236-1.168-0.635-1.579c-0.482-0.429-0.995-0.718-2.009-0.718h-1.805v4.582L392.702,388.441L392.702,388.441z M390.374,388.902
	v-5.494h2.347c1.179,0,1.835,0.328,2.399,0.858c0.489,0.483,0.769,1.148,0.769,1.89c0,0.733-0.278,1.412-0.791,1.916
	c-0.562,0.513-1.218,0.83-2.377,0.83H390.374L390.374,388.902z"/>
<polygon fill="#F7FBFF" stroke="#FFFFFF" stroke-miterlimit="10" points="406.67,386.217 404.16,386.217 404.16,388.44 
	408.486,388.44 408.486,388.902 403.636,388.902 403.636,383.409 408.29,383.409 408.29,383.859 404.16,383.859 404.16,385.756 
	406.67,385.756 "/>
<polygon fill="none" points="406.67,386.217 404.16,386.217 404.16,388.44 408.486,388.44 408.486,388.902 403.636,388.902 
	403.636,383.409 408.29,383.409 408.29,383.859 404.16,383.859 404.16,385.756 406.67,385.756 "/>
<polygon fill="#F7FBFF" stroke="#FFFFFF" stroke-miterlimit="10" points="421.121,383.409 421.121,388.902 420.629,388.902 
	416.519,384.209 416.51,384.209 416.51,388.902 415.988,388.902 415.988,383.409 416.49,383.409 420.599,388.094 420.61,388.094 
	420.61,383.409 "/>
<polygon fill="none" points="421.121,383.409 421.121,388.902 420.629,388.902 416.519,384.209 416.51,384.209 416.51,388.902 
	415.988,388.902 415.988,383.409 416.49,383.409 420.599,388.094 420.61,388.094 420.61,383.409 "/>
<polygon fill="#F7FBFF" stroke="#FFFFFF" stroke-miterlimit="10" points="428.46,383.409 433.491,383.409 433.491,383.859 
	431.238,383.859 431.238,388.902 430.723,388.902 430.723,383.859 428.46,383.859 "/>
<polygon fill="none" points="428.46,383.409 433.491,383.409 433.491,383.859 431.238,383.859 431.238,388.902 430.723,388.902 
	430.723,383.859 428.46,383.859 "/>
<rect x="440.83" y="383.409" fill="#F7FBFF" stroke="#FFFFFF" stroke-miterlimit="10" width="0.521" height="5.493"/>
<rect x="440.83" y="383.409" fill="none" width="0.521" height="5.493"/>
<path fill="#F7FBFF" stroke="#FFFFFF" stroke-miterlimit="10" d="M453.816,384.432c-0.359-0.307-1.148-0.718-2.234-0.718
	c-0.82,0-1.763,0.298-1.763,1.107c0,0.8,1.087,0.84,2.101,0.898c1.004,0.054,2.655,0.146,2.655,1.549
	c0,1.229-1.24,1.771-2.655,1.771c-1.445,0-2.336-0.583-2.94-1.127l0.317-0.358c0.522,0.451,1.331,1.035,2.633,1.035
	c1.141,0,2.121-0.41,2.121-1.261c0-0.954-1.157-1.065-2.131-1.118c-1.229-0.072-2.623-0.143-2.623-1.363
	c0-1.196,1.291-1.588,2.296-1.588c1.177,0,2.11,0.476,2.551,0.82L453.816,384.432z"/>
<path fill="none" d="M453.816,384.432c-0.359-0.307-1.148-0.718-2.234-0.718c-0.82,0-1.763,0.298-1.763,1.107
	c0,0.8,1.087,0.84,2.101,0.898c1.004,0.054,2.655,0.146,2.655,1.549c0,1.229-1.24,1.771-2.655,1.771
	c-1.445,0-2.336-0.583-2.94-1.127l0.317-0.358c0.522,0.451,1.331,1.035,2.633,1.035c1.141,0,2.121-0.41,2.121-1.261
	c0-0.954-1.157-1.065-2.131-1.118c-1.229-0.072-2.623-0.143-2.623-1.363c0-1.196,1.291-1.588,2.296-1.588
	c1.177,0,2.11,0.476,2.551,0.82L453.816,384.432z"/>
<polygon fill="#F7FBFF" stroke="#FFFFFF" stroke-miterlimit="10" points="461.196,383.409 466.226,383.409 466.226,383.859 
	463.971,383.859 463.971,388.902 463.458,388.902 463.458,383.859 461.196,383.859 "/>
<polygon fill="none" points="461.196,383.409 466.226,383.409 466.226,383.859 463.971,383.859 463.971,388.902 463.458,388.902 
	463.458,383.859 461.196,383.859 "/>
<path fill="#F7FBFF" stroke="#FFFFFF" stroke-miterlimit="10" d="M474.086,383.859v2.215h2.91c0.791,0,1.292-0.502,1.292-1.107
	c0-0.256-0.104-0.502-0.287-0.693c-0.297-0.276-0.594-0.411-1.239-0.411L474.086,383.859L474.086,383.859z M473.566,388.902v-5.492
	h3.194c0.83,0,1.271,0.203,1.629,0.551c0.258,0.268,0.421,0.617,0.421,1.006c0,0.779-0.554,1.383-1.454,1.496l1.485,2.439h-0.595
	l-1.426-2.367h-2.736v2.367H473.566z"/>
<path fill="none" d="M474.086,383.859v2.215h2.91c0.791,0,1.292-0.502,1.292-1.107c0-0.256-0.104-0.502-0.287-0.693
	c-0.297-0.276-0.594-0.411-1.239-0.411L474.086,383.859L474.086,383.859z M473.566,388.902v-5.492h3.194
	c0.83,0,1.271,0.203,1.629,0.551c0.258,0.268,0.421,0.617,0.421,1.006c0,0.779-0.554,1.383-1.454,1.496l1.485,2.439h-0.595
	l-1.426-2.367h-2.736v2.367H473.566z"/>
<polygon fill="#F7FBFF" stroke="#FFFFFF" stroke-miterlimit="10" points="491.059,383.409 488.661,386.289 488.661,388.902 
	488.137,388.902 488.137,386.289 485.74,383.409 486.385,383.409 488.414,385.817 490.453,383.409 "/>
<polygon fill="none" points="491.059,383.409 488.661,386.289 488.661,388.902 488.137,388.902 488.137,386.289 485.74,383.409 
	486.385,383.409 488.414,385.817 490.453,383.409 "/>
<path fill="#7AA6D0" stroke="#FFFFFF" stroke-miterlimit="10" d="M381.097,375.557c0-2.469-2.001-4.47-4.469-4.47
	c-2.466,0-4.467,2.001-4.467,4.47c0,0.24,0.019,0.479,0.055,0.709c0.03,0.188,0.072,0.369,0.124,0.552h-0.002
	c0.848,3.123,3.155,8.228,3.922,9.767h0.001c0.068,0.134,0.206,0.229,0.367,0.229c0.163,0,0.303-0.097,0.37-0.229
	c0.767-1.539,3.07-6.643,3.92-9.767h-0.001C381.033,376.416,381.097,375.995,381.097,375.557"/>
<path fill="none" d="M381.097,375.557c0-2.469-2.001-4.47-4.469-4.47c-2.466,0-4.467,2.001-4.467,4.47
	c0,0.24,0.019,0.479,0.055,0.709c0.03,0.188,0.072,0.369,0.124,0.552h-0.002c0.848,3.123,3.155,8.228,3.922,9.767h0.001
	c0.068,0.134,0.206,0.229,0.367,0.229c0.163,0,0.303-0.097,0.37-0.229c0.767-1.539,3.07-6.643,3.92-9.767h-0.001
	C381.033,376.416,381.097,375.995,381.097,375.557"/>
<path fill="#7AA6D0" stroke="#FFFFFF" stroke-miterlimit="10" d="M369.568,369.76c-1.154,0-2.095,0.938-2.095,2.098v14.223
	c0,1.154,0.939,2.096,2.095,2.096h14.225c1.152,0,2.095-0.938,2.095-2.096v-14.223c0-1.156-0.941-2.098-2.095-2.098H369.568z
	 M383.792,388.908h-14.225c-1.56,0-2.827-1.271-2.827-2.83v-14.223c0-1.562,1.269-2.829,2.827-2.829h14.225
	c1.56,0,2.829,1.268,2.829,2.829v14.223C386.621,387.637,385.352,388.908,383.792,388.908"/>
<path fill="none" d="M369.568,369.76c-1.154,0-2.095,0.938-2.095,2.098v14.223c0,1.154,0.939,2.096,2.095,2.096h14.225
	c1.152,0,2.095-0.938,2.095-2.096v-14.223c0-1.156-0.941-2.098-2.095-2.098H369.568z M383.792,388.908h-14.225
	c-1.56,0-2.827-1.271-2.827-2.83v-14.223c0-1.562,1.269-2.829,2.827-2.829h14.225c1.56,0,2.829,1.268,2.829,2.829v14.223
	C386.621,387.637,385.352,388.908,383.792,388.908"/>
<path fill="#FFFFFF" stroke="#FFFFFF" stroke-miterlimit="10" d="M379.162,374.132c-0.512-1.099-1.521-0.511-2.532-0.491
	c-1.012-0.02-2.023-0.604-2.533,0.491c-0.498,1.496,0.374,2.17,0.526,3.572c0.151,1.401,0.374,1.866,0.679,1.86
	c0.351-0.011,0.567-0.511,0.829-1.358c0.179-0.578,0.342-0.732,0.499-0.732c0.158,0,0.321,0.154,0.498,0.732
	c0.262,0.848,0.479,1.35,0.831,1.358c0.303,0.006,0.524-0.462,0.678-1.86C378.789,376.302,379.661,375.628,379.162,374.132"/>
<path fill="none" d="M379.162,374.132c-0.512-1.099-1.521-0.511-2.532-0.491c-1.012-0.02-2.023-0.604-2.533,0.491
	c-0.498,1.496,0.374,2.17,0.526,3.572c0.151,1.401,0.374,1.866,0.679,1.86c0.351-0.011,0.567-0.511,0.829-1.358
	c0.179-0.578,0.342-0.732,0.499-0.732c0.158,0,0.321,0.154,0.498,0.732c0.262,0.848,0.479,1.35,0.831,1.358
	c0.303,0.006,0.524-0.462,0.678-1.86C378.789,376.302,379.661,375.628,379.162,374.132"/>
<path fill="none" stroke="#FFFFFF" stroke-width="3" stroke-miterlimit="10" d="M506.755,413.272"/>
<path fill="none" stroke="#FFFFFF" stroke-width="3" stroke-miterlimit="10" d="M350.524,413.295"/>
<path fill="none" stroke="#FFFFFF" stroke-width="3" stroke-miterlimit="10" d="M335.117,413.295"/>
<path fill="none" stroke="#FFFFFF" stroke-width="5" stroke-miterlimit="10" d="M355.563,356.852v56.421h11.696
	c0.011-7.037,5.739-12.76,12.777-12.76c4.582,0,8.598,2.435,10.852,6.065c2.257-3.633,6.272-6.065,10.854-6.065
	s8.596,2.435,10.852,6.065c2.257-3.633,6.271-6.065,10.854-6.065c7.039,0,12.767,5.723,12.775,12.76h65.9v-56.42L355.563,356.852
	L355.563,356.852z"/>
<line fill="none" stroke="#FFFFFF" stroke-width="5" stroke-linecap="round" stroke-linejoin="round" stroke-miterlimit="10" x1="502.216" y1="407.523" x2="507.522" y2="407.523"/>
<path fill="#FFFFFF" stroke="#FFFFFF" stroke-miterlimit="10" d="M621.592,276.67V139.219V276.67z"/>
<line fill="none" stroke="#FFFFFF" stroke-width="7" stroke-miterlimit="10" x1="621.592" y1="139.219" x2="621.592" y2="276.67"/>
<path fill="#FFFFFF" stroke="#FFFFFF" stroke-miterlimit="10" d="M529.786,274.228V143.877V274.228z"/>
<line fill="none" stroke="#FFFFFF" stroke-width="7" stroke-miterlimit="10" x1="529.786" y1="143.877" x2="529.786" y2="274.228"/>
<path fill="#FFFFFF" stroke="#FFFFFF" stroke-miterlimit="10" d="M575.692,276.67V145.52V276.67z"/>
<line fill="none" stroke="#FFFFFF" stroke-width="7" stroke-miterlimit="10" x1="575.692" y1="145.518" x2="575.692" y2="276.67"/>
<path fill="#FFFFFF" stroke="#FFFFFF" stroke-miterlimit="10" d="M392.077,187.041h229.515H392.077z"/>
<line fill="none" stroke="#FFFFFF" stroke-width="5" stroke-miterlimit="10" x1="392.077" y1="187.041" x2="621.592" y2="187.041"/>
<path fill="#FFFFFF" stroke="#FFFFFF" stroke-miterlimit="10" d="M483.883,219.186v-76.483V219.186z"/>
<line fill="none" stroke="#FFFFFF" stroke-width="7" stroke-miterlimit="10" x1="483.883" y1="142.703" x2="483.883" y2="281.051"/>
<path fill="#FFFFFF" stroke="#FFFFFF" stroke-miterlimit="10" d="M437.979,219.186v-76.483V219.186z"/>
<line fill="none" stroke="#FFFFFF" stroke-width="7" stroke-miterlimit="10" x1="437.981" y1="142.703" x2="437.981" y2="219.186"/>
<path fill="#FFFFFF" stroke="#FFFFFF" stroke-miterlimit="10" d="M392.077,142.703h229.515H392.077z"/>
<line fill="none" stroke="#FFFFFF" stroke-width="7" stroke-miterlimit="10" x1="392.077" y1="142.703" x2="621.592" y2="142.703"/>
<path fill="#FFFFFF" stroke="#FFFFFF" stroke-miterlimit="10" d="M395.567,219.186v-77.622V219.186z"/>
<line fill="none" stroke="#FFFFFF" stroke-width="7" stroke-miterlimit="10" x1="395.567" y1="141.564" x2="395.567" y2="219.186"/>
<line fill="none" stroke="#FFFFFF" stroke-width="5" stroke-miterlimit="10" x1="393.077" y1="229.541" x2="622.592" y2="229.541"/>
<line fill="none" stroke="#FFFFFF" stroke-width="7" stroke-miterlimit="10" x1="395.592" y1="170.719" x2="395.592" y2="308.17"/>
<line fill="none" stroke="#FFFFFF" stroke-width="7" stroke-miterlimit="10" x1="438.092" y1="183.719" x2="438.092" y2="321.17"/>
<path fill="none" stroke="#FFFFFF" stroke-width="7" stroke-miterlimit="10" d="M483.842,310.67"/>
<path fill="none" stroke="#FFFFFF" stroke-width="7" stroke-miterlimit="10" d="M483.842,173.219"/>
<line fill="none" stroke="#FFFFFF" stroke-width="5" stroke-miterlimit="10" x1="393.077" y1="275.703" x2="622.592" y2="275.703"/>
<line fill="none" stroke="#FFFFFF" stroke-width="7" stroke-miterlimit="10" x1="511.256" y1="409.67" x2="625.082" y2="409.67"/>
</svg>
