<?xml version="1.0" encoding="utf-8"?>
<!-- Generator: Adobe Illustrator 16.0.4, SVG Export Plug-In . SVG Version: 6.00 Build 0)  -->
<!DOCTYPE svg PUBLIC "-//W3C//DTD SVG 1.1//EN" "http://www.w3.org/Graphics/SVG/1.1/DTD/svg11.dtd">
<svg version="1.1" id="Layer_1" xmlns="http://www.w3.org/2000/svg" xmlns:xlink="http://www.w3.org/1999/xlink" x="0px" y="0px"
	 width="98.753px" height="42.285px" viewBox="0 0 98.753 42.285" enable-background="new 0 0 98.753 42.285" xml:space="preserve">
<g>
	<defs>
		<rect id="SVGID_1_" x="-256.184" y="-375.068" width="612" height="792"/>
	</defs>
	<clipPath id="SVGID_2_">
		<use xlink:href="#SVGID_1_"  overflow="visible"/>
	</clipPath>
	
		<circle clip-path="url(#SVGID_2_)" fill="none" stroke="#FFFFFF" stroke-width="2.783" stroke-miterlimit="10" cx="16.712" cy="37.099" r="3.794"/>
	
		<circle clip-path="url(#SVGID_2_)" fill="none" stroke="#FFFFFF" stroke-width="2.783" stroke-miterlimit="10" cx="30.555" cy="37.099" r="3.794"/>
	
		<circle clip-path="url(#SVGID_2_)" fill="none" stroke="#FFFFFF" stroke-width="2.783" stroke-miterlimit="10" cx="44.397" cy="37.099" r="3.794"/>
	<path clip-path="url(#SVGID_2_)" fill="none" stroke="#FFFFFF" stroke-width="2.208" stroke-miterlimit="10" d="M1.104,1.104
		v35.981h7.459c0.007-4.488,3.66-8.137,8.149-8.137c2.922,0,5.483,1.552,6.921,3.868c1.439-2.316,4-3.868,6.922-3.868
		c2.922,0,5.482,1.552,6.921,3.868c1.439-2.316,3.999-3.868,6.921-3.868c4.489,0,8.142,3.648,8.149,8.137h42.028V1.104H1.104z"/>
	
		<line clip-path="url(#SVGID_2_)" fill="none" stroke="#FFFFFF" stroke-width="1.472" stroke-linecap="round" stroke-linejoin="round" stroke-miterlimit="10" x1="94.633" y1="33.418" x2="98.017" y2="33.418"/>
	<polygon clip-path="url(#SVGID_2_)" fill="#FFFFFF" points="29.664,8.875 29.664,16.099 28.967,16.099 24.055,10.146 
		24.043,10.146 24.043,16.099 23.303,16.099 23.303,8.875 24,8.875 28.912,14.827 28.923,14.827 28.923,8.875 	"/>
	<polygon clip-path="url(#SVGID_2_)" fill="#FFFFFF" points="34.486,13.244 31.809,13.244 31.809,15.445 36.433,15.445 
		36.433,16.098 31.079,16.098 31.079,10.069 36.223,10.069 36.223,10.722 31.809,10.722 31.809,12.591 34.486,12.591 	"/>
	<polygon clip-path="url(#SVGID_2_)" fill="#FFFFFF" points="37.616,10.069 39.275,15.113 39.331,15.113 41.023,10.069 
		41.609,10.069 43.313,15.113 43.357,15.113 45.028,10.069 45.802,10.069 43.733,16.098 42.959,16.098 41.333,11.33 41.278,11.33 
		39.651,16.098 38.877,16.098 36.797,10.069 	"/>
	<path clip-path="url(#SVGID_2_)" fill="#FFFFFF" d="M47.77,16.099l3.353-7.224h0.729l3.353,7.224h-0.808l-1.072-2.346h-3.729
		l-1.062,2.346H47.77z M49.872,13.156h3.186l-1.56-3.418h-0.066L49.872,13.156z"/>
	<polygon clip-path="url(#SVGID_2_)" fill="#FFFFFF" points="60.944,10.069 57.957,16.098 57.25,16.098 54.252,10.069 
		55.093,10.069 57.593,15.235 57.659,15.235 60.159,10.069 	"/>
	<polygon clip-path="url(#SVGID_2_)" fill="#FFFFFF" points="65.137,13.244 62.459,13.244 62.459,15.445 67.083,15.445 
		67.083,16.098 61.729,16.098 61.729,10.069 66.873,10.069 66.873,10.722 62.459,10.722 62.459,12.591 65.137,12.591 	"/>
	<polygon clip-path="url(#SVGID_2_)" fill="#FFFFFF" points="73.919,10.069 73.919,16.098 73.233,16.098 68.975,11.241 
		68.963,11.241 68.963,16.098 68.233,16.098 68.233,10.069 68.908,10.069 73.167,14.936 73.178,14.936 73.178,10.069 	"/>
	<path clip-path="url(#SVGID_2_)" fill="#FFFFFF" d="M80.832,10.069v3.949c0,1.427-1.206,2.257-2.81,2.257
		c-1.604,0-2.811-0.83-2.811-2.257v-3.949h0.73v3.949c0,1.018,0.908,1.604,2.08,1.604c1.184,0,2.08-0.586,2.08-1.604v-3.949H80.832z
		"/>
	<polygon clip-path="url(#SVGID_2_)" fill="#FFFFFF" points="85.589,13.244 82.911,13.244 82.911,15.445 87.511,15.445 
		87.511,16.098 82.182,16.098 82.182,10.069 87.325,10.069 87.325,10.722 82.911,10.722 82.911,12.591 85.589,12.591 	"/>
	<path clip-path="url(#SVGID_2_)" fill="#FFFFFF" d="M23.305,21.542V18.04h1.497c0.752,0,1.17,0.209,1.53,0.549
		c0.313,0.307,0.49,0.732,0.49,1.203c0,0.47-0.177,0.901-0.504,1.222c-0.359,0.327-0.777,0.529-1.516,0.529H23.305z M24.789,21.249
		c0.634,0,0.961-0.17,1.262-0.438c0.267-0.261,0.424-0.627,0.424-1.019c0-0.393-0.15-0.745-0.405-1.007
		c-0.307-0.274-0.634-0.458-1.281-0.458h-1.15v2.922H24.789z"/>
	<polygon clip-path="url(#SVGID_2_)" fill="#FFFFFF" points="33.698,19.83 32.097,19.83 32.097,21.249 34.855,21.249 34.855,21.543 
		31.763,21.543 31.763,18.039 34.731,18.039 34.731,18.327 32.097,18.327 32.097,19.536 33.698,19.536 	"/>
	<polygon clip-path="url(#SVGID_2_)" fill="#FFFFFF" points="42.914,18.04 42.914,21.542 42.6,21.542 39.979,18.549 39.973,18.549 
		39.973,21.542 39.639,21.542 39.639,18.04 39.96,18.04 42.581,21.027 42.587,21.027 42.587,18.04 	"/>
	<polygon clip-path="url(#SVGID_2_)" fill="#FFFFFF" points="47.594,18.04 50.803,18.04 50.803,18.327 49.365,18.327 49.365,21.542 
		49.038,21.542 49.038,18.327 47.594,18.327 	"/>
	<rect x="55.483" y="18.039" clip-path="url(#SVGID_2_)" fill="#FFFFFF" width="0.333" height="3.503"/>
	<path clip-path="url(#SVGID_2_)" fill="#FFFFFF" d="M63.765,18.693c-0.229-0.196-0.732-0.458-1.425-0.458
		c-0.523,0-1.124,0.19-1.124,0.706c0,0.51,0.692,0.536,1.34,0.575c0.64,0.033,1.692,0.092,1.692,0.987
		c0,0.786-0.791,1.131-1.692,1.131c-0.922,0-1.49-0.372-1.876-0.719l0.203-0.228c0.333,0.287,0.849,0.66,1.679,0.66
		c0.726,0,1.353-0.262,1.353-0.804c0-0.608-0.737-0.68-1.358-0.713c-0.784-0.046-1.673-0.091-1.673-0.869
		c0-0.765,0.822-1.013,1.464-1.013c0.751,0,1.346,0.301,1.627,0.523L63.765,18.693z"/>
	<polygon clip-path="url(#SVGID_2_)" fill="#FFFFFF" points="68.471,18.04 71.68,18.04 71.68,18.327 70.242,18.327 70.242,21.542 
		69.915,21.542 69.915,18.327 68.471,18.327 	"/>
	<path clip-path="url(#SVGID_2_)" fill="#FFFFFF" d="M76.36,21.542V18.04h2.039c0.528,0,0.81,0.13,1.039,0.352
		c0.164,0.17,0.268,0.393,0.268,0.641c0,0.497-0.353,0.882-0.928,0.954l0.948,1.556h-0.38l-0.908-1.51h-1.745v1.51H76.36z
		 M76.693,18.327v1.412h1.855c0.504,0,0.824-0.32,0.824-0.706c0-0.163-0.066-0.32-0.183-0.444c-0.19-0.177-0.379-0.262-0.791-0.262
		H76.693z"/>
	<polygon clip-path="url(#SVGID_2_)" fill="#FFFFFF" points="87.517,18.04 85.988,19.876 85.988,21.542 85.654,21.542 
		85.654,19.876 84.125,18.04 84.537,18.04 85.831,19.576 87.131,18.04 	"/>
	<path clip-path="url(#SVGID_2_)" fill="none" stroke="#FFFFFF" stroke-width="0.5" stroke-miterlimit="10" d="M17.389,13.032
		c0-1.574-1.276-2.85-2.85-2.85c-1.573,0-2.849,1.276-2.849,2.85c0,0.154,0.012,0.305,0.035,0.452
		c0.019,0.119,0.046,0.236,0.079,0.35h-0.001c0.541,1.992,2.012,5.248,2.501,6.229h0.001c0.043,0.086,0.131,0.146,0.234,0.146
		c0.104,0,0.193-0.059,0.236-0.146c0.489-0.981,1.959-4.237,2.5-6.229h-0.001C17.348,13.58,17.389,13.312,17.389,13.032z"/>
	<path clip-path="url(#SVGID_2_)" fill="#FFFFFF" d="M19.107,21.546h-9.071c-0.995,0-1.804-0.809-1.804-1.804v-9.071
		c0-0.995,0.809-1.804,1.804-1.804h9.071c0.995,0,1.804,0.809,1.804,1.804v9.071C20.911,20.737,20.102,21.546,19.107,21.546
		 M10.036,9.335c-0.737,0-1.336,0.599-1.336,1.336v9.071c0,0.736,0.599,1.336,1.336,1.336h9.071c0.736,0,1.336-0.601,1.336-1.336
		v-9.071c0-0.737-0.6-1.336-1.336-1.336H10.036z"/>
	<path clip-path="url(#SVGID_2_)" fill="#FFFFFF" d="M16.155,12.123c-0.325-0.701-0.97-0.326-1.615-0.314
		c-0.645-0.012-1.29-0.387-1.615,0.314c-0.318,0.954,0.238,1.384,0.335,2.278c0.098,0.894,0.239,1.191,0.433,1.186
		c0.224-0.005,0.362-0.324,0.529-0.865c0.114-0.369,0.218-0.467,0.318-0.467c0.101,0,0.205,0.098,0.318,0.467
		c0.167,0.541,0.305,0.86,0.53,0.865c0.193,0.005,0.335-0.292,0.432-1.186C15.917,13.507,16.473,13.077,16.155,12.123"/>
</g>
</svg>
